%TF.GenerationSoftware,KiCad,Pcbnew,7.0.9*%
%TF.CreationDate,2024-08-10T11:55:06+09:00*%
%TF.ProjectId,LEDboard,4c454462-6f61-4726-942e-6b696361645f,rev?*%
%TF.SameCoordinates,Original*%
%TF.FileFunction,Copper,L2,Bot*%
%TF.FilePolarity,Positive*%
%FSLAX46Y46*%
G04 Gerber Fmt 4.6, Leading zero omitted, Abs format (unit mm)*
G04 Created by KiCad (PCBNEW 7.0.9) date 2024-08-10 11:55:06*
%MOMM*%
%LPD*%
G01*
G04 APERTURE LIST*
%TA.AperFunction,ComponentPad*%
%ADD10C,1.400000*%
%TD*%
%TA.AperFunction,ComponentPad*%
%ADD11O,1.400000X1.400000*%
%TD*%
%TA.AperFunction,ComponentPad*%
%ADD12C,1.800000*%
%TD*%
%TA.AperFunction,ComponentPad*%
%ADD13R,1.800000X1.800000*%
%TD*%
%TA.AperFunction,Conductor*%
%ADD14C,2.000000*%
%TD*%
G04 APERTURE END LIST*
D10*
%TO.P,R5,1*%
%TO.N,Net-(J1-Pin_1)*%
X158050000Y-87570000D03*
D11*
%TO.P,R5,2*%
%TO.N,Net-(D5-A)*%
X158050000Y-95190000D03*
%TD*%
D10*
%TO.P,R4,1*%
%TO.N,Net-(J1-Pin_1)*%
X147890000Y-87570000D03*
D11*
%TO.P,R4,2*%
%TO.N,Net-(D4-A)*%
X147890000Y-95190000D03*
%TD*%
D10*
%TO.P,R3,1*%
%TO.N,Net-(J1-Pin_1)*%
X137730000Y-87570000D03*
D11*
%TO.P,R3,2*%
%TO.N,Net-(D3-A)*%
X137730000Y-95190000D03*
%TD*%
D10*
%TO.P,R2,1*%
%TO.N,Net-(J1-Pin_1)*%
X127570000Y-87570000D03*
D11*
%TO.P,R2,2*%
%TO.N,Net-(D2-A)*%
X127570000Y-95190000D03*
%TD*%
D10*
%TO.P,R1,1*%
%TO.N,Net-(J1-Pin_1)*%
X117410000Y-87570000D03*
D11*
%TO.P,R1,2*%
%TO.N,Net-(D1-A)*%
X117410000Y-95190000D03*
%TD*%
D12*
%TO.P,J2,1,Pin_1*%
%TO.N,Net-(D3-K)*%
X165670000Y-100270000D03*
%TO.P,J2,2,Pin_2*%
%TO.N,Net-(D4-K)*%
X165670000Y-102810000D03*
%TO.P,J2,3,Pin_3*%
%TO.N,Net-(D5-K)*%
X165670000Y-105350000D03*
%TD*%
%TO.P,J1,1,Pin_1*%
%TO.N,Net-(J1-Pin_1)*%
X165670000Y-90110000D03*
%TO.P,J1,2,Pin_2*%
%TO.N,Net-(D1-K)*%
X165670000Y-92650000D03*
%TO.P,J1,3,Pin_3*%
%TO.N,Net-(D2-K)*%
X165670000Y-95190000D03*
%TD*%
D13*
%TO.P,D5,1,K*%
%TO.N,Net-(D5-K)*%
X158050000Y-102810000D03*
D12*
%TO.P,D5,2,A*%
%TO.N,Net-(D5-A)*%
X158050000Y-100270000D03*
%TD*%
D13*
%TO.P,D4,1,K*%
%TO.N,Net-(D4-K)*%
X147890000Y-102810000D03*
D12*
%TO.P,D4,2,A*%
%TO.N,Net-(D4-A)*%
X147890000Y-100270000D03*
%TD*%
D13*
%TO.P,D3,1,K*%
%TO.N,Net-(D3-K)*%
X137730000Y-102810000D03*
D12*
%TO.P,D3,2,A*%
%TO.N,Net-(D3-A)*%
X137730000Y-100270000D03*
%TD*%
D13*
%TO.P,D2,1,K*%
%TO.N,Net-(D2-K)*%
X127570000Y-102810000D03*
D12*
%TO.P,D2,2,A*%
%TO.N,Net-(D2-A)*%
X127570000Y-100270000D03*
%TD*%
%TO.P,D1,2,A*%
%TO.N,Net-(D1-A)*%
X117410000Y-100270000D03*
D13*
%TO.P,D1,1,K*%
%TO.N,Net-(D1-K)*%
X117410000Y-102810000D03*
%TD*%
D14*
%TO.N,Net-(D5-A)*%
X158050000Y-95190000D02*
X158050000Y-100270000D01*
%TO.N,Net-(D4-A)*%
X147890000Y-95190000D02*
X147890000Y-100270000D01*
%TO.N,Net-(D3-A)*%
X137730000Y-95190000D02*
X137730000Y-100270000D01*
%TO.N,Net-(D2-A)*%
X127570000Y-95190000D02*
X127570000Y-100270000D01*
%TO.N,Net-(D2-K)*%
X126810000Y-102810000D02*
X127570000Y-102810000D01*
X126500000Y-92500000D02*
X124000000Y-95000000D01*
X124000000Y-95000000D02*
X124000000Y-100000000D01*
X160500000Y-92500000D02*
X126500000Y-92500000D01*
X124000000Y-100000000D02*
X126810000Y-102810000D01*
X163190000Y-95190000D02*
X160500000Y-92500000D01*
X165670000Y-95190000D02*
X163190000Y-95190000D01*
%TO.N,Net-(D1-A)*%
X117410000Y-95190000D02*
X117410000Y-100270000D01*
%TD*%
M02*
