%TF.GenerationSoftware,KiCad,Pcbnew,7.0.9*%
%TF.CreationDate,2024-08-10T11:55:06+09:00*%
%TF.ProjectId,LEDboard,4c454462-6f61-4726-942e-6b696361645f,rev?*%
%TF.SameCoordinates,Original*%
%TF.FileFunction,Legend,Bot*%
%TF.FilePolarity,Positive*%
%FSLAX46Y46*%
G04 Gerber Fmt 4.6, Leading zero omitted, Abs format (unit mm)*
G04 Created by KiCad (PCBNEW 7.0.9) date 2024-08-10 11:55:06*
%MOMM*%
%LPD*%
G01*
G04 APERTURE LIST*
%ADD10C,0.150000*%
%ADD11C,0.120000*%
G04 APERTURE END LIST*
D10*
X163710839Y-89720057D02*
X163663220Y-89672438D01*
X163663220Y-89672438D02*
X163567982Y-89624819D01*
X163567982Y-89624819D02*
X163329887Y-89624819D01*
X163329887Y-89624819D02*
X163234649Y-89672438D01*
X163234649Y-89672438D02*
X163187030Y-89720057D01*
X163187030Y-89720057D02*
X163139411Y-89815295D01*
X163139411Y-89815295D02*
X163139411Y-89910533D01*
X163139411Y-89910533D02*
X163187030Y-90053390D01*
X163187030Y-90053390D02*
X163758458Y-90624819D01*
X163758458Y-90624819D02*
X163139411Y-90624819D01*
X162282268Y-89958152D02*
X162282268Y-90624819D01*
X162520363Y-89577200D02*
X162758458Y-90291485D01*
X162758458Y-90291485D02*
X162139411Y-90291485D01*
X161901315Y-89624819D02*
X161567982Y-90624819D01*
X161567982Y-90624819D02*
X161234649Y-89624819D01*
X163663220Y-100784819D02*
X163663220Y-99784819D01*
X163663220Y-99784819D02*
X163425125Y-99784819D01*
X163425125Y-99784819D02*
X163282268Y-99832438D01*
X163282268Y-99832438D02*
X163187030Y-99927676D01*
X163187030Y-99927676D02*
X163139411Y-100022914D01*
X163139411Y-100022914D02*
X163091792Y-100213390D01*
X163091792Y-100213390D02*
X163091792Y-100356247D01*
X163091792Y-100356247D02*
X163139411Y-100546723D01*
X163139411Y-100546723D02*
X163187030Y-100641961D01*
X163187030Y-100641961D02*
X163282268Y-100737200D01*
X163282268Y-100737200D02*
X163425125Y-100784819D01*
X163425125Y-100784819D02*
X163663220Y-100784819D01*
X162758458Y-99784819D02*
X162139411Y-99784819D01*
X162139411Y-99784819D02*
X162472744Y-100165771D01*
X162472744Y-100165771D02*
X162329887Y-100165771D01*
X162329887Y-100165771D02*
X162234649Y-100213390D01*
X162234649Y-100213390D02*
X162187030Y-100261009D01*
X162187030Y-100261009D02*
X162139411Y-100356247D01*
X162139411Y-100356247D02*
X162139411Y-100594342D01*
X162139411Y-100594342D02*
X162187030Y-100689580D01*
X162187030Y-100689580D02*
X162234649Y-100737200D01*
X162234649Y-100737200D02*
X162329887Y-100784819D01*
X162329887Y-100784819D02*
X162615601Y-100784819D01*
X162615601Y-100784819D02*
X162710839Y-100737200D01*
X162710839Y-100737200D02*
X162758458Y-100689580D01*
X163663220Y-103324819D02*
X163663220Y-102324819D01*
X163663220Y-102324819D02*
X163425125Y-102324819D01*
X163425125Y-102324819D02*
X163282268Y-102372438D01*
X163282268Y-102372438D02*
X163187030Y-102467676D01*
X163187030Y-102467676D02*
X163139411Y-102562914D01*
X163139411Y-102562914D02*
X163091792Y-102753390D01*
X163091792Y-102753390D02*
X163091792Y-102896247D01*
X163091792Y-102896247D02*
X163139411Y-103086723D01*
X163139411Y-103086723D02*
X163187030Y-103181961D01*
X163187030Y-103181961D02*
X163282268Y-103277200D01*
X163282268Y-103277200D02*
X163425125Y-103324819D01*
X163425125Y-103324819D02*
X163663220Y-103324819D01*
X162234649Y-102658152D02*
X162234649Y-103324819D01*
X162472744Y-102277200D02*
X162710839Y-102991485D01*
X162710839Y-102991485D02*
X162091792Y-102991485D01*
X163663220Y-105864819D02*
X163663220Y-104864819D01*
X163663220Y-104864819D02*
X163425125Y-104864819D01*
X163425125Y-104864819D02*
X163282268Y-104912438D01*
X163282268Y-104912438D02*
X163187030Y-105007676D01*
X163187030Y-105007676D02*
X163139411Y-105102914D01*
X163139411Y-105102914D02*
X163091792Y-105293390D01*
X163091792Y-105293390D02*
X163091792Y-105436247D01*
X163091792Y-105436247D02*
X163139411Y-105626723D01*
X163139411Y-105626723D02*
X163187030Y-105721961D01*
X163187030Y-105721961D02*
X163282268Y-105817200D01*
X163282268Y-105817200D02*
X163425125Y-105864819D01*
X163425125Y-105864819D02*
X163663220Y-105864819D01*
X162187030Y-104864819D02*
X162663220Y-104864819D01*
X162663220Y-104864819D02*
X162710839Y-105341009D01*
X162710839Y-105341009D02*
X162663220Y-105293390D01*
X162663220Y-105293390D02*
X162567982Y-105245771D01*
X162567982Y-105245771D02*
X162329887Y-105245771D01*
X162329887Y-105245771D02*
X162234649Y-105293390D01*
X162234649Y-105293390D02*
X162187030Y-105341009D01*
X162187030Y-105341009D02*
X162139411Y-105436247D01*
X162139411Y-105436247D02*
X162139411Y-105674342D01*
X162139411Y-105674342D02*
X162187030Y-105769580D01*
X162187030Y-105769580D02*
X162234649Y-105817200D01*
X162234649Y-105817200D02*
X162329887Y-105864819D01*
X162329887Y-105864819D02*
X162567982Y-105864819D01*
X162567982Y-105864819D02*
X162663220Y-105817200D01*
X162663220Y-105817200D02*
X162710839Y-105769580D01*
X163663220Y-95704819D02*
X163663220Y-94704819D01*
X163663220Y-94704819D02*
X163425125Y-94704819D01*
X163425125Y-94704819D02*
X163282268Y-94752438D01*
X163282268Y-94752438D02*
X163187030Y-94847676D01*
X163187030Y-94847676D02*
X163139411Y-94942914D01*
X163139411Y-94942914D02*
X163091792Y-95133390D01*
X163091792Y-95133390D02*
X163091792Y-95276247D01*
X163091792Y-95276247D02*
X163139411Y-95466723D01*
X163139411Y-95466723D02*
X163187030Y-95561961D01*
X163187030Y-95561961D02*
X163282268Y-95657200D01*
X163282268Y-95657200D02*
X163425125Y-95704819D01*
X163425125Y-95704819D02*
X163663220Y-95704819D01*
X162710839Y-94800057D02*
X162663220Y-94752438D01*
X162663220Y-94752438D02*
X162567982Y-94704819D01*
X162567982Y-94704819D02*
X162329887Y-94704819D01*
X162329887Y-94704819D02*
X162234649Y-94752438D01*
X162234649Y-94752438D02*
X162187030Y-94800057D01*
X162187030Y-94800057D02*
X162139411Y-94895295D01*
X162139411Y-94895295D02*
X162139411Y-94990533D01*
X162139411Y-94990533D02*
X162187030Y-95133390D01*
X162187030Y-95133390D02*
X162758458Y-95704819D01*
X162758458Y-95704819D02*
X162139411Y-95704819D01*
X163663220Y-93164819D02*
X163663220Y-92164819D01*
X163663220Y-92164819D02*
X163425125Y-92164819D01*
X163425125Y-92164819D02*
X163282268Y-92212438D01*
X163282268Y-92212438D02*
X163187030Y-92307676D01*
X163187030Y-92307676D02*
X163139411Y-92402914D01*
X163139411Y-92402914D02*
X163091792Y-92593390D01*
X163091792Y-92593390D02*
X163091792Y-92736247D01*
X163091792Y-92736247D02*
X163139411Y-92926723D01*
X163139411Y-92926723D02*
X163187030Y-93021961D01*
X163187030Y-93021961D02*
X163282268Y-93117200D01*
X163282268Y-93117200D02*
X163425125Y-93164819D01*
X163425125Y-93164819D02*
X163663220Y-93164819D01*
X162139411Y-93164819D02*
X162710839Y-93164819D01*
X162425125Y-93164819D02*
X162425125Y-92164819D01*
X162425125Y-92164819D02*
X162520363Y-92307676D01*
X162520363Y-92307676D02*
X162615601Y-92402914D01*
X162615601Y-92402914D02*
X162710839Y-92450533D01*
X156584819Y-91213333D02*
X156108628Y-90880000D01*
X156584819Y-90641905D02*
X155584819Y-90641905D01*
X155584819Y-90641905D02*
X155584819Y-91022857D01*
X155584819Y-91022857D02*
X155632438Y-91118095D01*
X155632438Y-91118095D02*
X155680057Y-91165714D01*
X155680057Y-91165714D02*
X155775295Y-91213333D01*
X155775295Y-91213333D02*
X155918152Y-91213333D01*
X155918152Y-91213333D02*
X156013390Y-91165714D01*
X156013390Y-91165714D02*
X156061009Y-91118095D01*
X156061009Y-91118095D02*
X156108628Y-91022857D01*
X156108628Y-91022857D02*
X156108628Y-90641905D01*
X155584819Y-92118095D02*
X155584819Y-91641905D01*
X155584819Y-91641905D02*
X156061009Y-91594286D01*
X156061009Y-91594286D02*
X156013390Y-91641905D01*
X156013390Y-91641905D02*
X155965771Y-91737143D01*
X155965771Y-91737143D02*
X155965771Y-91975238D01*
X155965771Y-91975238D02*
X156013390Y-92070476D01*
X156013390Y-92070476D02*
X156061009Y-92118095D01*
X156061009Y-92118095D02*
X156156247Y-92165714D01*
X156156247Y-92165714D02*
X156394342Y-92165714D01*
X156394342Y-92165714D02*
X156489580Y-92118095D01*
X156489580Y-92118095D02*
X156537200Y-92070476D01*
X156537200Y-92070476D02*
X156584819Y-91975238D01*
X156584819Y-91975238D02*
X156584819Y-91737143D01*
X156584819Y-91737143D02*
X156537200Y-91641905D01*
X156537200Y-91641905D02*
X156489580Y-91594286D01*
X146424819Y-91213333D02*
X145948628Y-90880000D01*
X146424819Y-90641905D02*
X145424819Y-90641905D01*
X145424819Y-90641905D02*
X145424819Y-91022857D01*
X145424819Y-91022857D02*
X145472438Y-91118095D01*
X145472438Y-91118095D02*
X145520057Y-91165714D01*
X145520057Y-91165714D02*
X145615295Y-91213333D01*
X145615295Y-91213333D02*
X145758152Y-91213333D01*
X145758152Y-91213333D02*
X145853390Y-91165714D01*
X145853390Y-91165714D02*
X145901009Y-91118095D01*
X145901009Y-91118095D02*
X145948628Y-91022857D01*
X145948628Y-91022857D02*
X145948628Y-90641905D01*
X145758152Y-92070476D02*
X146424819Y-92070476D01*
X145377200Y-91832381D02*
X146091485Y-91594286D01*
X146091485Y-91594286D02*
X146091485Y-92213333D01*
X136264819Y-91213333D02*
X135788628Y-90880000D01*
X136264819Y-90641905D02*
X135264819Y-90641905D01*
X135264819Y-90641905D02*
X135264819Y-91022857D01*
X135264819Y-91022857D02*
X135312438Y-91118095D01*
X135312438Y-91118095D02*
X135360057Y-91165714D01*
X135360057Y-91165714D02*
X135455295Y-91213333D01*
X135455295Y-91213333D02*
X135598152Y-91213333D01*
X135598152Y-91213333D02*
X135693390Y-91165714D01*
X135693390Y-91165714D02*
X135741009Y-91118095D01*
X135741009Y-91118095D02*
X135788628Y-91022857D01*
X135788628Y-91022857D02*
X135788628Y-90641905D01*
X135264819Y-91546667D02*
X135264819Y-92165714D01*
X135264819Y-92165714D02*
X135645771Y-91832381D01*
X135645771Y-91832381D02*
X135645771Y-91975238D01*
X135645771Y-91975238D02*
X135693390Y-92070476D01*
X135693390Y-92070476D02*
X135741009Y-92118095D01*
X135741009Y-92118095D02*
X135836247Y-92165714D01*
X135836247Y-92165714D02*
X136074342Y-92165714D01*
X136074342Y-92165714D02*
X136169580Y-92118095D01*
X136169580Y-92118095D02*
X136217200Y-92070476D01*
X136217200Y-92070476D02*
X136264819Y-91975238D01*
X136264819Y-91975238D02*
X136264819Y-91689524D01*
X136264819Y-91689524D02*
X136217200Y-91594286D01*
X136217200Y-91594286D02*
X136169580Y-91546667D01*
X126104819Y-91213333D02*
X125628628Y-90880000D01*
X126104819Y-90641905D02*
X125104819Y-90641905D01*
X125104819Y-90641905D02*
X125104819Y-91022857D01*
X125104819Y-91022857D02*
X125152438Y-91118095D01*
X125152438Y-91118095D02*
X125200057Y-91165714D01*
X125200057Y-91165714D02*
X125295295Y-91213333D01*
X125295295Y-91213333D02*
X125438152Y-91213333D01*
X125438152Y-91213333D02*
X125533390Y-91165714D01*
X125533390Y-91165714D02*
X125581009Y-91118095D01*
X125581009Y-91118095D02*
X125628628Y-91022857D01*
X125628628Y-91022857D02*
X125628628Y-90641905D01*
X125200057Y-91594286D02*
X125152438Y-91641905D01*
X125152438Y-91641905D02*
X125104819Y-91737143D01*
X125104819Y-91737143D02*
X125104819Y-91975238D01*
X125104819Y-91975238D02*
X125152438Y-92070476D01*
X125152438Y-92070476D02*
X125200057Y-92118095D01*
X125200057Y-92118095D02*
X125295295Y-92165714D01*
X125295295Y-92165714D02*
X125390533Y-92165714D01*
X125390533Y-92165714D02*
X125533390Y-92118095D01*
X125533390Y-92118095D02*
X126104819Y-91546667D01*
X126104819Y-91546667D02*
X126104819Y-92165714D01*
X115944819Y-91213333D02*
X115468628Y-90880000D01*
X115944819Y-90641905D02*
X114944819Y-90641905D01*
X114944819Y-90641905D02*
X114944819Y-91022857D01*
X114944819Y-91022857D02*
X114992438Y-91118095D01*
X114992438Y-91118095D02*
X115040057Y-91165714D01*
X115040057Y-91165714D02*
X115135295Y-91213333D01*
X115135295Y-91213333D02*
X115278152Y-91213333D01*
X115278152Y-91213333D02*
X115373390Y-91165714D01*
X115373390Y-91165714D02*
X115421009Y-91118095D01*
X115421009Y-91118095D02*
X115468628Y-91022857D01*
X115468628Y-91022857D02*
X115468628Y-90641905D01*
X115944819Y-92165714D02*
X115944819Y-91594286D01*
X115944819Y-91880000D02*
X114944819Y-91880000D01*
X114944819Y-91880000D02*
X115087676Y-91784762D01*
X115087676Y-91784762D02*
X115182914Y-91689524D01*
X115182914Y-91689524D02*
X115230533Y-91594286D01*
X163333333Y-97454819D02*
X163333333Y-98169104D01*
X163333333Y-98169104D02*
X163380952Y-98311961D01*
X163380952Y-98311961D02*
X163476190Y-98407200D01*
X163476190Y-98407200D02*
X163619047Y-98454819D01*
X163619047Y-98454819D02*
X163714285Y-98454819D01*
X162904761Y-97550057D02*
X162857142Y-97502438D01*
X162857142Y-97502438D02*
X162761904Y-97454819D01*
X162761904Y-97454819D02*
X162523809Y-97454819D01*
X162523809Y-97454819D02*
X162428571Y-97502438D01*
X162428571Y-97502438D02*
X162380952Y-97550057D01*
X162380952Y-97550057D02*
X162333333Y-97645295D01*
X162333333Y-97645295D02*
X162333333Y-97740533D01*
X162333333Y-97740533D02*
X162380952Y-97883390D01*
X162380952Y-97883390D02*
X162952380Y-98454819D01*
X162952380Y-98454819D02*
X162333333Y-98454819D01*
X163333333Y-86954819D02*
X163333333Y-87669104D01*
X163333333Y-87669104D02*
X163380952Y-87811961D01*
X163380952Y-87811961D02*
X163476190Y-87907200D01*
X163476190Y-87907200D02*
X163619047Y-87954819D01*
X163619047Y-87954819D02*
X163714285Y-87954819D01*
X162333333Y-87954819D02*
X162904761Y-87954819D01*
X162619047Y-87954819D02*
X162619047Y-86954819D01*
X162619047Y-86954819D02*
X162714285Y-87097676D01*
X162714285Y-87097676D02*
X162809523Y-87192914D01*
X162809523Y-87192914D02*
X162904761Y-87240533D01*
D11*
%TO.C,R5*%
X158970000Y-93300000D02*
X157130000Y-93300000D01*
X157130000Y-93300000D02*
X157130000Y-89460000D01*
X158970000Y-89460000D02*
X158970000Y-93300000D01*
X158050000Y-94250000D02*
X158050000Y-93300000D01*
X157130000Y-89460000D02*
X158970000Y-89460000D01*
X158050000Y-88510000D02*
X158050000Y-89460000D01*
%TO.C,R4*%
X148810000Y-93300000D02*
X146970000Y-93300000D01*
X146970000Y-93300000D02*
X146970000Y-89460000D01*
X148810000Y-89460000D02*
X148810000Y-93300000D01*
X147890000Y-94250000D02*
X147890000Y-93300000D01*
X146970000Y-89460000D02*
X148810000Y-89460000D01*
X147890000Y-88510000D02*
X147890000Y-89460000D01*
%TO.C,R3*%
X138650000Y-93300000D02*
X136810000Y-93300000D01*
X136810000Y-93300000D02*
X136810000Y-89460000D01*
X138650000Y-89460000D02*
X138650000Y-93300000D01*
X137730000Y-94250000D02*
X137730000Y-93300000D01*
X136810000Y-89460000D02*
X138650000Y-89460000D01*
X137730000Y-88510000D02*
X137730000Y-89460000D01*
%TO.C,R2*%
X128490000Y-93300000D02*
X126650000Y-93300000D01*
X126650000Y-93300000D02*
X126650000Y-89460000D01*
X128490000Y-89460000D02*
X128490000Y-93300000D01*
X127570000Y-94250000D02*
X127570000Y-93300000D01*
X126650000Y-89460000D02*
X128490000Y-89460000D01*
X127570000Y-88510000D02*
X127570000Y-89460000D01*
%TO.C,R1*%
X118330000Y-93300000D02*
X116490000Y-93300000D01*
X116490000Y-93300000D02*
X116490000Y-89460000D01*
X118330000Y-89460000D02*
X118330000Y-93300000D01*
X117410000Y-94250000D02*
X117410000Y-93300000D01*
X116490000Y-89460000D02*
X118330000Y-89460000D01*
X117410000Y-88510000D02*
X117410000Y-89460000D01*
%TO.C,J2*%
X174670000Y-107540000D02*
X174670000Y-98080000D01*
X165670000Y-107540000D02*
X174670000Y-107540000D01*
X164670000Y-107540000D02*
X165670000Y-107540000D01*
X173290000Y-105985000D02*
X173290000Y-104715000D01*
X168210000Y-105985000D02*
X173290000Y-105985000D01*
X173290000Y-104715000D02*
X168210000Y-104715000D01*
X168210000Y-104715000D02*
X168210000Y-105985000D01*
X168210000Y-104715000D02*
X168210000Y-104715000D01*
X174670000Y-98080000D02*
X165670000Y-98080000D01*
X164670000Y-98080000D02*
X164670000Y-107540000D01*
X164670000Y-98080000D02*
X165670000Y-98080000D01*
X174670000Y-106540000D02*
X167670000Y-106540000D01*
X167670000Y-106540000D02*
X167670000Y-99080000D01*
X167670000Y-99080000D02*
X174670000Y-99080000D01*
X174670000Y-99080000D02*
X174670000Y-106540000D01*
X173290000Y-103445000D02*
X168210000Y-103445000D01*
X168210000Y-103445000D02*
X168210000Y-102175000D01*
X168210000Y-102175000D02*
X173290000Y-102175000D01*
X173290000Y-102175000D02*
X173290000Y-103445000D01*
X173290000Y-100905000D02*
X168210000Y-100905000D01*
X168210000Y-100905000D02*
X168210000Y-99635000D01*
X168210000Y-99635000D02*
X173290000Y-99635000D01*
X173290000Y-99635000D02*
X173290000Y-100905000D01*
X165035000Y-99000000D02*
G75*
G03*
X165035000Y-99000000I-635000J0D01*
G01*
%TO.C,J1*%
X174670000Y-97380000D02*
X174670000Y-87920000D01*
X165670000Y-97380000D02*
X174670000Y-97380000D01*
X164670000Y-97380000D02*
X165670000Y-97380000D01*
X173290000Y-95825000D02*
X173290000Y-94555000D01*
X168210000Y-95825000D02*
X173290000Y-95825000D01*
X173290000Y-94555000D02*
X168210000Y-94555000D01*
X168210000Y-94555000D02*
X168210000Y-95825000D01*
X168210000Y-94555000D02*
X168210000Y-94555000D01*
X174670000Y-87920000D02*
X165670000Y-87920000D01*
X164670000Y-87920000D02*
X164670000Y-97380000D01*
X164670000Y-87920000D02*
X165670000Y-87920000D01*
X174670000Y-96380000D02*
X167670000Y-96380000D01*
X167670000Y-96380000D02*
X167670000Y-88920000D01*
X167670000Y-88920000D02*
X174670000Y-88920000D01*
X174670000Y-88920000D02*
X174670000Y-96380000D01*
X173290000Y-93285000D02*
X168210000Y-93285000D01*
X168210000Y-93285000D02*
X168210000Y-92015000D01*
X168210000Y-92015000D02*
X173290000Y-92015000D01*
X173290000Y-92015000D02*
X173290000Y-93285000D01*
X173290000Y-90745000D02*
X168210000Y-90745000D01*
X168210000Y-90745000D02*
X168210000Y-89475000D01*
X168210000Y-89475000D02*
X173290000Y-89475000D01*
X173290000Y-89475000D02*
X173290000Y-90745000D01*
X165035000Y-88840000D02*
G75*
G03*
X165035000Y-88840000I-635000J0D01*
G01*
%TD*%
M02*
