  0
SECTION
  2
HEADER
  9
$ANGBASE
  50
0.0
  9
$ANGDIR
  70
1
  9
$MEASUREMENT
  70
1
  0
ENDSEC
  0
SECTION
  2
TABLES
  0
TABLE
  2
LTYPE
  70
4
  0
LTYPE
  5
40F
  2
CONTINUOUS
  70
0
  3
Solid line
  72
65
  73
0
  40
0.0
  0
LTYPE
  5
410
  2
DASHDOT
 70
0
  3
Dash Dot ____ _ ____ _
 72
65
 73
4
 40
2.0
 49
1.25
 49
-0.25
 49
0.25
 49
-0.25
  0
LTYPE
  5
411
  2
DASHED
 70
0
  3
Dashed __ __ __ __ __
 72
65
 73
2
 40
0.75
 49
0.5
 49
-0.25
  0
LTYPE
  5
43B
  2
DOTTED
 70
0
  3
Dotted .  .  .  .
 72
65
 73
2
 40
0.2
 49
0.0
 49
-0.2
  0
ENDTAB
  0
TABLE
  2
STYLE
  70
4
  0
STYLE
  2
KICAD
  70
0
  40
0
  41
1
  42
1
  50
0
  71
0
  3
isocp.shx
  0
STYLE
  2
KICADB
  70
0
  40
0
  41
1
  42
1
  50
0
  71
0
  3
isocp.shx
  0
STYLE
  2
KICADI
  70
0
  40
0
  41
1
  42
1
  50
15
  71
0
  3
isocp.shx
  0
STYLE
  2
KICADBI
  70
0
  40
0
  41
1
  42
1
  50
15
  71
0
  3
isocp.shx
  0
ENDTAB
  0
TABLE
  2
LAYER
  70
1
  0
LAYER
  2
BLACK
  70
0
  62
7
  6
CONTINUOUS
  0
ENDTAB
  0
ENDSEC
  0
SECTION
  2
ENTITIES
0
CIRCLE
8
BLACK
10
106.
20
-112.
40
1.0999999999999999
0
CIRCLE
8
BLACK
10
106.
20
-86.
40
1.0999999999999999
0
CIRCLE
8
BLACK
10
172.
20
-86.
40
1.0999999999999999
0
CIRCLE
8
BLACK
10
172.
20
-112.
40
1.0999999999999999
0
LINE
8
BLACK
6
CONTINUOUS
10
104.
20
-84.
11
174.
21
-84.
0
LINE
8
BLACK
6
CONTINUOUS
10
174.
20
-84.
11
174.
21
-114.
0
LINE
8
BLACK
6
CONTINUOUS
10
174.
20
-114.
11
104.
21
-114.
0
LINE
8
BLACK
6
CONTINUOUS
10
104.
20
-114.
11
104.
21
-84.
0
LINE
8
BLACK
6
CONTINUOUS
10
117.0599999999999881
20
-87.2199999999999989
11
117.7599999999999909
21
-87.9200000000000017
0
LINE
8
BLACK
6
CONTINUOUS
10
117.7599999999999909
20
-87.2199999999999989
11
117.0599999999999881
21
-87.9200000000000017
0
LINE
8
BLACK
6
CONTINUOUS
10
117.0599999999999881
20
-94.8399999999999892
11
117.7599999999999909
21
-95.539999999999992
0
LINE
8
BLACK
6
CONTINUOUS
10
117.7599999999999909
20
-94.8399999999999892
11
117.0599999999999881
21
-95.539999999999992
0
LINE
8
BLACK
6
CONTINUOUS
10
127.2199999999999989
20
-87.2199999999999989
11
127.9199999999999875
21
-87.9200000000000017
0
LINE
8
BLACK
6
CONTINUOUS
10
127.9199999999999875
20
-87.2199999999999989
11
127.2199999999999989
21
-87.9200000000000017
0
LINE
8
BLACK
6
CONTINUOUS
10
127.2199999999999989
20
-94.8399999999999892
11
127.9199999999999875
21
-95.539999999999992
0
LINE
8
BLACK
6
CONTINUOUS
10
127.9199999999999875
20
-94.8399999999999892
11
127.2199999999999989
21
-95.539999999999992
0
LINE
8
BLACK
6
CONTINUOUS
10
137.3799999999999955
20
-87.2199999999999989
11
138.0799999999999841
21
-87.9200000000000017
0
LINE
8
BLACK
6
CONTINUOUS
10
138.0799999999999841
20
-87.2199999999999989
11
137.3799999999999955
21
-87.9200000000000017
0
LINE
8
BLACK
6
CONTINUOUS
10
137.3799999999999955
20
-94.8399999999999892
11
138.0799999999999841
21
-95.539999999999992
0
LINE
8
BLACK
6
CONTINUOUS
10
138.0799999999999841
20
-94.8399999999999892
11
137.3799999999999955
21
-95.539999999999992
0
LINE
8
BLACK
6
CONTINUOUS
10
147.539999999999992
20
-87.2199999999999989
11
148.2399999999999807
21
-87.9200000000000017
0
LINE
8
BLACK
6
CONTINUOUS
10
148.2399999999999807
20
-87.2199999999999989
11
147.539999999999992
21
-87.9200000000000017
0
LINE
8
BLACK
6
CONTINUOUS
10
147.539999999999992
20
-94.8399999999999892
11
148.2399999999999807
21
-95.539999999999992
0
LINE
8
BLACK
6
CONTINUOUS
10
148.2399999999999807
20
-94.8399999999999892
11
147.539999999999992
21
-95.539999999999992
0
LINE
8
BLACK
6
CONTINUOUS
10
157.6999999999999886
20
-87.2199999999999989
11
158.4000000000000057
21
-87.9200000000000017
0
LINE
8
BLACK
6
CONTINUOUS
10
158.4000000000000057
20
-87.2199999999999989
11
157.6999999999999886
21
-87.9200000000000017
0
LINE
8
BLACK
6
CONTINUOUS
10
157.6999999999999886
20
-94.8399999999999892
11
158.4000000000000057
21
-95.539999999999992
0
LINE
8
BLACK
6
CONTINUOUS
10
158.4000000000000057
20
-94.8399999999999892
11
157.6999999999999886
21
-95.539999999999992
0
CIRCLE
8
BLACK
10
117.4099999999999966
20
-100.269999999999996
40
0.45
0
CIRCLE
8
BLACK
10
117.4099999999999966
20
-102.8100000000000023
40
0.45
0
CIRCLE
8
BLACK
10
127.5699999999999932
20
-100.269999999999996
40
0.45
0
CIRCLE
8
BLACK
10
127.5699999999999932
20
-102.8100000000000023
40
0.45
0
CIRCLE
8
BLACK
10
137.7299999999999898
20
-100.269999999999996
40
0.45
0
CIRCLE
8
BLACK
10
137.7299999999999898
20
-102.8100000000000023
40
0.45
0
CIRCLE
8
BLACK
10
147.8899999999999864
20
-100.269999999999996
40
0.45
0
CIRCLE
8
BLACK
10
147.8899999999999864
20
-102.8100000000000023
40
0.45
0
CIRCLE
8
BLACK
10
158.0499999999999829
20
-100.269999999999996
40
0.45
0
CIRCLE
8
BLACK
10
158.0499999999999829
20
-102.8100000000000023
40
0.45
0
LINE
8
BLACK
6
CONTINUOUS
10
165.6699999999999875
20
-89.6099999999999994
11
165.6699999999999875
21
-90.6099999999999994
0
LINE
8
BLACK
6
CONTINUOUS
10
165.1699999999999875
20
-90.1099999999999994
11
166.1699999999999875
21
-90.1099999999999994
0
LINE
8
BLACK
6
CONTINUOUS
10
165.6699999999999875
20
-92.1499999999999915
11
165.6699999999999875
21
-93.1499999999999915
0
LINE
8
BLACK
6
CONTINUOUS
10
165.1699999999999875
20
-92.6499999999999915
11
166.1699999999999875
21
-92.6499999999999915
0
LINE
8
BLACK
6
CONTINUOUS
10
165.6699999999999875
20
-94.6899999999999977
11
165.6699999999999875
21
-95.6899999999999977
0
LINE
8
BLACK
6
CONTINUOUS
10
165.1699999999999875
20
-95.1899999999999977
11
166.1699999999999875
21
-95.1899999999999977
0
LINE
8
BLACK
6
CONTINUOUS
10
165.6699999999999875
20
-99.769999999999996
11
165.6699999999999875
21
-100.769999999999996
0
LINE
8
BLACK
6
CONTINUOUS
10
165.1699999999999875
20
-100.269999999999996
11
166.1699999999999875
21
-100.269999999999996
0
LINE
8
BLACK
6
CONTINUOUS
10
165.6699999999999875
20
-102.3100000000000023
11
165.6699999999999875
21
-103.3100000000000023
0
LINE
8
BLACK
6
CONTINUOUS
10
165.1699999999999875
20
-102.8100000000000023
11
166.1699999999999875
21
-102.8100000000000023
0
LINE
8
BLACK
6
CONTINUOUS
10
165.6699999999999875
20
-104.8499999999999943
11
165.6699999999999875
21
-105.8499999999999943
0
LINE
8
BLACK
6
CONTINUOUS
10
165.1699999999999875
20
-105.3499999999999943
11
166.1699999999999875
21
-105.3499999999999943
0
LINE
8
BLACK
6
CONTINUOUS
10
106.5577679999999958
20
-117.1648379999999889
11
106.5577679999999958
21
-115.1648379999999889
0
LINE
8
BLACK
6
CONTINUOUS
10
106.5577679999999958
20
-115.1648379999999889
11
107.0339579999999984
21
-115.1648379999999889
0
LINE
8
BLACK
6
CONTINUOUS
10
107.0339579999999984
20
-115.1648379999999889
11
107.3196729999999945
21
-115.260075999999998
0
LINE
8
BLACK
6
CONTINUOUS
10
107.3196729999999945
20
-115.260075999999998
11
107.5101489999999984
21
-115.4505520000000018
0
LINE
8
BLACK
6
CONTINUOUS
10
107.5101489999999984
20
-115.4505520000000018
11
107.6053869999999932
21
-115.6410279999999915
0
LINE
8
BLACK
6
CONTINUOUS
10
107.6053869999999932
20
-115.6410279999999915
11
107.7006249999999881
21
-116.0219799999999992
0
LINE
8
BLACK
6
CONTINUOUS
10
107.7006249999999881
20
-116.0219799999999992
11
107.7006249999999881
21
-116.3076949999999954
0
LINE
8
BLACK
6
CONTINUOUS
10
107.7006249999999881
20
-116.3076949999999954
11
107.6053869999999932
21
-116.6886469999999889
0
LINE
8
BLACK
6
CONTINUOUS
10
107.6053869999999932
20
-116.6886469999999889
11
107.5101489999999984
21
-116.8791229999999928
0
LINE
8
BLACK
6
CONTINUOUS
10
107.5101489999999984
20
-116.8791229999999928
11
107.3196729999999945
21
-117.0695999999999941
0
LINE
8
BLACK
6
CONTINUOUS
10
107.3196729999999945
20
-117.0695999999999941
11
107.0339579999999984
21
-117.1648379999999889
0
LINE
8
BLACK
6
CONTINUOUS
10
107.0339579999999984
20
-117.1648379999999889
11
106.5577679999999958
21
-117.1648379999999889
0
LINE
8
BLACK
6
CONTINUOUS
10
108.5577679999999958
20
-117.1648379999999889
11
108.5577679999999958
21
-115.8315039999999954
0
LINE
8
BLACK
6
CONTINUOUS
10
108.5577679999999958
20
-116.2124570000000006
11
108.6530059999999906
21
-116.0219799999999992
0
LINE
8
BLACK
6
CONTINUOUS
10
108.6530059999999906
20
-116.0219799999999992
11
108.7482439999999997
21
-115.9267419999999902
0
LINE
8
BLACK
6
CONTINUOUS
10
108.7482439999999997
20
-115.9267419999999902
11
108.9387199999999893
21
-115.8315039999999954
0
LINE
8
BLACK
6
CONTINUOUS
10
108.9387199999999893
20
-115.8315039999999954
11
109.1291969999999907
21
-115.8315039999999954
0
LINE
8
BLACK
6
CONTINUOUS
10
109.7958629999999971
20
-117.1648379999999889
11
109.7958629999999971
21
-115.8315039999999954
0
LINE
8
BLACK
6
CONTINUOUS
10
109.7958629999999971
20
-115.1648379999999889
11
109.7006249999999881
21
-115.260075999999998
0
LINE
8
BLACK
6
CONTINUOUS
10
109.7006249999999881
20
-115.260075999999998
11
109.7958629999999971
21
-115.3553139999999928
0
LINE
8
BLACK
6
CONTINUOUS
10
109.7958629999999971
20
-115.3553139999999928
11
109.8911009999999919
21
-115.260075999999998
0
LINE
8
BLACK
6
CONTINUOUS
10
109.8911009999999919
20
-115.260075999999998
11
109.7958629999999971
21
-115.1648379999999889
0
LINE
8
BLACK
6
CONTINUOUS
10
109.7958629999999971
20
-115.1648379999999889
11
109.7958629999999971
21
-115.3553139999999928
0
LINE
8
BLACK
6
CONTINUOUS
10
111.0339579999999984
20
-117.1648379999999889
11
110.8434819999999945
21
-117.0695999999999941
0
LINE
8
BLACK
6
CONTINUOUS
10
110.8434819999999945
20
-117.0695999999999941
11
110.7482439999999997
21
-116.8791229999999928
0
LINE
8
BLACK
6
CONTINUOUS
10
110.7482439999999997
20
-116.8791229999999928
11
110.7482439999999997
21
-115.1648379999999889
0
LINE
8
BLACK
6
CONTINUOUS
10
112.0815769999999958
20
-117.1648379999999889
11
111.8911009999999919
21
-117.0695999999999941
0
LINE
8
BLACK
6
CONTINUOUS
10
111.8911009999999919
20
-117.0695999999999941
11
111.7958629999999971
21
-116.8791229999999928
0
LINE
8
BLACK
6
CONTINUOUS
10
111.7958629999999971
20
-116.8791229999999928
11
111.7958629999999971
21
-115.1648379999999889
0
LINE
8
BLACK
6
CONTINUOUS
10
114.367291999999992
20
-117.1648379999999889
11
114.367291999999992
21
-115.1648379999999889
0
LINE
8
BLACK
6
CONTINUOUS
10
114.367291999999992
20
-115.1648379999999889
11
115.0339589999999959
21
-116.5934089999999941
0
LINE
8
BLACK
6
CONTINUOUS
10
115.0339589999999959
20
-116.5934089999999941
11
115.7006249999999881
21
-115.1648379999999889
0
LINE
8
BLACK
6
CONTINUOUS
10
115.7006249999999881
20
-115.1648379999999889
11
115.7006249999999881
21
-117.1648379999999889
0
LINE
8
BLACK
6
CONTINUOUS
10
117.5101489999999984
20
-117.1648379999999889
11
117.5101489999999984
21
-116.1172189999999915
0
LINE
8
BLACK
6
CONTINUOUS
10
117.5101489999999984
20
-116.1172189999999915
11
117.4149109999999894
21
-115.9267419999999902
0
LINE
8
BLACK
6
CONTINUOUS
10
117.4149109999999894
20
-115.9267419999999902
11
117.2244349999999997
21
-115.8315039999999954
0
LINE
8
BLACK
6
CONTINUOUS
10
117.2244349999999997
20
-115.8315039999999954
11
116.8434819999999945
21
-115.8315039999999954
0
LINE
8
BLACK
6
CONTINUOUS
10
116.8434819999999945
20
-115.8315039999999954
11
116.6530059999999906
21
-115.9267419999999902
0
LINE
8
BLACK
6
CONTINUOUS
10
117.5101489999999984
20
-117.0695999999999941
11
117.3196729999999945
21
-117.1648379999999889
0
LINE
8
BLACK
6
CONTINUOUS
10
117.3196729999999945
20
-117.1648379999999889
11
116.8434819999999945
21
-117.1648379999999889
0
LINE
8
BLACK
6
CONTINUOUS
10
116.8434819999999945
20
-117.1648379999999889
11
116.6530059999999906
21
-117.0695999999999941
0
LINE
8
BLACK
6
CONTINUOUS
10
116.6530059999999906
20
-117.0695999999999941
11
116.5577679999999958
21
-116.8791229999999928
0
LINE
8
BLACK
6
CONTINUOUS
10
116.5577679999999958
20
-116.8791229999999928
11
116.5577679999999958
21
-116.6886469999999889
0
LINE
8
BLACK
6
CONTINUOUS
10
116.5577679999999958
20
-116.6886469999999889
11
116.6530059999999906
21
-116.4981709999999993
0
LINE
8
BLACK
6
CONTINUOUS
10
116.6530059999999906
20
-116.4981709999999993
11
116.8434819999999945
21
-116.4029329999999902
0
LINE
8
BLACK
6
CONTINUOUS
10
116.8434819999999945
20
-116.4029329999999902
11
117.3196729999999945
21
-116.4029329999999902
0
LINE
8
BLACK
6
CONTINUOUS
10
117.3196729999999945
20
-116.4029329999999902
11
117.5101489999999984
21
-116.3076949999999954
0
LINE
8
BLACK
6
CONTINUOUS
10
118.462530000000001
20
-115.8315039999999954
11
118.462530000000001
21
-117.8315039999999954
0
LINE
8
BLACK
6
CONTINUOUS
10
118.462530000000001
20
-115.9267419999999902
11
118.6530059999999906
21
-115.8315039999999954
0
LINE
8
BLACK
6
CONTINUOUS
10
118.6530059999999906
20
-115.8315039999999954
11
119.0339589999999959
21
-115.8315039999999954
0
LINE
8
BLACK
6
CONTINUOUS
10
119.0339589999999959
20
-115.8315039999999954
11
119.2244349999999997
21
-115.9267419999999902
0
LINE
8
BLACK
6
CONTINUOUS
10
119.2244349999999997
20
-115.9267419999999902
11
119.3196729999999945
21
-116.0219799999999992
0
LINE
8
BLACK
6
CONTINUOUS
10
119.3196729999999945
20
-116.0219799999999992
11
119.4149109999999894
21
-116.2124570000000006
0
LINE
8
BLACK
6
CONTINUOUS
10
119.4149109999999894
20
-116.2124570000000006
11
119.4149109999999894
21
-116.7838849999999979
0
LINE
8
BLACK
6
CONTINUOUS
10
119.4149109999999894
20
-116.7838849999999979
11
119.3196729999999945
21
-116.9743610000000018
0
LINE
8
BLACK
6
CONTINUOUS
10
119.3196729999999945
20
-116.9743610000000018
11
119.2244349999999997
21
-117.0695999999999941
0
LINE
8
BLACK
6
CONTINUOUS
10
119.2244349999999997
20
-117.0695999999999941
11
119.0339589999999959
21
-117.1648379999999889
0
LINE
8
BLACK
6
CONTINUOUS
10
119.0339589999999959
20
-117.1648379999999889
11
118.6530059999999906
21
-117.1648379999999889
0
LINE
8
BLACK
6
CONTINUOUS
10
118.6530059999999906
20
-117.1648379999999889
11
118.462530000000001
21
-117.0695999999999941
0
LINE
8
BLACK
6
CONTINUOUS
10
120.2720539999999971
20
-116.9743610000000018
11
120.367291999999992
21
-117.0695999999999941
0
LINE
8
BLACK
6
CONTINUOUS
10
120.367291999999992
20
-117.0695999999999941
11
120.2720539999999971
21
-117.1648379999999889
0
LINE
8
BLACK
6
CONTINUOUS
10
120.2720539999999971
20
-117.1648379999999889
11
120.1768159999999881
21
-117.0695999999999941
0
LINE
8
BLACK
6
CONTINUOUS
10
120.1768159999999881
20
-117.0695999999999941
11
120.2720539999999971
21
-116.9743610000000018
0
LINE
8
BLACK
6
CONTINUOUS
10
120.2720539999999971
20
-116.9743610000000018
11
120.2720539999999971
21
-117.1648379999999889
0
LINE
8
BLACK
6
CONTINUOUS
10
120.2720539999999971
20
-115.9267419999999902
11
120.367291999999992
21
-116.0219799999999992
0
LINE
8
BLACK
6
CONTINUOUS
10
120.367291999999992
20
-116.0219799999999992
11
120.2720539999999971
21
-116.1172189999999915
0
LINE
8
BLACK
6
CONTINUOUS
10
120.2720539999999971
20
-116.1172189999999915
11
120.1768159999999881
21
-116.0219799999999992
0
LINE
8
BLACK
6
CONTINUOUS
10
120.1768159999999881
20
-116.0219799999999992
11
120.2720539999999971
21
-115.9267419999999902
0
LINE
8
BLACK
6
CONTINUOUS
10
120.2720539999999971
20
-115.9267419999999902
11
120.2720539999999971
21
-116.1172189999999915
0
LINE
8
BLACK
6
CONTINUOUS
10
103.25
20
-120.0999999999999943
11
103.9499999999999886
21
-120.7999999999999972
0
LINE
8
BLACK
6
CONTINUOUS
10
103.9499999999999886
20
-120.0999999999999943
11
103.25
21
-120.7999999999999972
0
LINE
8
BLACK
6
CONTINUOUS
10
106.9387199999999893
20
-119.3648379999999918
11
107.1291969999999907
21
-119.3648379999999918
0
LINE
8
BLACK
6
CONTINUOUS
10
107.1291969999999907
20
-119.3648379999999918
11
107.3196729999999945
21
-119.4600760000000008
0
LINE
8
BLACK
6
CONTINUOUS
10
107.3196729999999945
20
-119.4600760000000008
11
107.4149109999999894
21
-119.5553139999999956
0
LINE
8
BLACK
6
CONTINUOUS
10
107.4149109999999894
20
-119.5553139999999956
11
107.5101489999999984
21
-119.7457899999999995
0
LINE
8
BLACK
6
CONTINUOUS
10
107.5101489999999984
20
-119.7457899999999995
11
107.6053869999999932
21
-120.126741999999993
0
LINE
8
BLACK
6
CONTINUOUS
10
107.6053869999999932
20
-120.126741999999993
11
107.6053869999999932
21
-120.6029329999999931
0
LINE
8
BLACK
6
CONTINUOUS
10
107.6053869999999932
20
-120.6029329999999931
11
107.5101489999999984
21
-120.9838850000000008
0
LINE
8
BLACK
6
CONTINUOUS
10
107.5101489999999984
20
-120.9838850000000008
11
107.4149109999999894
21
-121.1743609999999904
0
LINE
8
BLACK
6
CONTINUOUS
10
107.4149109999999894
20
-121.1743609999999904
11
107.3196729999999945
21
-121.269599999999997
0
LINE
8
BLACK
6
CONTINUOUS
10
107.3196729999999945
20
-121.269599999999997
11
107.1291969999999907
21
-121.3648379999999918
0
LINE
8
BLACK
6
CONTINUOUS
10
107.1291969999999907
20
-121.3648379999999918
11
106.9387199999999893
21
-121.3648379999999918
0
LINE
8
BLACK
6
CONTINUOUS
10
106.9387199999999893
20
-121.3648379999999918
11
106.7482439999999997
21
-121.269599999999997
0
LINE
8
BLACK
6
CONTINUOUS
10
106.7482439999999997
20
-121.269599999999997
11
106.6530059999999906
21
-121.1743609999999904
0
LINE
8
BLACK
6
CONTINUOUS
10
106.6530059999999906
20
-121.1743609999999904
11
106.5577679999999958
21
-120.9838850000000008
0
LINE
8
BLACK
6
CONTINUOUS
10
106.5577679999999958
20
-120.9838850000000008
11
106.462530000000001
21
-120.6029329999999931
0
LINE
8
BLACK
6
CONTINUOUS
10
106.462530000000001
20
-120.6029329999999931
11
106.462530000000001
21
-120.126741999999993
0
LINE
8
BLACK
6
CONTINUOUS
10
106.462530000000001
20
-120.126741999999993
11
106.5577679999999958
21
-119.7457899999999995
0
LINE
8
BLACK
6
CONTINUOUS
10
106.5577679999999958
20
-119.7457899999999995
11
106.6530059999999906
21
-119.5553139999999956
0
LINE
8
BLACK
6
CONTINUOUS
10
106.6530059999999906
20
-119.5553139999999956
11
106.7482439999999997
21
-119.4600760000000008
0
LINE
8
BLACK
6
CONTINUOUS
10
106.7482439999999997
20
-119.4600760000000008
11
106.9387199999999893
21
-119.3648379999999918
0
LINE
8
BLACK
6
CONTINUOUS
10
108.462530000000001
20
-121.1743609999999904
11
108.5577679999999958
21
-121.269599999999997
0
LINE
8
BLACK
6
CONTINUOUS
10
108.5577679999999958
20
-121.269599999999997
11
108.462530000000001
21
-121.3648379999999918
0
LINE
8
BLACK
6
CONTINUOUS
10
108.462530000000001
20
-121.3648379999999918
11
108.367291999999992
21
-121.269599999999997
0
LINE
8
BLACK
6
CONTINUOUS
10
108.367291999999992
20
-121.269599999999997
11
108.462530000000001
21
-121.1743609999999904
0
LINE
8
BLACK
6
CONTINUOUS
10
108.462530000000001
20
-121.1743609999999904
11
108.462530000000001
21
-121.3648379999999918
0
LINE
8
BLACK
6
CONTINUOUS
10
109.2244349999999997
20
-119.3648379999999918
11
110.5577679999999958
21
-119.3648379999999918
0
LINE
8
BLACK
6
CONTINUOUS
10
110.5577679999999958
20
-119.3648379999999918
11
109.7006249999999881
21
-121.3648379999999918
0
LINE
8
BLACK
6
CONTINUOUS
10
111.7006249999999881
20
-119.3648379999999918
11
111.8911019999999894
21
-119.3648379999999918
0
LINE
8
BLACK
6
CONTINUOUS
10
111.8911019999999894
20
-119.3648379999999918
11
112.0815779999999933
21
-119.4600760000000008
0
LINE
8
BLACK
6
CONTINUOUS
10
112.0815779999999933
20
-119.4600760000000008
11
112.1768159999999881
21
-119.5553139999999956
0
LINE
8
BLACK
6
CONTINUOUS
10
112.1768159999999881
20
-119.5553139999999956
11
112.2720539999999971
21
-119.7457899999999995
0
LINE
8
BLACK
6
CONTINUOUS
10
112.2720539999999971
20
-119.7457899999999995
11
112.367291999999992
21
-120.126741999999993
0
LINE
8
BLACK
6
CONTINUOUS
10
112.367291999999992
20
-120.126741999999993
11
112.367291999999992
21
-120.6029329999999931
0
LINE
8
BLACK
6
CONTINUOUS
10
112.367291999999992
20
-120.6029329999999931
11
112.2720539999999971
21
-120.9838850000000008
0
LINE
8
BLACK
6
CONTINUOUS
10
112.2720539999999971
20
-120.9838850000000008
11
112.1768159999999881
21
-121.1743609999999904
0
LINE
8
BLACK
6
CONTINUOUS
10
112.1768159999999881
20
-121.1743609999999904
11
112.0815779999999933
21
-121.269599999999997
0
LINE
8
BLACK
6
CONTINUOUS
10
112.0815779999999933
20
-121.269599999999997
11
111.8911019999999894
21
-121.3648379999999918
0
LINE
8
BLACK
6
CONTINUOUS
10
111.8911019999999894
20
-121.3648379999999918
11
111.7006249999999881
21
-121.3648379999999918
0
LINE
8
BLACK
6
CONTINUOUS
10
111.7006249999999881
20
-121.3648379999999918
11
111.5101489999999984
21
-121.269599999999997
0
LINE
8
BLACK
6
CONTINUOUS
10
111.5101489999999984
20
-121.269599999999997
11
111.4149109999999894
21
-121.1743609999999904
0
LINE
8
BLACK
6
CONTINUOUS
10
111.4149109999999894
20
-121.1743609999999904
11
111.3196729999999945
21
-120.9838850000000008
0
LINE
8
BLACK
6
CONTINUOUS
10
111.3196729999999945
20
-120.9838850000000008
11
111.2244349999999997
21
-120.6029329999999931
0
LINE
8
BLACK
6
CONTINUOUS
10
111.2244349999999997
20
-120.6029329999999931
11
111.2244349999999997
21
-120.126741999999993
0
LINE
8
BLACK
6
CONTINUOUS
10
111.2244349999999997
20
-120.126741999999993
11
111.3196729999999945
21
-119.7457899999999995
0
LINE
8
BLACK
6
CONTINUOUS
10
111.3196729999999945
20
-119.7457899999999995
11
111.4149109999999894
21
-119.5553139999999956
0
LINE
8
BLACK
6
CONTINUOUS
10
111.4149109999999894
20
-119.5553139999999956
11
111.5101489999999984
21
-119.4600760000000008
0
LINE
8
BLACK
6
CONTINUOUS
10
111.5101489999999984
20
-119.4600760000000008
11
111.7006249999999881
21
-119.3648379999999918
0
LINE
8
BLACK
6
CONTINUOUS
10
113.6053869999999932
20
-119.3648379999999918
11
113.7958639999999946
21
-119.3648379999999918
0
LINE
8
BLACK
6
CONTINUOUS
10
113.7958639999999946
20
-119.3648379999999918
11
113.9863399999999984
21
-119.4600760000000008
0
LINE
8
BLACK
6
CONTINUOUS
10
113.9863399999999984
20
-119.4600760000000008
11
114.0815779999999933
21
-119.5553139999999956
0
LINE
8
BLACK
6
CONTINUOUS
10
114.0815779999999933
20
-119.5553139999999956
11
114.1768159999999881
21
-119.7457899999999995
0
LINE
8
BLACK
6
CONTINUOUS
10
114.1768159999999881
20
-119.7457899999999995
11
114.2720539999999971
21
-120.126741999999993
0
LINE
8
BLACK
6
CONTINUOUS
10
114.2720539999999971
20
-120.126741999999993
11
114.2720539999999971
21
-120.6029329999999931
0
LINE
8
BLACK
6
CONTINUOUS
10
114.2720539999999971
20
-120.6029329999999931
11
114.1768159999999881
21
-120.9838850000000008
0
LINE
8
BLACK
6
CONTINUOUS
10
114.1768159999999881
20
-120.9838850000000008
11
114.0815779999999933
21
-121.1743609999999904
0
LINE
8
BLACK
6
CONTINUOUS
10
114.0815779999999933
20
-121.1743609999999904
11
113.9863399999999984
21
-121.269599999999997
0
LINE
8
BLACK
6
CONTINUOUS
10
113.9863399999999984
20
-121.269599999999997
11
113.7958639999999946
21
-121.3648379999999918
0
LINE
8
BLACK
6
CONTINUOUS
10
113.7958639999999946
20
-121.3648379999999918
11
113.6053869999999932
21
-121.3648379999999918
0
LINE
8
BLACK
6
CONTINUOUS
10
113.6053869999999932
20
-121.3648379999999918
11
113.4149109999999894
21
-121.269599999999997
0
LINE
8
BLACK
6
CONTINUOUS
10
113.4149109999999894
20
-121.269599999999997
11
113.3196729999999945
21
-121.1743609999999904
0
LINE
8
BLACK
6
CONTINUOUS
10
113.3196729999999945
20
-121.1743609999999904
11
113.2244349999999997
21
-120.9838850000000008
0
LINE
8
BLACK
6
CONTINUOUS
10
113.2244349999999997
20
-120.9838850000000008
11
113.1291969999999907
21
-120.6029329999999931
0
LINE
8
BLACK
6
CONTINUOUS
10
113.1291969999999907
20
-120.6029329999999931
11
113.1291969999999907
21
-120.126741999999993
0
LINE
8
BLACK
6
CONTINUOUS
10
113.1291969999999907
20
-120.126741999999993
11
113.2244349999999997
21
-119.7457899999999995
0
LINE
8
BLACK
6
CONTINUOUS
10
113.2244349999999997
20
-119.7457899999999995
11
113.3196729999999945
21
-119.5553139999999956
0
LINE
8
BLACK
6
CONTINUOUS
10
113.3196729999999945
20
-119.5553139999999956
11
113.4149109999999894
21
-119.4600760000000008
0
LINE
8
BLACK
6
CONTINUOUS
10
113.4149109999999894
20
-119.4600760000000008
11
113.6053869999999932
21
-119.3648379999999918
0
LINE
8
BLACK
6
CONTINUOUS
10
115.1291969999999907
20
-121.3648379999999918
11
115.1291969999999907
21
-120.0315039999999982
0
LINE
8
BLACK
6
CONTINUOUS
10
115.1291969999999907
20
-120.2219799999999879
11
115.2244349999999997
21
-120.126741999999993
0
LINE
8
BLACK
6
CONTINUOUS
10
115.2244349999999997
20
-120.126741999999993
11
115.4149109999999894
21
-120.0315039999999982
0
LINE
8
BLACK
6
CONTINUOUS
10
115.4149109999999894
20
-120.0315039999999982
11
115.7006259999999997
21
-120.0315039999999982
0
LINE
8
BLACK
6
CONTINUOUS
10
115.7006259999999997
20
-120.0315039999999982
11
115.8911019999999894
21
-120.126741999999993
0
LINE
8
BLACK
6
CONTINUOUS
10
115.8911019999999894
20
-120.126741999999993
11
115.9863399999999984
21
-120.3172189999999944
0
LINE
8
BLACK
6
CONTINUOUS
10
115.9863399999999984
20
-120.3172189999999944
11
115.9863399999999984
21
-121.3648379999999918
0
LINE
8
BLACK
6
CONTINUOUS
10
115.9863399999999984
20
-120.3172189999999944
11
116.0815779999999933
21
-120.126741999999993
0
LINE
8
BLACK
6
CONTINUOUS
10
116.0815779999999933
20
-120.126741999999993
11
116.2720539999999971
21
-120.0315039999999982
0
LINE
8
BLACK
6
CONTINUOUS
10
116.2720539999999971
20
-120.0315039999999982
11
116.5577679999999958
21
-120.0315039999999982
0
LINE
8
BLACK
6
CONTINUOUS
10
116.5577679999999958
20
-120.0315039999999982
11
116.7482449999999972
21
-120.126741999999993
0
LINE
8
BLACK
6
CONTINUOUS
10
116.7482449999999972
20
-120.126741999999993
11
116.843482999999992
21
-120.3172189999999944
0
LINE
8
BLACK
6
CONTINUOUS
10
116.843482999999992
20
-120.3172189999999944
11
116.843482999999992
21
-121.3648379999999918
0
LINE
8
BLACK
6
CONTINUOUS
10
117.7958639999999946
20
-121.3648379999999918
11
117.7958639999999946
21
-120.0315039999999982
0
LINE
8
BLACK
6
CONTINUOUS
10
117.7958639999999946
20
-120.2219799999999879
11
117.8911019999999894
21
-120.126741999999993
0
LINE
8
BLACK
6
CONTINUOUS
10
117.8911019999999894
20
-120.126741999999993
11
118.0815779999999933
21
-120.0315039999999982
0
LINE
8
BLACK
6
CONTINUOUS
10
118.0815779999999933
20
-120.0315039999999982
11
118.3672929999999894
21
-120.0315039999999982
0
LINE
8
BLACK
6
CONTINUOUS
10
118.3672929999999894
20
-120.0315039999999982
11
118.5577689999999933
21
-120.126741999999993
0
LINE
8
BLACK
6
CONTINUOUS
10
118.5577689999999933
20
-120.126741999999993
11
118.6530069999999881
21
-120.3172189999999944
0
LINE
8
BLACK
6
CONTINUOUS
10
118.6530069999999881
20
-120.3172189999999944
11
118.6530069999999881
21
-121.3648379999999918
0
LINE
8
BLACK
6
CONTINUOUS
10
118.6530069999999881
20
-120.3172189999999944
11
118.7482449999999972
21
-120.126741999999993
0
LINE
8
BLACK
6
CONTINUOUS
10
118.7482449999999972
20
-120.126741999999993
11
118.938721000000001
21
-120.0315039999999982
0
LINE
8
BLACK
6
CONTINUOUS
10
118.938721000000001
20
-120.0315039999999982
11
119.2244349999999997
21
-120.0315039999999982
0
LINE
8
BLACK
6
CONTINUOUS
10
119.2244349999999997
20
-120.0315039999999982
11
119.4149120000000011
21
-120.126741999999993
0
LINE
8
BLACK
6
CONTINUOUS
10
119.4149120000000011
20
-120.126741999999993
11
119.5101499999999959
21
-120.3172189999999944
0
LINE
8
BLACK
6
CONTINUOUS
10
119.5101499999999959
20
-120.3172189999999944
11
119.5101499999999959
21
-121.3648379999999918
0
LINE
8
BLACK
6
CONTINUOUS
10
123.4149120000000011
20
-119.269599999999997
11
121.7006269999999972
21
-121.8410279999999943
0
LINE
8
BLACK
6
CONTINUOUS
10
125.9863409999999959
20
-119.3648379999999918
11
126.1768179999999973
21
-119.3648379999999918
0
LINE
8
BLACK
6
CONTINUOUS
10
126.1768179999999973
20
-119.3648379999999918
11
126.3672940000000011
21
-119.4600760000000008
0
LINE
8
BLACK
6
CONTINUOUS
10
126.3672940000000011
20
-119.4600760000000008
11
126.4625319999999959
21
-119.5553139999999956
0
LINE
8
BLACK
6
CONTINUOUS
10
126.4625319999999959
20
-119.5553139999999956
11
126.5577699999999908
21
-119.7457899999999995
0
LINE
8
BLACK
6
CONTINUOUS
10
126.5577699999999908
20
-119.7457899999999995
11
126.6530079999999998
21
-120.126741999999993
0
LINE
8
BLACK
6
CONTINUOUS
10
126.6530079999999998
20
-120.126741999999993
11
126.6530079999999998
21
-120.6029329999999931
0
LINE
8
BLACK
6
CONTINUOUS
10
126.6530079999999998
20
-120.6029329999999931
11
126.5577699999999908
21
-120.9838850000000008
0
LINE
8
BLACK
6
CONTINUOUS
10
126.5577699999999908
20
-120.9838850000000008
11
126.4625319999999959
21
-121.1743609999999904
0
LINE
8
BLACK
6
CONTINUOUS
10
126.4625319999999959
20
-121.1743609999999904
11
126.3672940000000011
21
-121.269599999999997
0
LINE
8
BLACK
6
CONTINUOUS
10
126.3672940000000011
20
-121.269599999999997
11
126.1768179999999973
21
-121.3648379999999918
0
LINE
8
BLACK
6
CONTINUOUS
10
126.1768179999999973
20
-121.3648379999999918
11
125.9863409999999959
21
-121.3648379999999918
0
LINE
8
BLACK
6
CONTINUOUS
10
125.9863409999999959
20
-121.3648379999999918
11
125.7958649999999921
21
-121.269599999999997
0
LINE
8
BLACK
6
CONTINUOUS
10
125.7958649999999921
20
-121.269599999999997
11
125.7006269999999972
21
-121.1743609999999904
0
LINE
8
BLACK
6
CONTINUOUS
10
125.7006269999999972
20
-121.1743609999999904
11
125.6053889999999882
21
-120.9838850000000008
0
LINE
8
BLACK
6
CONTINUOUS
10
125.6053889999999882
20
-120.9838850000000008
11
125.5101509999999934
21
-120.6029329999999931
0
LINE
8
BLACK
6
CONTINUOUS
10
125.5101509999999934
20
-120.6029329999999931
11
125.5101509999999934
21
-120.126741999999993
0
LINE
8
BLACK
6
CONTINUOUS
10
125.5101509999999934
20
-120.126741999999993
11
125.6053889999999882
21
-119.7457899999999995
0
LINE
8
BLACK
6
CONTINUOUS
10
125.6053889999999882
20
-119.7457899999999995
11
125.7006269999999972
21
-119.5553139999999956
0
LINE
8
BLACK
6
CONTINUOUS
10
125.7006269999999972
20
-119.5553139999999956
11
125.7958649999999921
21
-119.4600760000000008
0
LINE
8
BLACK
6
CONTINUOUS
10
125.7958649999999921
20
-119.4600760000000008
11
125.9863409999999959
21
-119.3648379999999918
0
LINE
8
BLACK
6
CONTINUOUS
10
127.5101509999999934
20
-121.1743609999999904
11
127.6053889999999882
21
-121.269599999999997
0
LINE
8
BLACK
6
CONTINUOUS
10
127.6053889999999882
20
-121.269599999999997
11
127.5101509999999934
21
-121.3648379999999918
0
LINE
8
BLACK
6
CONTINUOUS
10
127.5101509999999934
20
-121.3648379999999918
11
127.4149129999999985
21
-121.269599999999997
0
LINE
8
BLACK
6
CONTINUOUS
10
127.4149129999999985
20
-121.269599999999997
11
127.5101509999999934
21
-121.1743609999999904
0
LINE
8
BLACK
6
CONTINUOUS
10
127.5101509999999934
20
-121.1743609999999904
11
127.5101509999999934
21
-121.3648379999999918
0
LINE
8
BLACK
6
CONTINUOUS
10
128.8434839999999895
20
-119.3648379999999918
11
129.033961000000005
21
-119.3648379999999918
0
LINE
8
BLACK
6
CONTINUOUS
10
129.033961000000005
20
-119.3648379999999918
11
129.2244369999999947
21
-119.4600760000000008
0
LINE
8
BLACK
6
CONTINUOUS
10
129.2244369999999947
20
-119.4600760000000008
11
129.3196749999999895
21
-119.5553139999999956
0
LINE
8
BLACK
6
CONTINUOUS
10
129.3196749999999895
20
-119.5553139999999956
11
129.4149129999999843
21
-119.7457899999999995
0
LINE
8
BLACK
6
CONTINUOUS
10
129.4149129999999843
20
-119.7457899999999995
11
129.5101510000000076
21
-120.126741999999993
0
LINE
8
BLACK
6
CONTINUOUS
10
129.5101510000000076
20
-120.126741999999993
11
129.5101510000000076
21
-120.6029329999999931
0
LINE
8
BLACK
6
CONTINUOUS
10
129.5101510000000076
20
-120.6029329999999931
11
129.4149129999999843
21
-120.9838850000000008
0
LINE
8
BLACK
6
CONTINUOUS
10
129.4149129999999843
20
-120.9838850000000008
11
129.3196749999999895
21
-121.1743609999999904
0
LINE
8
BLACK
6
CONTINUOUS
10
129.3196749999999895
20
-121.1743609999999904
11
129.2244369999999947
21
-121.269599999999997
0
LINE
8
BLACK
6
CONTINUOUS
10
129.2244369999999947
20
-121.269599999999997
11
129.033961000000005
21
-121.3648379999999918
0
LINE
8
BLACK
6
CONTINUOUS
10
129.033961000000005
20
-121.3648379999999918
11
128.8434839999999895
21
-121.3648379999999918
0
LINE
8
BLACK
6
CONTINUOUS
10
128.8434839999999895
20
-121.3648379999999918
11
128.6530079999999998
21
-121.269599999999997
0
LINE
8
BLACK
6
CONTINUOUS
10
128.6530079999999998
20
-121.269599999999997
11
128.557770000000005
21
-121.1743609999999904
0
LINE
8
BLACK
6
CONTINUOUS
10
128.557770000000005
20
-121.1743609999999904
11
128.4625319999999817
21
-120.9838850000000008
0
LINE
8
BLACK
6
CONTINUOUS
10
128.4625319999999817
20
-120.9838850000000008
11
128.3672939999999869
21
-120.6029329999999931
0
LINE
8
BLACK
6
CONTINUOUS
10
128.3672939999999869
20
-120.6029329999999931
11
128.3672939999999869
21
-120.126741999999993
0
LINE
8
BLACK
6
CONTINUOUS
10
128.3672939999999869
20
-120.126741999999993
11
128.4625319999999817
21
-119.7457899999999995
0
LINE
8
BLACK
6
CONTINUOUS
10
128.4625319999999817
20
-119.7457899999999995
11
128.557770000000005
21
-119.5553139999999956
0
LINE
8
BLACK
6
CONTINUOUS
10
128.557770000000005
20
-119.5553139999999956
11
128.6530079999999998
21
-119.4600760000000008
0
LINE
8
BLACK
6
CONTINUOUS
10
128.6530079999999998
20
-119.4600760000000008
11
128.8434839999999895
21
-119.3648379999999918
0
LINE
8
BLACK
6
CONTINUOUS
10
130.2720559999999921
20
-119.5553139999999956
11
130.3672939999999869
21
-119.4600760000000008
0
LINE
8
BLACK
6
CONTINUOUS
10
130.3672939999999869
20
-119.4600760000000008
11
130.557770000000005
21
-119.3648379999999918
0
LINE
8
BLACK
6
CONTINUOUS
10
130.557770000000005
20
-119.3648379999999918
11
131.033961000000005
21
-119.3648379999999918
0
LINE
8
BLACK
6
CONTINUOUS
10
131.033961000000005
20
-119.3648379999999918
11
131.2244369999999947
21
-119.4600760000000008
0
LINE
8
BLACK
6
CONTINUOUS
10
131.2244369999999947
20
-119.4600760000000008
11
131.3196749999999895
21
-119.5553139999999956
0
LINE
8
BLACK
6
CONTINUOUS
10
131.3196749999999895
20
-119.5553139999999956
11
131.4149129999999843
21
-119.7457899999999995
0
LINE
8
BLACK
6
CONTINUOUS
10
131.4149129999999843
20
-119.7457899999999995
11
131.4149129999999843
21
-119.9362659999999892
0
LINE
8
BLACK
6
CONTINUOUS
10
131.4149129999999843
20
-119.9362659999999892
11
131.3196749999999895
21
-120.2219799999999879
0
LINE
8
BLACK
6
CONTINUOUS
10
131.3196749999999895
20
-120.2219799999999879
11
130.1768179999999973
21
-121.3648379999999918
0
LINE
8
BLACK
6
CONTINUOUS
10
130.1768179999999973
20
-121.3648379999999918
11
131.4149129999999843
21
-121.3648379999999918
0
LINE
8
BLACK
6
CONTINUOUS
10
132.0815800000000024
20
-119.3648379999999918
11
133.4149129999999843
21
-119.3648379999999918
0
LINE
8
BLACK
6
CONTINUOUS
10
133.4149129999999843
20
-119.3648379999999918
11
132.557770000000005
21
-121.3648379999999918
0
LINE
8
BLACK
6
CONTINUOUS
10
135.033961000000005
20
-119.3648379999999918
11
134.6530079999999998
21
-119.3648379999999918
0
LINE
8
BLACK
6
CONTINUOUS
10
134.6530079999999998
20
-119.3648379999999918
11
134.4625319999999817
21
-119.4600760000000008
0
LINE
8
BLACK
6
CONTINUOUS
10
134.4625319999999817
20
-119.4600760000000008
11
134.3672939999999869
21
-119.5553139999999956
0
LINE
8
BLACK
6
CONTINUOUS
10
134.3672939999999869
20
-119.5553139999999956
11
134.1768179999999973
21
-119.8410279999999943
0
LINE
8
BLACK
6
CONTINUOUS
10
134.1768179999999973
20
-119.8410279999999943
11
134.0815800000000024
21
-120.2219799999999879
0
LINE
8
BLACK
6
CONTINUOUS
10
134.0815800000000024
20
-120.2219799999999879
11
134.0815800000000024
21
-120.9838850000000008
0
LINE
8
BLACK
6
CONTINUOUS
10
134.0815800000000024
20
-120.9838850000000008
11
134.1768179999999973
21
-121.1743609999999904
0
LINE
8
BLACK
6
CONTINUOUS
10
134.1768179999999973
20
-121.1743609999999904
11
134.2720559999999921
21
-121.269599999999997
0
LINE
8
BLACK
6
CONTINUOUS
10
134.2720559999999921
20
-121.269599999999997
11
134.4625319999999817
21
-121.3648379999999918
0
LINE
8
BLACK
6
CONTINUOUS
10
134.4625319999999817
20
-121.3648379999999918
11
134.8434849999999869
21
-121.3648379999999918
0
LINE
8
BLACK
6
CONTINUOUS
10
134.8434849999999869
20
-121.3648379999999918
11
135.033961000000005
21
-121.269599999999997
0
LINE
8
BLACK
6
CONTINUOUS
10
135.033961000000005
20
-121.269599999999997
11
135.1291989999999998
21
-121.1743609999999904
0
LINE
8
BLACK
6
CONTINUOUS
10
135.1291989999999998
20
-121.1743609999999904
11
135.2244369999999947
21
-120.9838850000000008
0
LINE
8
BLACK
6
CONTINUOUS
10
135.2244369999999947
20
-120.9838850000000008
11
135.2244369999999947
21
-120.5076949999999982
0
LINE
8
BLACK
6
CONTINUOUS
10
135.2244369999999947
20
-120.5076949999999982
11
135.1291989999999998
21
-120.3172189999999944
0
LINE
8
BLACK
6
CONTINUOUS
10
135.1291989999999998
20
-120.3172189999999944
11
135.033961000000005
21
-120.2219799999999879
0
LINE
8
BLACK
6
CONTINUOUS
10
135.033961000000005
20
-120.2219799999999879
11
134.8434849999999869
21
-120.126741999999993
0
LINE
8
BLACK
6
CONTINUOUS
10
134.8434849999999869
20
-120.126741999999993
11
134.4625319999999817
21
-120.126741999999993
0
LINE
8
BLACK
6
CONTINUOUS
10
134.4625319999999817
20
-120.126741999999993
11
134.2720559999999921
21
-120.2219799999999879
0
LINE
8
BLACK
6
CONTINUOUS
10
134.2720559999999921
20
-120.2219799999999879
11
134.1768179999999973
21
-120.3172189999999944
0
LINE
8
BLACK
6
CONTINUOUS
10
134.1768179999999973
20
-120.3172189999999944
11
134.0815800000000024
21
-120.5076949999999982
0
LINE
8
BLACK
6
CONTINUOUS
10
135.9863420000000076
20
-119.3648379999999918
11
135.9863420000000076
21
-119.7457899999999995
0
LINE
8
BLACK
6
CONTINUOUS
10
136.7482469999999921
20
-119.3648379999999918
11
136.7482469999999921
21
-119.7457899999999995
0
LINE
8
BLACK
6
CONTINUOUS
10
139.7006289999999922
20
-122.126741999999993
11
139.6053899999999999
21
-122.0315039999999982
0
LINE
8
BLACK
6
CONTINUOUS
10
139.6053899999999999
20
-122.0315039999999982
11
139.4149139999999818
21
-121.7457899999999995
0
LINE
8
BLACK
6
CONTINUOUS
10
139.4149139999999818
20
-121.7457899999999995
11
139.319675999999987
21
-121.5553139999999956
0
LINE
8
BLACK
6
CONTINUOUS
10
139.319675999999987
20
-121.5553139999999956
11
139.2244379999999921
21
-121.269599999999997
0
LINE
8
BLACK
6
CONTINUOUS
10
139.2244379999999921
20
-121.269599999999997
11
139.1291999999999973
21
-120.7934089999999969
0
LINE
8
BLACK
6
CONTINUOUS
10
139.1291999999999973
20
-120.7934089999999969
11
139.1291999999999973
21
-120.4124569999999892
0
LINE
8
BLACK
6
CONTINUOUS
10
139.1291999999999973
20
-120.4124569999999892
11
139.2244379999999921
21
-119.9362659999999892
0
LINE
8
BLACK
6
CONTINUOUS
10
139.2244379999999921
20
-119.9362659999999892
11
139.319675999999987
21
-119.6505519999999905
0
LINE
8
BLACK
6
CONTINUOUS
10
139.319675999999987
20
-119.6505519999999905
11
139.4149139999999818
21
-119.4600760000000008
0
LINE
8
BLACK
6
CONTINUOUS
10
139.4149139999999818
20
-119.4600760000000008
11
139.6053899999999999
21
-119.1743609999999904
0
LINE
8
BLACK
6
CONTINUOUS
10
139.6053899999999999
20
-119.1743609999999904
11
139.7006289999999922
21
-119.0791229999999956
0
LINE
8
BLACK
6
CONTINUOUS
10
141.510152000000005
20
-121.3648379999999918
11
140.3672949999999844
21
-121.3648379999999918
0
LINE
8
BLACK
6
CONTINUOUS
10
140.9387229999999818
20
-121.3648379999999918
11
140.9387229999999818
21
-119.3648379999999918
0
LINE
8
BLACK
6
CONTINUOUS
10
140.9387229999999818
20
-119.3648379999999918
11
140.7482469999999921
21
-119.6505519999999905
0
LINE
8
BLACK
6
CONTINUOUS
10
140.7482469999999921
20
-119.6505519999999905
11
140.5577710000000025
21
-119.8410279999999943
0
LINE
8
BLACK
6
CONTINUOUS
10
140.5577710000000025
20
-119.8410279999999943
11
140.3672949999999844
21
-119.9362659999999892
0
LINE
8
BLACK
6
CONTINUOUS
10
142.7482469999999921
20
-119.3648379999999918
11
142.9387240000000077
21
-119.3648379999999918
0
LINE
8
BLACK
6
CONTINUOUS
10
142.9387240000000077
20
-119.3648379999999918
11
143.1291999999999973
21
-119.4600760000000008
0
LINE
8
BLACK
6
CONTINUOUS
10
143.1291999999999973
20
-119.4600760000000008
11
143.2244379999999921
21
-119.5553139999999956
0
LINE
8
BLACK
6
CONTINUOUS
10
143.2244379999999921
20
-119.5553139999999956
11
143.319675999999987
21
-119.7457899999999995
0
LINE
8
BLACK
6
CONTINUOUS
10
143.319675999999987
20
-119.7457899999999995
11
143.4149139999999818
21
-120.126741999999993
0
LINE
8
BLACK
6
CONTINUOUS
10
143.4149139999999818
20
-120.126741999999993
11
143.4149139999999818
21
-120.6029329999999931
0
LINE
8
BLACK
6
CONTINUOUS
10
143.4149139999999818
20
-120.6029329999999931
11
143.319675999999987
21
-120.9838850000000008
0
LINE
8
BLACK
6
CONTINUOUS
10
143.319675999999987
20
-120.9838850000000008
11
143.2244379999999921
21
-121.1743609999999904
0
LINE
8
BLACK
6
CONTINUOUS
10
143.2244379999999921
20
-121.1743609999999904
11
143.1291999999999973
21
-121.269599999999997
0
LINE
8
BLACK
6
CONTINUOUS
10
143.1291999999999973
20
-121.269599999999997
11
142.9387240000000077
21
-121.3648379999999918
0
LINE
8
BLACK
6
CONTINUOUS
10
142.9387240000000077
20
-121.3648379999999918
11
142.7482469999999921
21
-121.3648379999999918
0
LINE
8
BLACK
6
CONTINUOUS
10
142.7482469999999921
20
-121.3648379999999918
11
142.5577710000000025
21
-121.269599999999997
0
LINE
8
BLACK
6
CONTINUOUS
10
142.5577710000000025
20
-121.269599999999997
11
142.4625330000000076
21
-121.1743609999999904
0
LINE
8
BLACK
6
CONTINUOUS
10
142.4625330000000076
20
-121.1743609999999904
11
142.3672949999999844
21
-120.9838850000000008
0
LINE
8
BLACK
6
CONTINUOUS
10
142.3672949999999844
20
-120.9838850000000008
11
142.2720569999999896
21
-120.6029329999999931
0
LINE
8
BLACK
6
CONTINUOUS
10
142.2720569999999896
20
-120.6029329999999931
11
142.2720569999999896
21
-120.126741999999993
0
LINE
8
BLACK
6
CONTINUOUS
10
142.2720569999999896
20
-120.126741999999993
11
142.3672949999999844
21
-119.7457899999999995
0
LINE
8
BLACK
6
CONTINUOUS
10
142.3672949999999844
20
-119.7457899999999995
11
142.4625330000000076
21
-119.5553139999999956
0
LINE
8
BLACK
6
CONTINUOUS
10
142.4625330000000076
20
-119.5553139999999956
11
142.5577710000000025
21
-119.4600760000000008
0
LINE
8
BLACK
6
CONTINUOUS
10
142.5577710000000025
20
-119.4600760000000008
11
142.7482469999999921
21
-119.3648379999999918
0
LINE
8
BLACK
6
CONTINUOUS
10
145.795866999999987
20
-121.3648379999999918
11
145.795866999999987
21
-119.3648379999999918
0
LINE
8
BLACK
6
CONTINUOUS
10
146.6530099999999948
20
-121.3648379999999918
11
146.6530099999999948
21
-120.3172189999999944
0
LINE
8
BLACK
6
CONTINUOUS
10
146.6530099999999948
20
-120.3172189999999944
11
146.5577719999999999
21
-120.126741999999993
0
LINE
8
BLACK
6
CONTINUOUS
10
146.5577719999999999
20
-120.126741999999993
11
146.3672959999999819
21
-120.0315039999999982
0
LINE
8
BLACK
6
CONTINUOUS
10
146.3672959999999819
20
-120.0315039999999982
11
146.0815809999999999
21
-120.0315039999999982
0
LINE
8
BLACK
6
CONTINUOUS
10
146.0815809999999999
20
-120.0315039999999982
11
145.8911049999999818
21
-120.126741999999993
0
LINE
8
BLACK
6
CONTINUOUS
10
145.8911049999999818
20
-120.126741999999993
11
145.795866999999987
21
-120.2219799999999879
0
LINE
8
BLACK
6
CONTINUOUS
10
147.8911049999999818
20
-121.3648379999999918
11
147.7006289999999922
21
-121.269599999999997
0
LINE
8
BLACK
6
CONTINUOUS
10
147.7006289999999922
20
-121.269599999999997
11
147.6053909999999973
21
-121.1743609999999904
0
LINE
8
BLACK
6
CONTINUOUS
10
147.6053909999999973
20
-121.1743609999999904
11
147.5101530000000025
21
-120.9838850000000008
0
LINE
8
BLACK
6
CONTINUOUS
10
147.5101530000000025
20
-120.9838850000000008
11
147.5101530000000025
21
-120.4124569999999892
0
LINE
8
BLACK
6
CONTINUOUS
10
147.5101530000000025
20
-120.4124569999999892
11
147.6053909999999973
21
-120.2219799999999879
0
LINE
8
BLACK
6
CONTINUOUS
10
147.6053909999999973
20
-120.2219799999999879
11
147.7006289999999922
21
-120.126741999999993
0
LINE
8
BLACK
6
CONTINUOUS
10
147.7006289999999922
20
-120.126741999999993
11
147.8911049999999818
21
-120.0315039999999982
0
LINE
8
BLACK
6
CONTINUOUS
10
147.8911049999999818
20
-120.0315039999999982
11
148.1768199999999922
21
-120.0315039999999982
0
LINE
8
BLACK
6
CONTINUOUS
10
148.1768199999999922
20
-120.0315039999999982
11
148.3672959999999819
21
-120.126741999999993
0
LINE
8
BLACK
6
CONTINUOUS
10
148.3672959999999819
20
-120.126741999999993
11
148.4625340000000051
21
-120.2219799999999879
0
LINE
8
BLACK
6
CONTINUOUS
10
148.4625340000000051
20
-120.2219799999999879
11
148.5577719999999999
21
-120.4124569999999892
0
LINE
8
BLACK
6
CONTINUOUS
10
148.5577719999999999
20
-120.4124569999999892
11
148.5577719999999999
21
-120.9838850000000008
0
LINE
8
BLACK
6
CONTINUOUS
10
148.5577719999999999
20
-120.9838850000000008
11
148.4625340000000051
21
-121.1743609999999904
0
LINE
8
BLACK
6
CONTINUOUS
10
148.4625340000000051
20
-121.1743609999999904
11
148.3672959999999819
21
-121.269599999999997
0
LINE
8
BLACK
6
CONTINUOUS
10
148.3672959999999819
20
-121.269599999999997
11
148.1768199999999922
21
-121.3648379999999918
0
LINE
8
BLACK
6
CONTINUOUS
10
148.1768199999999922
20
-121.3648379999999918
11
147.8911049999999818
21
-121.3648379999999918
0
LINE
8
BLACK
6
CONTINUOUS
10
149.7006289999999922
20
-121.3648379999999918
11
149.5101530000000025
21
-121.269599999999997
0
LINE
8
BLACK
6
CONTINUOUS
10
149.5101530000000025
20
-121.269599999999997
11
149.4149149999999793
21
-121.0791229999999956
0
LINE
8
BLACK
6
CONTINUOUS
10
149.4149149999999793
20
-121.0791229999999956
11
149.4149149999999793
21
-119.3648379999999918
0
LINE
8
BLACK
6
CONTINUOUS
10
151.2244389999999896
20
-121.269599999999997
11
151.033963
21
-121.3648379999999918
0
LINE
8
BLACK
6
CONTINUOUS
10
151.033963
20
-121.3648379999999918
11
150.6530099999999948
21
-121.3648379999999918
0
LINE
8
BLACK
6
CONTINUOUS
10
150.6530099999999948
20
-121.3648379999999918
11
150.4625340000000051
21
-121.269599999999997
0
LINE
8
BLACK
6
CONTINUOUS
10
150.4625340000000051
20
-121.269599999999997
11
150.3672959999999819
21
-121.0791229999999956
0
LINE
8
BLACK
6
CONTINUOUS
10
150.3672959999999819
20
-121.0791229999999956
11
150.3672959999999819
21
-120.3172189999999944
0
LINE
8
BLACK
6
CONTINUOUS
10
150.3672959999999819
20
-120.3172189999999944
11
150.4625340000000051
21
-120.126741999999993
0
LINE
8
BLACK
6
CONTINUOUS
10
150.4625340000000051
20
-120.126741999999993
11
150.6530099999999948
21
-120.0315039999999982
0
LINE
8
BLACK
6
CONTINUOUS
10
150.6530099999999948
20
-120.0315039999999982
11
151.033963
21
-120.0315039999999982
0
LINE
8
BLACK
6
CONTINUOUS
10
151.033963
20
-120.0315039999999982
11
151.2244389999999896
21
-120.126741999999993
0
LINE
8
BLACK
6
CONTINUOUS
10
151.2244389999999896
20
-120.126741999999993
11
151.3196769999999844
21
-120.3172189999999944
0
LINE
8
BLACK
6
CONTINUOUS
10
151.3196769999999844
20
-120.3172189999999944
11
151.3196769999999844
21
-120.5076949999999982
0
LINE
8
BLACK
6
CONTINUOUS
10
151.3196769999999844
20
-120.5076949999999982
11
150.3672959999999819
21
-120.6981709999999879
0
LINE
8
BLACK
6
CONTINUOUS
10
152.0815819999999974
20
-121.269599999999997
11
152.272057999999987
21
-121.3648379999999918
0
LINE
8
BLACK
6
CONTINUOUS
10
152.272057999999987
20
-121.3648379999999918
11
152.6530099999999948
21
-121.3648379999999918
0
LINE
8
BLACK
6
CONTINUOUS
10
152.6530099999999948
20
-121.3648379999999918
11
152.8434869999999819
21
-121.269599999999997
0
LINE
8
BLACK
6
CONTINUOUS
10
152.8434869999999819
20
-121.269599999999997
11
152.9387250000000051
21
-121.0791229999999956
0
LINE
8
BLACK
6
CONTINUOUS
10
152.9387250000000051
20
-121.0791229999999956
11
152.9387250000000051
21
-120.9838850000000008
0
LINE
8
BLACK
6
CONTINUOUS
10
152.9387250000000051
20
-120.9838850000000008
11
152.8434869999999819
21
-120.7934089999999969
0
LINE
8
BLACK
6
CONTINUOUS
10
152.8434869999999819
20
-120.7934089999999969
11
152.6530099999999948
21
-120.6981709999999879
0
LINE
8
BLACK
6
CONTINUOUS
10
152.6530099999999948
20
-120.6981709999999879
11
152.3672959999999819
21
-120.6981709999999879
0
LINE
8
BLACK
6
CONTINUOUS
10
152.3672959999999819
20
-120.6981709999999879
11
152.1768199999999922
21
-120.6029329999999931
0
LINE
8
BLACK
6
CONTINUOUS
10
152.1768199999999922
20
-120.6029329999999931
11
152.0815819999999974
21
-120.4124569999999892
0
LINE
8
BLACK
6
CONTINUOUS
10
152.0815819999999974
20
-120.4124569999999892
11
152.0815819999999974
21
-120.3172189999999944
0
LINE
8
BLACK
6
CONTINUOUS
10
152.0815819999999974
20
-120.3172189999999944
11
152.1768199999999922
21
-120.126741999999993
0
LINE
8
BLACK
6
CONTINUOUS
10
152.1768199999999922
20
-120.126741999999993
11
152.3672959999999819
21
-120.0315039999999982
0
LINE
8
BLACK
6
CONTINUOUS
10
152.3672959999999819
20
-120.0315039999999982
11
152.6530099999999948
21
-120.0315039999999982
0
LINE
8
BLACK
6
CONTINUOUS
10
152.6530099999999948
20
-120.0315039999999982
11
152.8434869999999819
21
-120.126741999999993
0
LINE
8
BLACK
6
CONTINUOUS
10
153.6053919999999948
20
-122.126741999999993
11
153.7006299999999896
21
-122.0315039999999982
0
LINE
8
BLACK
6
CONTINUOUS
10
153.7006299999999896
20
-122.0315039999999982
11
153.8911059999999793
21
-121.7457899999999995
0
LINE
8
BLACK
6
CONTINUOUS
10
153.8911059999999793
20
-121.7457899999999995
11
153.9863440000000026
21
-121.5553139999999956
0
LINE
8
BLACK
6
CONTINUOUS
10
153.9863440000000026
20
-121.5553139999999956
11
154.0815819999999974
21
-121.269599999999997
0
LINE
8
BLACK
6
CONTINUOUS
10
154.0815819999999974
20
-121.269599999999997
11
154.1768199999999922
21
-120.7934089999999969
0
LINE
8
BLACK
6
CONTINUOUS
10
154.1768199999999922
20
-120.7934089999999969
11
154.1768199999999922
21
-120.4124569999999892
0
LINE
8
BLACK
6
CONTINUOUS
10
154.1768199999999922
20
-120.4124569999999892
11
154.0815819999999974
21
-119.9362659999999892
0
LINE
8
BLACK
6
CONTINUOUS
10
154.0815819999999974
20
-119.9362659999999892
11
153.9863440000000026
21
-119.6505519999999905
0
LINE
8
BLACK
6
CONTINUOUS
10
153.9863440000000026
20
-119.6505519999999905
11
153.8911059999999793
21
-119.4600760000000008
0
LINE
8
BLACK
6
CONTINUOUS
10
153.8911059999999793
20
-119.4600760000000008
11
153.7006299999999896
21
-119.1743609999999904
0
LINE
8
BLACK
6
CONTINUOUS
10
153.7006299999999896
20
-119.1743609999999904
11
153.6053919999999948
21
-119.0791229999999956
0
CIRCLE
8
BLACK
10
103.5
20
-123.0899999999999892
40
0.45
0
LINE
8
BLACK
6
CONTINUOUS
10
106.9387199999999893
20
-122.0048379999999923
11
107.1291969999999907
21
-122.0048379999999923
0
LINE
8
BLACK
6
CONTINUOUS
10
107.1291969999999907
20
-122.0048379999999923
11
107.3196729999999945
21
-122.1000760000000014
0
LINE
8
BLACK
6
CONTINUOUS
10
107.3196729999999945
20
-122.1000760000000014
11
107.4149109999999894
21
-122.1953139999999962
0
LINE
8
BLACK
6
CONTINUOUS
10
107.4149109999999894
20
-122.1953139999999962
11
107.5101489999999984
21
-122.3857900000000001
0
LINE
8
BLACK
6
CONTINUOUS
10
107.5101489999999984
20
-122.3857900000000001
11
107.6053869999999932
21
-122.7667419999999936
0
LINE
8
BLACK
6
CONTINUOUS
10
107.6053869999999932
20
-122.7667419999999936
11
107.6053869999999932
21
-123.2429329999999936
0
LINE
8
BLACK
6
CONTINUOUS
10
107.6053869999999932
20
-123.2429329999999936
11
107.5101489999999984
21
-123.6238850000000014
0
LINE
8
BLACK
6
CONTINUOUS
10
107.5101489999999984
20
-123.6238850000000014
11
107.4149109999999894
21
-123.814360999999991
0
LINE
8
BLACK
6
CONTINUOUS
10
107.4149109999999894
20
-123.814360999999991
11
107.3196729999999945
21
-123.9095999999999975
0
LINE
8
BLACK
6
CONTINUOUS
10
107.3196729999999945
20
-123.9095999999999975
11
107.1291969999999907
21
-124.0048379999999923
0
LINE
8
BLACK
6
CONTINUOUS
10
107.1291969999999907
20
-124.0048379999999923
11
106.9387199999999893
21
-124.0048379999999923
0
LINE
8
BLACK
6
CONTINUOUS
10
106.9387199999999893
20
-124.0048379999999923
11
106.7482439999999997
21
-123.9095999999999975
0
LINE
8
BLACK
6
CONTINUOUS
10
106.7482439999999997
20
-123.9095999999999975
11
106.6530059999999906
21
-123.814360999999991
0
LINE
8
BLACK
6
CONTINUOUS
10
106.6530059999999906
20
-123.814360999999991
11
106.5577679999999958
21
-123.6238850000000014
0
LINE
8
BLACK
6
CONTINUOUS
10
106.5577679999999958
20
-123.6238850000000014
11
106.462530000000001
21
-123.2429329999999936
0
LINE
8
BLACK
6
CONTINUOUS
10
106.462530000000001
20
-123.2429329999999936
11
106.462530000000001
21
-122.7667419999999936
0
LINE
8
BLACK
6
CONTINUOUS
10
106.462530000000001
20
-122.7667419999999936
11
106.5577679999999958
21
-122.3857900000000001
0
LINE
8
BLACK
6
CONTINUOUS
10
106.5577679999999958
20
-122.3857900000000001
11
106.6530059999999906
21
-122.1953139999999962
0
LINE
8
BLACK
6
CONTINUOUS
10
106.6530059999999906
20
-122.1953139999999962
11
106.7482439999999997
21
-122.1000760000000014
0
LINE
8
BLACK
6
CONTINUOUS
10
106.7482439999999997
20
-122.1000760000000014
11
106.9387199999999893
21
-122.0048379999999923
0
LINE
8
BLACK
6
CONTINUOUS
10
108.462530000000001
20
-123.814360999999991
11
108.5577679999999958
21
-123.9095999999999975
0
LINE
8
BLACK
6
CONTINUOUS
10
108.5577679999999958
20
-123.9095999999999975
11
108.462530000000001
21
-124.0048379999999923
0
LINE
8
BLACK
6
CONTINUOUS
10
108.462530000000001
20
-124.0048379999999923
11
108.367291999999992
21
-123.9095999999999975
0
LINE
8
BLACK
6
CONTINUOUS
10
108.367291999999992
20
-123.9095999999999975
11
108.462530000000001
21
-123.814360999999991
0
LINE
8
BLACK
6
CONTINUOUS
10
108.462530000000001
20
-123.814360999999991
11
108.462530000000001
21
-124.0048379999999923
0
LINE
8
BLACK
6
CONTINUOUS
10
109.5101489999999984
20
-124.0048379999999923
11
109.8911009999999919
21
-124.0048379999999923
0
LINE
8
BLACK
6
CONTINUOUS
10
109.8911009999999919
20
-124.0048379999999923
11
110.0815779999999933
21
-123.9095999999999975
0
LINE
8
BLACK
6
CONTINUOUS
10
110.0815779999999933
20
-123.9095999999999975
11
110.1768159999999881
21
-123.814360999999991
0
LINE
8
BLACK
6
CONTINUOUS
10
110.1768159999999881
20
-123.814360999999991
11
110.367291999999992
21
-123.5286469999999923
0
LINE
8
BLACK
6
CONTINUOUS
10
110.367291999999992
20
-123.5286469999999923
11
110.462530000000001
21
-123.1476949999999988
0
LINE
8
BLACK
6
CONTINUOUS
10
110.462530000000001
20
-123.1476949999999988
11
110.462530000000001
21
-122.3857900000000001
0
LINE
8
BLACK
6
CONTINUOUS
10
110.462530000000001
20
-122.3857900000000001
11
110.367291999999992
21
-122.1953139999999962
0
LINE
8
BLACK
6
CONTINUOUS
10
110.367291999999992
20
-122.1953139999999962
11
110.2720539999999971
21
-122.1000760000000014
0
LINE
8
BLACK
6
CONTINUOUS
10
110.2720539999999971
20
-122.1000760000000014
11
110.0815779999999933
21
-122.0048379999999923
0
LINE
8
BLACK
6
CONTINUOUS
10
110.0815779999999933
20
-122.0048379999999923
11
109.7006249999999881
21
-122.0048379999999923
0
LINE
8
BLACK
6
CONTINUOUS
10
109.7006249999999881
20
-122.0048379999999923
11
109.5101489999999984
21
-122.1000760000000014
0
LINE
8
BLACK
6
CONTINUOUS
10
109.5101489999999984
20
-122.1000760000000014
11
109.4149109999999894
21
-122.1953139999999962
0
LINE
8
BLACK
6
CONTINUOUS
10
109.4149109999999894
20
-122.1953139999999962
11
109.3196729999999945
21
-122.3857900000000001
0
LINE
8
BLACK
6
CONTINUOUS
10
109.3196729999999945
20
-122.3857900000000001
11
109.3196729999999945
21
-122.8619799999999884
0
LINE
8
BLACK
6
CONTINUOUS
10
109.3196729999999945
20
-122.8619799999999884
11
109.4149109999999894
21
-123.0524569999999898
0
LINE
8
BLACK
6
CONTINUOUS
10
109.4149109999999894
20
-123.0524569999999898
11
109.5101489999999984
21
-123.1476949999999988
0
LINE
8
BLACK
6
CONTINUOUS
10
109.5101489999999984
20
-123.1476949999999988
11
109.7006249999999881
21
-123.2429329999999936
0
LINE
8
BLACK
6
CONTINUOUS
10
109.7006249999999881
20
-123.2429329999999936
11
110.0815779999999933
21
-123.2429329999999936
0
LINE
8
BLACK
6
CONTINUOUS
10
110.0815779999999933
20
-123.2429329999999936
11
110.2720539999999971
21
-123.1476949999999988
0
LINE
8
BLACK
6
CONTINUOUS
10
110.2720539999999971
20
-123.1476949999999988
11
110.367291999999992
21
-123.0524569999999898
0
LINE
8
BLACK
6
CONTINUOUS
10
110.367291999999992
20
-123.0524569999999898
11
110.462530000000001
21
-122.8619799999999884
0
LINE
8
BLACK
6
CONTINUOUS
10
111.7006249999999881
20
-122.0048379999999923
11
111.8911019999999894
21
-122.0048379999999923
0
LINE
8
BLACK
6
CONTINUOUS
10
111.8911019999999894
20
-122.0048379999999923
11
112.0815779999999933
21
-122.1000760000000014
0
LINE
8
BLACK
6
CONTINUOUS
10
112.0815779999999933
20
-122.1000760000000014
11
112.1768159999999881
21
-122.1953139999999962
0
LINE
8
BLACK
6
CONTINUOUS
10
112.1768159999999881
20
-122.1953139999999962
11
112.2720539999999971
21
-122.3857900000000001
0
LINE
8
BLACK
6
CONTINUOUS
10
112.2720539999999971
20
-122.3857900000000001
11
112.367291999999992
21
-122.7667419999999936
0
LINE
8
BLACK
6
CONTINUOUS
10
112.367291999999992
20
-122.7667419999999936
11
112.367291999999992
21
-123.2429329999999936
0
LINE
8
BLACK
6
CONTINUOUS
10
112.367291999999992
20
-123.2429329999999936
11
112.2720539999999971
21
-123.6238850000000014
0
LINE
8
BLACK
6
CONTINUOUS
10
112.2720539999999971
20
-123.6238850000000014
11
112.1768159999999881
21
-123.814360999999991
0
LINE
8
BLACK
6
CONTINUOUS
10
112.1768159999999881
20
-123.814360999999991
11
112.0815779999999933
21
-123.9095999999999975
0
LINE
8
BLACK
6
CONTINUOUS
10
112.0815779999999933
20
-123.9095999999999975
11
111.8911019999999894
21
-124.0048379999999923
0
LINE
8
BLACK
6
CONTINUOUS
10
111.8911019999999894
20
-124.0048379999999923
11
111.7006249999999881
21
-124.0048379999999923
0
LINE
8
BLACK
6
CONTINUOUS
10
111.7006249999999881
20
-124.0048379999999923
11
111.5101489999999984
21
-123.9095999999999975
0
LINE
8
BLACK
6
CONTINUOUS
10
111.5101489999999984
20
-123.9095999999999975
11
111.4149109999999894
21
-123.814360999999991
0
LINE
8
BLACK
6
CONTINUOUS
10
111.4149109999999894
20
-123.814360999999991
11
111.3196729999999945
21
-123.6238850000000014
0
LINE
8
BLACK
6
CONTINUOUS
10
111.3196729999999945
20
-123.6238850000000014
11
111.2244349999999997
21
-123.2429329999999936
0
LINE
8
BLACK
6
CONTINUOUS
10
111.2244349999999997
20
-123.2429329999999936
11
111.2244349999999997
21
-122.7667419999999936
0
LINE
8
BLACK
6
CONTINUOUS
10
111.2244349999999997
20
-122.7667419999999936
11
111.3196729999999945
21
-122.3857900000000001
0
LINE
8
BLACK
6
CONTINUOUS
10
111.3196729999999945
20
-122.3857900000000001
11
111.4149109999999894
21
-122.1953139999999962
0
LINE
8
BLACK
6
CONTINUOUS
10
111.4149109999999894
20
-122.1953139999999962
11
111.5101489999999984
21
-122.1000760000000014
0
LINE
8
BLACK
6
CONTINUOUS
10
111.5101489999999984
20
-122.1000760000000014
11
111.7006249999999881
21
-122.0048379999999923
0
LINE
8
BLACK
6
CONTINUOUS
10
113.6053869999999932
20
-122.0048379999999923
11
113.7958639999999946
21
-122.0048379999999923
0
LINE
8
BLACK
6
CONTINUOUS
10
113.7958639999999946
20
-122.0048379999999923
11
113.9863399999999984
21
-122.1000760000000014
0
LINE
8
BLACK
6
CONTINUOUS
10
113.9863399999999984
20
-122.1000760000000014
11
114.0815779999999933
21
-122.1953139999999962
0
LINE
8
BLACK
6
CONTINUOUS
10
114.0815779999999933
20
-122.1953139999999962
11
114.1768159999999881
21
-122.3857900000000001
0
LINE
8
BLACK
6
CONTINUOUS
10
114.1768159999999881
20
-122.3857900000000001
11
114.2720539999999971
21
-122.7667419999999936
0
LINE
8
BLACK
6
CONTINUOUS
10
114.2720539999999971
20
-122.7667419999999936
11
114.2720539999999971
21
-123.2429329999999936
0
LINE
8
BLACK
6
CONTINUOUS
10
114.2720539999999971
20
-123.2429329999999936
11
114.1768159999999881
21
-123.6238850000000014
0
LINE
8
BLACK
6
CONTINUOUS
10
114.1768159999999881
20
-123.6238850000000014
11
114.0815779999999933
21
-123.814360999999991
0
LINE
8
BLACK
6
CONTINUOUS
10
114.0815779999999933
20
-123.814360999999991
11
113.9863399999999984
21
-123.9095999999999975
0
LINE
8
BLACK
6
CONTINUOUS
10
113.9863399999999984
20
-123.9095999999999975
11
113.7958639999999946
21
-124.0048379999999923
0
LINE
8
BLACK
6
CONTINUOUS
10
113.7958639999999946
20
-124.0048379999999923
11
113.6053869999999932
21
-124.0048379999999923
0
LINE
8
BLACK
6
CONTINUOUS
10
113.6053869999999932
20
-124.0048379999999923
11
113.4149109999999894
21
-123.9095999999999975
0
LINE
8
BLACK
6
CONTINUOUS
10
113.4149109999999894
20
-123.9095999999999975
11
113.3196729999999945
21
-123.814360999999991
0
LINE
8
BLACK
6
CONTINUOUS
10
113.3196729999999945
20
-123.814360999999991
11
113.2244349999999997
21
-123.6238850000000014
0
LINE
8
BLACK
6
CONTINUOUS
10
113.2244349999999997
20
-123.6238850000000014
11
113.1291969999999907
21
-123.2429329999999936
0
LINE
8
BLACK
6
CONTINUOUS
10
113.1291969999999907
20
-123.2429329999999936
11
113.1291969999999907
21
-122.7667419999999936
0
LINE
8
BLACK
6
CONTINUOUS
10
113.1291969999999907
20
-122.7667419999999936
11
113.2244349999999997
21
-122.3857900000000001
0
LINE
8
BLACK
6
CONTINUOUS
10
113.2244349999999997
20
-122.3857900000000001
11
113.3196729999999945
21
-122.1953139999999962
0
LINE
8
BLACK
6
CONTINUOUS
10
113.3196729999999945
20
-122.1953139999999962
11
113.4149109999999894
21
-122.1000760000000014
0
LINE
8
BLACK
6
CONTINUOUS
10
113.4149109999999894
20
-122.1000760000000014
11
113.6053869999999932
21
-122.0048379999999923
0
LINE
8
BLACK
6
CONTINUOUS
10
115.1291969999999907
20
-124.0048379999999923
11
115.1291969999999907
21
-122.6715039999999988
0
LINE
8
BLACK
6
CONTINUOUS
10
115.1291969999999907
20
-122.8619799999999884
11
115.2244349999999997
21
-122.7667419999999936
0
LINE
8
BLACK
6
CONTINUOUS
10
115.2244349999999997
20
-122.7667419999999936
11
115.4149109999999894
21
-122.6715039999999988
0
LINE
8
BLACK
6
CONTINUOUS
10
115.4149109999999894
20
-122.6715039999999988
11
115.7006259999999997
21
-122.6715039999999988
0
LINE
8
BLACK
6
CONTINUOUS
10
115.7006259999999997
20
-122.6715039999999988
11
115.8911019999999894
21
-122.7667419999999936
0
LINE
8
BLACK
6
CONTINUOUS
10
115.8911019999999894
20
-122.7667419999999936
11
115.9863399999999984
21
-122.9572189999999949
0
LINE
8
BLACK
6
CONTINUOUS
10
115.9863399999999984
20
-122.9572189999999949
11
115.9863399999999984
21
-124.0048379999999923
0
LINE
8
BLACK
6
CONTINUOUS
10
115.9863399999999984
20
-122.9572189999999949
11
116.0815779999999933
21
-122.7667419999999936
0
LINE
8
BLACK
6
CONTINUOUS
10
116.0815779999999933
20
-122.7667419999999936
11
116.2720539999999971
21
-122.6715039999999988
0
LINE
8
BLACK
6
CONTINUOUS
10
116.2720539999999971
20
-122.6715039999999988
11
116.5577679999999958
21
-122.6715039999999988
0
LINE
8
BLACK
6
CONTINUOUS
10
116.5577679999999958
20
-122.6715039999999988
11
116.7482449999999972
21
-122.7667419999999936
0
LINE
8
BLACK
6
CONTINUOUS
10
116.7482449999999972
20
-122.7667419999999936
11
116.843482999999992
21
-122.9572189999999949
0
LINE
8
BLACK
6
CONTINUOUS
10
116.843482999999992
20
-122.9572189999999949
11
116.843482999999992
21
-124.0048379999999923
0
LINE
8
BLACK
6
CONTINUOUS
10
117.7958639999999946
20
-124.0048379999999923
11
117.7958639999999946
21
-122.6715039999999988
0
LINE
8
BLACK
6
CONTINUOUS
10
117.7958639999999946
20
-122.8619799999999884
11
117.8911019999999894
21
-122.7667419999999936
0
LINE
8
BLACK
6
CONTINUOUS
10
117.8911019999999894
20
-122.7667419999999936
11
118.0815779999999933
21
-122.6715039999999988
0
LINE
8
BLACK
6
CONTINUOUS
10
118.0815779999999933
20
-122.6715039999999988
11
118.3672929999999894
21
-122.6715039999999988
0
LINE
8
BLACK
6
CONTINUOUS
10
118.3672929999999894
20
-122.6715039999999988
11
118.5577689999999933
21
-122.7667419999999936
0
LINE
8
BLACK
6
CONTINUOUS
10
118.5577689999999933
20
-122.7667419999999936
11
118.6530069999999881
21
-122.9572189999999949
0
LINE
8
BLACK
6
CONTINUOUS
10
118.6530069999999881
20
-122.9572189999999949
11
118.6530069999999881
21
-124.0048379999999923
0
LINE
8
BLACK
6
CONTINUOUS
10
118.6530069999999881
20
-122.9572189999999949
11
118.7482449999999972
21
-122.7667419999999936
0
LINE
8
BLACK
6
CONTINUOUS
10
118.7482449999999972
20
-122.7667419999999936
11
118.938721000000001
21
-122.6715039999999988
0
LINE
8
BLACK
6
CONTINUOUS
10
118.938721000000001
20
-122.6715039999999988
11
119.2244349999999997
21
-122.6715039999999988
0
LINE
8
BLACK
6
CONTINUOUS
10
119.2244349999999997
20
-122.6715039999999988
11
119.4149120000000011
21
-122.7667419999999936
0
LINE
8
BLACK
6
CONTINUOUS
10
119.4149120000000011
20
-122.7667419999999936
11
119.5101499999999959
21
-122.9572189999999949
0
LINE
8
BLACK
6
CONTINUOUS
10
119.5101499999999959
20
-122.9572189999999949
11
119.5101499999999959
21
-124.0048379999999923
0
LINE
8
BLACK
6
CONTINUOUS
10
123.4149120000000011
20
-121.9095999999999975
11
121.7006269999999972
21
-124.4810279999999949
0
LINE
8
BLACK
6
CONTINUOUS
10
125.9863409999999959
20
-122.0048379999999923
11
126.1768179999999973
21
-122.0048379999999923
0
LINE
8
BLACK
6
CONTINUOUS
10
126.1768179999999973
20
-122.0048379999999923
11
126.3672940000000011
21
-122.1000760000000014
0
LINE
8
BLACK
6
CONTINUOUS
10
126.3672940000000011
20
-122.1000760000000014
11
126.4625319999999959
21
-122.1953139999999962
0
LINE
8
BLACK
6
CONTINUOUS
10
126.4625319999999959
20
-122.1953139999999962
11
126.5577699999999908
21
-122.3857900000000001
0
LINE
8
BLACK
6
CONTINUOUS
10
126.5577699999999908
20
-122.3857900000000001
11
126.6530079999999998
21
-122.7667419999999936
0
LINE
8
BLACK
6
CONTINUOUS
10
126.6530079999999998
20
-122.7667419999999936
11
126.6530079999999998
21
-123.2429329999999936
0
LINE
8
BLACK
6
CONTINUOUS
10
126.6530079999999998
20
-123.2429329999999936
11
126.5577699999999908
21
-123.6238850000000014
0
LINE
8
BLACK
6
CONTINUOUS
10
126.5577699999999908
20
-123.6238850000000014
11
126.4625319999999959
21
-123.814360999999991
0
LINE
8
BLACK
6
CONTINUOUS
10
126.4625319999999959
20
-123.814360999999991
11
126.3672940000000011
21
-123.9095999999999975
0
LINE
8
BLACK
6
CONTINUOUS
10
126.3672940000000011
20
-123.9095999999999975
11
126.1768179999999973
21
-124.0048379999999923
0
LINE
8
BLACK
6
CONTINUOUS
10
126.1768179999999973
20
-124.0048379999999923
11
125.9863409999999959
21
-124.0048379999999923
0
LINE
8
BLACK
6
CONTINUOUS
10
125.9863409999999959
20
-124.0048379999999923
11
125.7958649999999921
21
-123.9095999999999975
0
LINE
8
BLACK
6
CONTINUOUS
10
125.7958649999999921
20
-123.9095999999999975
11
125.7006269999999972
21
-123.814360999999991
0
LINE
8
BLACK
6
CONTINUOUS
10
125.7006269999999972
20
-123.814360999999991
11
125.6053889999999882
21
-123.6238850000000014
0
LINE
8
BLACK
6
CONTINUOUS
10
125.6053889999999882
20
-123.6238850000000014
11
125.5101509999999934
21
-123.2429329999999936
0
LINE
8
BLACK
6
CONTINUOUS
10
125.5101509999999934
20
-123.2429329999999936
11
125.5101509999999934
21
-122.7667419999999936
0
LINE
8
BLACK
6
CONTINUOUS
10
125.5101509999999934
20
-122.7667419999999936
11
125.6053889999999882
21
-122.3857900000000001
0
LINE
8
BLACK
6
CONTINUOUS
10
125.6053889999999882
20
-122.3857900000000001
11
125.7006269999999972
21
-122.1953139999999962
0
LINE
8
BLACK
6
CONTINUOUS
10
125.7006269999999972
20
-122.1953139999999962
11
125.7958649999999921
21
-122.1000760000000014
0
LINE
8
BLACK
6
CONTINUOUS
10
125.7958649999999921
20
-122.1000760000000014
11
125.9863409999999959
21
-122.0048379999999923
0
LINE
8
BLACK
6
CONTINUOUS
10
127.5101509999999934
20
-123.814360999999991
11
127.6053889999999882
21
-123.9095999999999975
0
LINE
8
BLACK
6
CONTINUOUS
10
127.6053889999999882
20
-123.9095999999999975
11
127.5101509999999934
21
-124.0048379999999923
0
LINE
8
BLACK
6
CONTINUOUS
10
127.5101509999999934
20
-124.0048379999999923
11
127.4149129999999985
21
-123.9095999999999975
0
LINE
8
BLACK
6
CONTINUOUS
10
127.4149129999999985
20
-123.9095999999999975
11
127.5101509999999934
21
-123.814360999999991
0
LINE
8
BLACK
6
CONTINUOUS
10
127.5101509999999934
20
-123.814360999999991
11
127.5101509999999934
21
-124.0048379999999923
0
LINE
8
BLACK
6
CONTINUOUS
10
128.8434839999999895
20
-122.0048379999999923
11
129.033961000000005
21
-122.0048379999999923
0
LINE
8
BLACK
6
CONTINUOUS
10
129.033961000000005
20
-122.0048379999999923
11
129.2244369999999947
21
-122.1000760000000014
0
LINE
8
BLACK
6
CONTINUOUS
10
129.2244369999999947
20
-122.1000760000000014
11
129.3196749999999895
21
-122.1953139999999962
0
LINE
8
BLACK
6
CONTINUOUS
10
129.3196749999999895
20
-122.1953139999999962
11
129.4149129999999843
21
-122.3857900000000001
0
LINE
8
BLACK
6
CONTINUOUS
10
129.4149129999999843
20
-122.3857900000000001
11
129.5101510000000076
21
-122.7667419999999936
0
LINE
8
BLACK
6
CONTINUOUS
10
129.5101510000000076
20
-122.7667419999999936
11
129.5101510000000076
21
-123.2429329999999936
0
LINE
8
BLACK
6
CONTINUOUS
10
129.5101510000000076
20
-123.2429329999999936
11
129.4149129999999843
21
-123.6238850000000014
0
LINE
8
BLACK
6
CONTINUOUS
10
129.4149129999999843
20
-123.6238850000000014
11
129.3196749999999895
21
-123.814360999999991
0
LINE
8
BLACK
6
CONTINUOUS
10
129.3196749999999895
20
-123.814360999999991
11
129.2244369999999947
21
-123.9095999999999975
0
LINE
8
BLACK
6
CONTINUOUS
10
129.2244369999999947
20
-123.9095999999999975
11
129.033961000000005
21
-124.0048379999999923
0
LINE
8
BLACK
6
CONTINUOUS
10
129.033961000000005
20
-124.0048379999999923
11
128.8434839999999895
21
-124.0048379999999923
0
LINE
8
BLACK
6
CONTINUOUS
10
128.8434839999999895
20
-124.0048379999999923
11
128.6530079999999998
21
-123.9095999999999975
0
LINE
8
BLACK
6
CONTINUOUS
10
128.6530079999999998
20
-123.9095999999999975
11
128.557770000000005
21
-123.814360999999991
0
LINE
8
BLACK
6
CONTINUOUS
10
128.557770000000005
20
-123.814360999999991
11
128.4625319999999817
21
-123.6238850000000014
0
LINE
8
BLACK
6
CONTINUOUS
10
128.4625319999999817
20
-123.6238850000000014
11
128.3672939999999869
21
-123.2429329999999936
0
LINE
8
BLACK
6
CONTINUOUS
10
128.3672939999999869
20
-123.2429329999999936
11
128.3672939999999869
21
-122.7667419999999936
0
LINE
8
BLACK
6
CONTINUOUS
10
128.3672939999999869
20
-122.7667419999999936
11
128.4625319999999817
21
-122.3857900000000001
0
LINE
8
BLACK
6
CONTINUOUS
10
128.4625319999999817
20
-122.3857900000000001
11
128.557770000000005
21
-122.1953139999999962
0
LINE
8
BLACK
6
CONTINUOUS
10
128.557770000000005
20
-122.1953139999999962
11
128.6530079999999998
21
-122.1000760000000014
0
LINE
8
BLACK
6
CONTINUOUS
10
128.6530079999999998
20
-122.1000760000000014
11
128.8434839999999895
21
-122.0048379999999923
0
LINE
8
BLACK
6
CONTINUOUS
10
130.1768179999999973
20
-122.0048379999999923
11
131.4149129999999843
21
-122.0048379999999923
0
LINE
8
BLACK
6
CONTINUOUS
10
131.4149129999999843
20
-122.0048379999999923
11
130.7482459999999946
21
-122.7667419999999936
0
LINE
8
BLACK
6
CONTINUOUS
10
130.7482459999999946
20
-122.7667419999999936
11
131.033961000000005
21
-122.7667419999999936
0
LINE
8
BLACK
6
CONTINUOUS
10
131.033961000000005
20
-122.7667419999999936
11
131.2244369999999947
21
-122.8619799999999884
0
LINE
8
BLACK
6
CONTINUOUS
10
131.2244369999999947
20
-122.8619799999999884
11
131.3196749999999895
21
-122.9572189999999949
0
LINE
8
BLACK
6
CONTINUOUS
10
131.3196749999999895
20
-122.9572189999999949
11
131.4149129999999843
21
-123.1476949999999988
0
LINE
8
BLACK
6
CONTINUOUS
10
131.4149129999999843
20
-123.1476949999999988
11
131.4149129999999843
21
-123.6238850000000014
0
LINE
8
BLACK
6
CONTINUOUS
10
131.4149129999999843
20
-123.6238850000000014
11
131.3196749999999895
21
-123.814360999999991
0
LINE
8
BLACK
6
CONTINUOUS
10
131.3196749999999895
20
-123.814360999999991
11
131.2244369999999947
21
-123.9095999999999975
0
LINE
8
BLACK
6
CONTINUOUS
10
131.2244369999999947
20
-123.9095999999999975
11
131.033961000000005
21
-124.0048379999999923
0
LINE
8
BLACK
6
CONTINUOUS
10
131.033961000000005
20
-124.0048379999999923
11
130.4625319999999817
21
-124.0048379999999923
0
LINE
8
BLACK
6
CONTINUOUS
10
130.4625319999999817
20
-124.0048379999999923
11
130.2720559999999921
21
-123.9095999999999975
0
LINE
8
BLACK
6
CONTINUOUS
10
130.2720559999999921
20
-123.9095999999999975
11
130.1768179999999973
21
-123.814360999999991
0
LINE
8
BLACK
6
CONTINUOUS
10
133.2244369999999947
20
-122.0048379999999923
11
132.2720559999999921
21
-122.0048379999999923
0
LINE
8
BLACK
6
CONTINUOUS
10
132.2720559999999921
20
-122.0048379999999923
11
132.1768179999999973
21
-122.9572189999999949
0
LINE
8
BLACK
6
CONTINUOUS
10
132.1768179999999973
20
-122.9572189999999949
11
132.2720559999999921
21
-122.8619799999999884
0
LINE
8
BLACK
6
CONTINUOUS
10
132.2720559999999921
20
-122.8619799999999884
11
132.4625319999999817
21
-122.7667419999999936
0
LINE
8
BLACK
6
CONTINUOUS
10
132.4625319999999817
20
-122.7667419999999936
11
132.9387229999999818
21
-122.7667419999999936
0
LINE
8
BLACK
6
CONTINUOUS
10
132.9387229999999818
20
-122.7667419999999936
11
133.1291989999999998
21
-122.8619799999999884
0
LINE
8
BLACK
6
CONTINUOUS
10
133.1291989999999998
20
-122.8619799999999884
11
133.2244369999999947
21
-122.9572189999999949
0
LINE
8
BLACK
6
CONTINUOUS
10
133.2244369999999947
20
-122.9572189999999949
11
133.3196749999999895
21
-123.1476949999999988
0
LINE
8
BLACK
6
CONTINUOUS
10
133.3196749999999895
20
-123.1476949999999988
11
133.3196749999999895
21
-123.6238850000000014
0
LINE
8
BLACK
6
CONTINUOUS
10
133.3196749999999895
20
-123.6238850000000014
11
133.2244369999999947
21
-123.814360999999991
0
LINE
8
BLACK
6
CONTINUOUS
10
133.2244369999999947
20
-123.814360999999991
11
133.1291989999999998
21
-123.9095999999999975
0
LINE
8
BLACK
6
CONTINUOUS
10
133.1291989999999998
20
-123.9095999999999975
11
132.9387229999999818
21
-124.0048379999999923
0
LINE
8
BLACK
6
CONTINUOUS
10
132.9387229999999818
20
-124.0048379999999923
11
132.4625319999999817
21
-124.0048379999999923
0
LINE
8
BLACK
6
CONTINUOUS
10
132.4625319999999817
20
-124.0048379999999923
11
132.2720559999999921
21
-123.9095999999999975
0
LINE
8
BLACK
6
CONTINUOUS
10
132.2720559999999921
20
-123.9095999999999975
11
132.1768179999999973
21
-123.814360999999991
0
LINE
8
BLACK
6
CONTINUOUS
10
135.033961000000005
20
-122.6715039999999988
11
135.033961000000005
21
-124.0048379999999923
0
LINE
8
BLACK
6
CONTINUOUS
10
134.557770000000005
20
-121.9095999999999975
11
134.0815800000000024
21
-123.3381709999999885
0
LINE
8
BLACK
6
CONTINUOUS
10
134.0815800000000024
20
-123.3381709999999885
11
135.3196749999999895
21
-123.3381709999999885
0
LINE
8
BLACK
6
CONTINUOUS
10
135.9863420000000076
20
-122.0048379999999923
11
135.9863420000000076
21
-122.3857900000000001
0
LINE
8
BLACK
6
CONTINUOUS
10
136.7482469999999921
20
-122.0048379999999923
11
136.7482469999999921
21
-122.3857900000000001
0
LINE
8
BLACK
6
CONTINUOUS
10
139.7006289999999922
20
-124.7667419999999936
11
139.6053899999999999
21
-124.6715039999999988
0
LINE
8
BLACK
6
CONTINUOUS
10
139.6053899999999999
20
-124.6715039999999988
11
139.4149139999999818
21
-124.3857900000000001
0
LINE
8
BLACK
6
CONTINUOUS
10
139.4149139999999818
20
-124.3857900000000001
11
139.319675999999987
21
-124.1953139999999962
0
LINE
8
BLACK
6
CONTINUOUS
10
139.319675999999987
20
-124.1953139999999962
11
139.2244379999999921
21
-123.9095999999999975
0
LINE
8
BLACK
6
CONTINUOUS
10
139.2244379999999921
20
-123.9095999999999975
11
139.1291999999999973
21
-123.4334089999999975
0
LINE
8
BLACK
6
CONTINUOUS
10
139.1291999999999973
20
-123.4334089999999975
11
139.1291999999999973
21
-123.0524569999999898
0
LINE
8
BLACK
6
CONTINUOUS
10
139.1291999999999973
20
-123.0524569999999898
11
139.2244379999999921
21
-122.5762659999999897
0
LINE
8
BLACK
6
CONTINUOUS
10
139.2244379999999921
20
-122.5762659999999897
11
139.319675999999987
21
-122.290551999999991
0
LINE
8
BLACK
6
CONTINUOUS
10
139.319675999999987
20
-122.290551999999991
11
139.4149139999999818
21
-122.1000760000000014
0
LINE
8
BLACK
6
CONTINUOUS
10
139.4149139999999818
20
-122.1000760000000014
11
139.6053899999999999
21
-121.814360999999991
0
LINE
8
BLACK
6
CONTINUOUS
10
139.6053899999999999
20
-121.814360999999991
11
139.7006289999999922
21
-121.7191229999999962
0
LINE
8
BLACK
6
CONTINUOUS
10
141.510152000000005
20
-124.0048379999999923
11
140.3672949999999844
21
-124.0048379999999923
0
LINE
8
BLACK
6
CONTINUOUS
10
140.9387229999999818
20
-124.0048379999999923
11
140.9387229999999818
21
-122.0048379999999923
0
LINE
8
BLACK
6
CONTINUOUS
10
140.9387229999999818
20
-122.0048379999999923
11
140.7482469999999921
21
-122.290551999999991
0
LINE
8
BLACK
6
CONTINUOUS
10
140.7482469999999921
20
-122.290551999999991
11
140.5577710000000025
21
-122.4810279999999949
0
LINE
8
BLACK
6
CONTINUOUS
10
140.5577710000000025
20
-122.4810279999999949
11
140.3672949999999844
21
-122.5762659999999897
0
LINE
8
BLACK
6
CONTINUOUS
10
142.7482469999999921
20
-122.0048379999999923
11
142.9387240000000077
21
-122.0048379999999923
0
LINE
8
BLACK
6
CONTINUOUS
10
142.9387240000000077
20
-122.0048379999999923
11
143.1291999999999973
21
-122.1000760000000014
0
LINE
8
BLACK
6
CONTINUOUS
10
143.1291999999999973
20
-122.1000760000000014
11
143.2244379999999921
21
-122.1953139999999962
0
LINE
8
BLACK
6
CONTINUOUS
10
143.2244379999999921
20
-122.1953139999999962
11
143.319675999999987
21
-122.3857900000000001
0
LINE
8
BLACK
6
CONTINUOUS
10
143.319675999999987
20
-122.3857900000000001
11
143.4149139999999818
21
-122.7667419999999936
0
LINE
8
BLACK
6
CONTINUOUS
10
143.4149139999999818
20
-122.7667419999999936
11
143.4149139999999818
21
-123.2429329999999936
0
LINE
8
BLACK
6
CONTINUOUS
10
143.4149139999999818
20
-123.2429329999999936
11
143.319675999999987
21
-123.6238850000000014
0
LINE
8
BLACK
6
CONTINUOUS
10
143.319675999999987
20
-123.6238850000000014
11
143.2244379999999921
21
-123.814360999999991
0
LINE
8
BLACK
6
CONTINUOUS
10
143.2244379999999921
20
-123.814360999999991
11
143.1291999999999973
21
-123.9095999999999975
0
LINE
8
BLACK
6
CONTINUOUS
10
143.1291999999999973
20
-123.9095999999999975
11
142.9387240000000077
21
-124.0048379999999923
0
LINE
8
BLACK
6
CONTINUOUS
10
142.9387240000000077
20
-124.0048379999999923
11
142.7482469999999921
21
-124.0048379999999923
0
LINE
8
BLACK
6
CONTINUOUS
10
142.7482469999999921
20
-124.0048379999999923
11
142.5577710000000025
21
-123.9095999999999975
0
LINE
8
BLACK
6
CONTINUOUS
10
142.5577710000000025
20
-123.9095999999999975
11
142.4625330000000076
21
-123.814360999999991
0
LINE
8
BLACK
6
CONTINUOUS
10
142.4625330000000076
20
-123.814360999999991
11
142.3672949999999844
21
-123.6238850000000014
0
LINE
8
BLACK
6
CONTINUOUS
10
142.3672949999999844
20
-123.6238850000000014
11
142.2720569999999896
21
-123.2429329999999936
0
LINE
8
BLACK
6
CONTINUOUS
10
142.2720569999999896
20
-123.2429329999999936
11
142.2720569999999896
21
-122.7667419999999936
0
LINE
8
BLACK
6
CONTINUOUS
10
142.2720569999999896
20
-122.7667419999999936
11
142.3672949999999844
21
-122.3857900000000001
0
LINE
8
BLACK
6
CONTINUOUS
10
142.3672949999999844
20
-122.3857900000000001
11
142.4625330000000076
21
-122.1953139999999962
0
LINE
8
BLACK
6
CONTINUOUS
10
142.4625330000000076
20
-122.1953139999999962
11
142.5577710000000025
21
-122.1000760000000014
0
LINE
8
BLACK
6
CONTINUOUS
10
142.5577710000000025
20
-122.1000760000000014
11
142.7482469999999921
21
-122.0048379999999923
0
LINE
8
BLACK
6
CONTINUOUS
10
145.795866999999987
20
-124.0048379999999923
11
145.795866999999987
21
-122.0048379999999923
0
LINE
8
BLACK
6
CONTINUOUS
10
146.6530099999999948
20
-124.0048379999999923
11
146.6530099999999948
21
-122.9572189999999949
0
LINE
8
BLACK
6
CONTINUOUS
10
146.6530099999999948
20
-122.9572189999999949
11
146.5577719999999999
21
-122.7667419999999936
0
LINE
8
BLACK
6
CONTINUOUS
10
146.5577719999999999
20
-122.7667419999999936
11
146.3672959999999819
21
-122.6715039999999988
0
LINE
8
BLACK
6
CONTINUOUS
10
146.3672959999999819
20
-122.6715039999999988
11
146.0815809999999999
21
-122.6715039999999988
0
LINE
8
BLACK
6
CONTINUOUS
10
146.0815809999999999
20
-122.6715039999999988
11
145.8911049999999818
21
-122.7667419999999936
0
LINE
8
BLACK
6
CONTINUOUS
10
145.8911049999999818
20
-122.7667419999999936
11
145.795866999999987
21
-122.8619799999999884
0
LINE
8
BLACK
6
CONTINUOUS
10
147.8911049999999818
20
-124.0048379999999923
11
147.7006289999999922
21
-123.9095999999999975
0
LINE
8
BLACK
6
CONTINUOUS
10
147.7006289999999922
20
-123.9095999999999975
11
147.6053909999999973
21
-123.814360999999991
0
LINE
8
BLACK
6
CONTINUOUS
10
147.6053909999999973
20
-123.814360999999991
11
147.5101530000000025
21
-123.6238850000000014
0
LINE
8
BLACK
6
CONTINUOUS
10
147.5101530000000025
20
-123.6238850000000014
11
147.5101530000000025
21
-123.0524569999999898
0
LINE
8
BLACK
6
CONTINUOUS
10
147.5101530000000025
20
-123.0524569999999898
11
147.6053909999999973
21
-122.8619799999999884
0
LINE
8
BLACK
6
CONTINUOUS
10
147.6053909999999973
20
-122.8619799999999884
11
147.7006289999999922
21
-122.7667419999999936
0
LINE
8
BLACK
6
CONTINUOUS
10
147.7006289999999922
20
-122.7667419999999936
11
147.8911049999999818
21
-122.6715039999999988
0
LINE
8
BLACK
6
CONTINUOUS
10
147.8911049999999818
20
-122.6715039999999988
11
148.1768199999999922
21
-122.6715039999999988
0
LINE
8
BLACK
6
CONTINUOUS
10
148.1768199999999922
20
-122.6715039999999988
11
148.3672959999999819
21
-122.7667419999999936
0
LINE
8
BLACK
6
CONTINUOUS
10
148.3672959999999819
20
-122.7667419999999936
11
148.4625340000000051
21
-122.8619799999999884
0
LINE
8
BLACK
6
CONTINUOUS
10
148.4625340000000051
20
-122.8619799999999884
11
148.5577719999999999
21
-123.0524569999999898
0
LINE
8
BLACK
6
CONTINUOUS
10
148.5577719999999999
20
-123.0524569999999898
11
148.5577719999999999
21
-123.6238850000000014
0
LINE
8
BLACK
6
CONTINUOUS
10
148.5577719999999999
20
-123.6238850000000014
11
148.4625340000000051
21
-123.814360999999991
0
LINE
8
BLACK
6
CONTINUOUS
10
148.4625340000000051
20
-123.814360999999991
11
148.3672959999999819
21
-123.9095999999999975
0
LINE
8
BLACK
6
CONTINUOUS
10
148.3672959999999819
20
-123.9095999999999975
11
148.1768199999999922
21
-124.0048379999999923
0
LINE
8
BLACK
6
CONTINUOUS
10
148.1768199999999922
20
-124.0048379999999923
11
147.8911049999999818
21
-124.0048379999999923
0
LINE
8
BLACK
6
CONTINUOUS
10
149.7006289999999922
20
-124.0048379999999923
11
149.5101530000000025
21
-123.9095999999999975
0
LINE
8
BLACK
6
CONTINUOUS
10
149.5101530000000025
20
-123.9095999999999975
11
149.4149149999999793
21
-123.7191229999999962
0
LINE
8
BLACK
6
CONTINUOUS
10
149.4149149999999793
20
-123.7191229999999962
11
149.4149149999999793
21
-122.0048379999999923
0
LINE
8
BLACK
6
CONTINUOUS
10
151.2244389999999896
20
-123.9095999999999975
11
151.033963
21
-124.0048379999999923
0
LINE
8
BLACK
6
CONTINUOUS
10
151.033963
20
-124.0048379999999923
11
150.6530099999999948
21
-124.0048379999999923
0
LINE
8
BLACK
6
CONTINUOUS
10
150.6530099999999948
20
-124.0048379999999923
11
150.4625340000000051
21
-123.9095999999999975
0
LINE
8
BLACK
6
CONTINUOUS
10
150.4625340000000051
20
-123.9095999999999975
11
150.3672959999999819
21
-123.7191229999999962
0
LINE
8
BLACK
6
CONTINUOUS
10
150.3672959999999819
20
-123.7191229999999962
11
150.3672959999999819
21
-122.9572189999999949
0
LINE
8
BLACK
6
CONTINUOUS
10
150.3672959999999819
20
-122.9572189999999949
11
150.4625340000000051
21
-122.7667419999999936
0
LINE
8
BLACK
6
CONTINUOUS
10
150.4625340000000051
20
-122.7667419999999936
11
150.6530099999999948
21
-122.6715039999999988
0
LINE
8
BLACK
6
CONTINUOUS
10
150.6530099999999948
20
-122.6715039999999988
11
151.033963
21
-122.6715039999999988
0
LINE
8
BLACK
6
CONTINUOUS
10
151.033963
20
-122.6715039999999988
11
151.2244389999999896
21
-122.7667419999999936
0
LINE
8
BLACK
6
CONTINUOUS
10
151.2244389999999896
20
-122.7667419999999936
11
151.3196769999999844
21
-122.9572189999999949
0
LINE
8
BLACK
6
CONTINUOUS
10
151.3196769999999844
20
-122.9572189999999949
11
151.3196769999999844
21
-123.1476949999999988
0
LINE
8
BLACK
6
CONTINUOUS
10
151.3196769999999844
20
-123.1476949999999988
11
150.3672959999999819
21
-123.3381709999999885
0
LINE
8
BLACK
6
CONTINUOUS
10
152.0815819999999974
20
-123.9095999999999975
11
152.272057999999987
21
-124.0048379999999923
0
LINE
8
BLACK
6
CONTINUOUS
10
152.272057999999987
20
-124.0048379999999923
11
152.6530099999999948
21
-124.0048379999999923
0
LINE
8
BLACK
6
CONTINUOUS
10
152.6530099999999948
20
-124.0048379999999923
11
152.8434869999999819
21
-123.9095999999999975
0
LINE
8
BLACK
6
CONTINUOUS
10
152.8434869999999819
20
-123.9095999999999975
11
152.9387250000000051
21
-123.7191229999999962
0
LINE
8
BLACK
6
CONTINUOUS
10
152.9387250000000051
20
-123.7191229999999962
11
152.9387250000000051
21
-123.6238850000000014
0
LINE
8
BLACK
6
CONTINUOUS
10
152.9387250000000051
20
-123.6238850000000014
11
152.8434869999999819
21
-123.4334089999999975
0
LINE
8
BLACK
6
CONTINUOUS
10
152.8434869999999819
20
-123.4334089999999975
11
152.6530099999999948
21
-123.3381709999999885
0
LINE
8
BLACK
6
CONTINUOUS
10
152.6530099999999948
20
-123.3381709999999885
11
152.3672959999999819
21
-123.3381709999999885
0
LINE
8
BLACK
6
CONTINUOUS
10
152.3672959999999819
20
-123.3381709999999885
11
152.1768199999999922
21
-123.2429329999999936
0
LINE
8
BLACK
6
CONTINUOUS
10
152.1768199999999922
20
-123.2429329999999936
11
152.0815819999999974
21
-123.0524569999999898
0
LINE
8
BLACK
6
CONTINUOUS
10
152.0815819999999974
20
-123.0524569999999898
11
152.0815819999999974
21
-122.9572189999999949
0
LINE
8
BLACK
6
CONTINUOUS
10
152.0815819999999974
20
-122.9572189999999949
11
152.1768199999999922
21
-122.7667419999999936
0
LINE
8
BLACK
6
CONTINUOUS
10
152.1768199999999922
20
-122.7667419999999936
11
152.3672959999999819
21
-122.6715039999999988
0
LINE
8
BLACK
6
CONTINUOUS
10
152.3672959999999819
20
-122.6715039999999988
11
152.6530099999999948
21
-122.6715039999999988
0
LINE
8
BLACK
6
CONTINUOUS
10
152.6530099999999948
20
-122.6715039999999988
11
152.8434869999999819
21
-122.7667419999999936
0
LINE
8
BLACK
6
CONTINUOUS
10
153.6053919999999948
20
-124.7667419999999936
11
153.7006299999999896
21
-124.6715039999999988
0
LINE
8
BLACK
6
CONTINUOUS
10
153.7006299999999896
20
-124.6715039999999988
11
153.8911059999999793
21
-124.3857900000000001
0
LINE
8
BLACK
6
CONTINUOUS
10
153.8911059999999793
20
-124.3857900000000001
11
153.9863440000000026
21
-124.1953139999999962
0
LINE
8
BLACK
6
CONTINUOUS
10
153.9863440000000026
20
-124.1953139999999962
11
154.0815819999999974
21
-123.9095999999999975
0
LINE
8
BLACK
6
CONTINUOUS
10
154.0815819999999974
20
-123.9095999999999975
11
154.1768199999999922
21
-123.4334089999999975
0
LINE
8
BLACK
6
CONTINUOUS
10
154.1768199999999922
20
-123.4334089999999975
11
154.1768199999999922
21
-123.0524569999999898
0
LINE
8
BLACK
6
CONTINUOUS
10
154.1768199999999922
20
-123.0524569999999898
11
154.0815819999999974
21
-122.5762659999999897
0
LINE
8
BLACK
6
CONTINUOUS
10
154.0815819999999974
20
-122.5762659999999897
11
153.9863440000000026
21
-122.290551999999991
0
LINE
8
BLACK
6
CONTINUOUS
10
153.9863440000000026
20
-122.290551999999991
11
153.8911059999999793
21
-122.1000760000000014
0
LINE
8
BLACK
6
CONTINUOUS
10
153.8911059999999793
20
-122.1000760000000014
11
153.7006299999999896
21
-121.814360999999991
0
LINE
8
BLACK
6
CONTINUOUS
10
153.7006299999999896
20
-121.814360999999991
11
153.6053919999999948
21
-121.7191229999999962
0
LINE
8
BLACK
6
CONTINUOUS
10
103.4499999999999886
20
-125.2299999999999898
11
103.4499999999999886
21
-126.2299999999999898
0
LINE
8
BLACK
6
CONTINUOUS
10
102.9499999999999886
20
-125.7299999999999898
11
103.9499999999999886
21
-125.7299999999999898
0
LINE
8
BLACK
6
CONTINUOUS
10
107.6053869999999932
20
-126.6448379999999929
11
106.462530000000001
21
-126.6448379999999929
0
LINE
8
BLACK
6
CONTINUOUS
10
107.0339579999999984
20
-126.6448379999999929
11
107.0339579999999984
21
-124.6448379999999929
0
LINE
8
BLACK
6
CONTINUOUS
10
107.0339579999999984
20
-124.6448379999999929
11
106.8434819999999945
21
-124.9305519999999916
0
LINE
8
BLACK
6
CONTINUOUS
10
106.8434819999999945
20
-124.9305519999999916
11
106.6530059999999906
21
-125.1210279999999955
0
LINE
8
BLACK
6
CONTINUOUS
10
106.6530059999999906
20
-125.1210279999999955
11
106.462530000000001
21
-125.2162659999999903
0
LINE
8
BLACK
6
CONTINUOUS
10
108.462530000000001
20
-126.4543609999999916
11
108.5577679999999958
21
-126.5495999999999981
0
LINE
8
BLACK
6
CONTINUOUS
10
108.5577679999999958
20
-126.5495999999999981
11
108.462530000000001
21
-126.6448379999999929
0
LINE
8
BLACK
6
CONTINUOUS
10
108.462530000000001
20
-126.6448379999999929
11
108.367291999999992
21
-126.5495999999999981
0
LINE
8
BLACK
6
CONTINUOUS
10
108.367291999999992
20
-126.5495999999999981
11
108.462530000000001
21
-126.4543609999999916
0
LINE
8
BLACK
6
CONTINUOUS
10
108.462530000000001
20
-126.4543609999999916
11
108.462530000000001
21
-126.6448379999999929
0
LINE
8
BLACK
6
CONTINUOUS
10
109.7958629999999971
20
-124.6448379999999929
11
109.9863399999999984
21
-124.6448379999999929
0
LINE
8
BLACK
6
CONTINUOUS
10
109.9863399999999984
20
-124.6448379999999929
11
110.1768159999999881
21
-124.7400759999999877
0
LINE
8
BLACK
6
CONTINUOUS
10
110.1768159999999881
20
-124.7400759999999877
11
110.2720539999999971
21
-124.8353139999999968
0
LINE
8
BLACK
6
CONTINUOUS
10
110.2720539999999971
20
-124.8353139999999968
11
110.367291999999992
21
-125.0257900000000006
0
LINE
8
BLACK
6
CONTINUOUS
10
110.367291999999992
20
-125.0257900000000006
11
110.462530000000001
21
-125.4067419999999942
0
LINE
8
BLACK
6
CONTINUOUS
10
110.462530000000001
20
-125.4067419999999942
11
110.462530000000001
21
-125.8829329999999942
0
LINE
8
BLACK
6
CONTINUOUS
10
110.462530000000001
20
-125.8829329999999942
11
110.367291999999992
21
-126.2638849999999877
0
LINE
8
BLACK
6
CONTINUOUS
10
110.367291999999992
20
-126.2638849999999877
11
110.2720539999999971
21
-126.4543609999999916
0
LINE
8
BLACK
6
CONTINUOUS
10
110.2720539999999971
20
-126.4543609999999916
11
110.1768159999999881
21
-126.5495999999999981
0
LINE
8
BLACK
6
CONTINUOUS
10
110.1768159999999881
20
-126.5495999999999981
11
109.9863399999999984
21
-126.6448379999999929
0
LINE
8
BLACK
6
CONTINUOUS
10
109.9863399999999984
20
-126.6448379999999929
11
109.7958629999999971
21
-126.6448379999999929
0
LINE
8
BLACK
6
CONTINUOUS
10
109.7958629999999971
20
-126.6448379999999929
11
109.6053869999999932
21
-126.5495999999999981
0
LINE
8
BLACK
6
CONTINUOUS
10
109.6053869999999932
20
-126.5495999999999981
11
109.5101489999999984
21
-126.4543609999999916
0
LINE
8
BLACK
6
CONTINUOUS
10
109.5101489999999984
20
-126.4543609999999916
11
109.4149109999999894
21
-126.2638849999999877
0
LINE
8
BLACK
6
CONTINUOUS
10
109.4149109999999894
20
-126.2638849999999877
11
109.3196729999999945
21
-125.8829329999999942
0
LINE
8
BLACK
6
CONTINUOUS
10
109.3196729999999945
20
-125.8829329999999942
11
109.3196729999999945
21
-125.4067419999999942
0
LINE
8
BLACK
6
CONTINUOUS
10
109.3196729999999945
20
-125.4067419999999942
11
109.4149109999999894
21
-125.0257900000000006
0
LINE
8
BLACK
6
CONTINUOUS
10
109.4149109999999894
20
-125.0257900000000006
11
109.5101489999999984
21
-124.8353139999999968
0
LINE
8
BLACK
6
CONTINUOUS
10
109.5101489999999984
20
-124.8353139999999968
11
109.6053869999999932
21
-124.7400759999999877
0
LINE
8
BLACK
6
CONTINUOUS
10
109.6053869999999932
20
-124.7400759999999877
11
109.7958629999999971
21
-124.6448379999999929
0
LINE
8
BLACK
6
CONTINUOUS
10
111.7006249999999881
20
-124.6448379999999929
11
111.8911019999999894
21
-124.6448379999999929
0
LINE
8
BLACK
6
CONTINUOUS
10
111.8911019999999894
20
-124.6448379999999929
11
112.0815779999999933
21
-124.7400759999999877
0
LINE
8
BLACK
6
CONTINUOUS
10
112.0815779999999933
20
-124.7400759999999877
11
112.1768159999999881
21
-124.8353139999999968
0
LINE
8
BLACK
6
CONTINUOUS
10
112.1768159999999881
20
-124.8353139999999968
11
112.2720539999999971
21
-125.0257900000000006
0
LINE
8
BLACK
6
CONTINUOUS
10
112.2720539999999971
20
-125.0257900000000006
11
112.367291999999992
21
-125.4067419999999942
0
LINE
8
BLACK
6
CONTINUOUS
10
112.367291999999992
20
-125.4067419999999942
11
112.367291999999992
21
-125.8829329999999942
0
LINE
8
BLACK
6
CONTINUOUS
10
112.367291999999992
20
-125.8829329999999942
11
112.2720539999999971
21
-126.2638849999999877
0
LINE
8
BLACK
6
CONTINUOUS
10
112.2720539999999971
20
-126.2638849999999877
11
112.1768159999999881
21
-126.4543609999999916
0
LINE
8
BLACK
6
CONTINUOUS
10
112.1768159999999881
20
-126.4543609999999916
11
112.0815779999999933
21
-126.5495999999999981
0
LINE
8
BLACK
6
CONTINUOUS
10
112.0815779999999933
20
-126.5495999999999981
11
111.8911019999999894
21
-126.6448379999999929
0
LINE
8
BLACK
6
CONTINUOUS
10
111.8911019999999894
20
-126.6448379999999929
11
111.7006249999999881
21
-126.6448379999999929
0
LINE
8
BLACK
6
CONTINUOUS
10
111.7006249999999881
20
-126.6448379999999929
11
111.5101489999999984
21
-126.5495999999999981
0
LINE
8
BLACK
6
CONTINUOUS
10
111.5101489999999984
20
-126.5495999999999981
11
111.4149109999999894
21
-126.4543609999999916
0
LINE
8
BLACK
6
CONTINUOUS
10
111.4149109999999894
20
-126.4543609999999916
11
111.3196729999999945
21
-126.2638849999999877
0
LINE
8
BLACK
6
CONTINUOUS
10
111.3196729999999945
20
-126.2638849999999877
11
111.2244349999999997
21
-125.8829329999999942
0
LINE
8
BLACK
6
CONTINUOUS
10
111.2244349999999997
20
-125.8829329999999942
11
111.2244349999999997
21
-125.4067419999999942
0
LINE
8
BLACK
6
CONTINUOUS
10
111.2244349999999997
20
-125.4067419999999942
11
111.3196729999999945
21
-125.0257900000000006
0
LINE
8
BLACK
6
CONTINUOUS
10
111.3196729999999945
20
-125.0257900000000006
11
111.4149109999999894
21
-124.8353139999999968
0
LINE
8
BLACK
6
CONTINUOUS
10
111.4149109999999894
20
-124.8353139999999968
11
111.5101489999999984
21
-124.7400759999999877
0
LINE
8
BLACK
6
CONTINUOUS
10
111.5101489999999984
20
-124.7400759999999877
11
111.7006249999999881
21
-124.6448379999999929
0
LINE
8
BLACK
6
CONTINUOUS
10
113.6053869999999932
20
-124.6448379999999929
11
113.7958639999999946
21
-124.6448379999999929
0
LINE
8
BLACK
6
CONTINUOUS
10
113.7958639999999946
20
-124.6448379999999929
11
113.9863399999999984
21
-124.7400759999999877
0
LINE
8
BLACK
6
CONTINUOUS
10
113.9863399999999984
20
-124.7400759999999877
11
114.0815779999999933
21
-124.8353139999999968
0
LINE
8
BLACK
6
CONTINUOUS
10
114.0815779999999933
20
-124.8353139999999968
11
114.1768159999999881
21
-125.0257900000000006
0
LINE
8
BLACK
6
CONTINUOUS
10
114.1768159999999881
20
-125.0257900000000006
11
114.2720539999999971
21
-125.4067419999999942
0
LINE
8
BLACK
6
CONTINUOUS
10
114.2720539999999971
20
-125.4067419999999942
11
114.2720539999999971
21
-125.8829329999999942
0
LINE
8
BLACK
6
CONTINUOUS
10
114.2720539999999971
20
-125.8829329999999942
11
114.1768159999999881
21
-126.2638849999999877
0
LINE
8
BLACK
6
CONTINUOUS
10
114.1768159999999881
20
-126.2638849999999877
11
114.0815779999999933
21
-126.4543609999999916
0
LINE
8
BLACK
6
CONTINUOUS
10
114.0815779999999933
20
-126.4543609999999916
11
113.9863399999999984
21
-126.5495999999999981
0
LINE
8
BLACK
6
CONTINUOUS
10
113.9863399999999984
20
-126.5495999999999981
11
113.7958639999999946
21
-126.6448379999999929
0
LINE
8
BLACK
6
CONTINUOUS
10
113.7958639999999946
20
-126.6448379999999929
11
113.6053869999999932
21
-126.6448379999999929
0
LINE
8
BLACK
6
CONTINUOUS
10
113.6053869999999932
20
-126.6448379999999929
11
113.4149109999999894
21
-126.5495999999999981
0
LINE
8
BLACK
6
CONTINUOUS
10
113.4149109999999894
20
-126.5495999999999981
11
113.3196729999999945
21
-126.4543609999999916
0
LINE
8
BLACK
6
CONTINUOUS
10
113.3196729999999945
20
-126.4543609999999916
11
113.2244349999999997
21
-126.2638849999999877
0
LINE
8
BLACK
6
CONTINUOUS
10
113.2244349999999997
20
-126.2638849999999877
11
113.1291969999999907
21
-125.8829329999999942
0
LINE
8
BLACK
6
CONTINUOUS
10
113.1291969999999907
20
-125.8829329999999942
11
113.1291969999999907
21
-125.4067419999999942
0
LINE
8
BLACK
6
CONTINUOUS
10
113.1291969999999907
20
-125.4067419999999942
11
113.2244349999999997
21
-125.0257900000000006
0
LINE
8
BLACK
6
CONTINUOUS
10
113.2244349999999997
20
-125.0257900000000006
11
113.3196729999999945
21
-124.8353139999999968
0
LINE
8
BLACK
6
CONTINUOUS
10
113.3196729999999945
20
-124.8353139999999968
11
113.4149109999999894
21
-124.7400759999999877
0
LINE
8
BLACK
6
CONTINUOUS
10
113.4149109999999894
20
-124.7400759999999877
11
113.6053869999999932
21
-124.6448379999999929
0
LINE
8
BLACK
6
CONTINUOUS
10
115.1291969999999907
20
-126.6448379999999929
11
115.1291969999999907
21
-125.3115039999999993
0
LINE
8
BLACK
6
CONTINUOUS
10
115.1291969999999907
20
-125.501979999999989
11
115.2244349999999997
21
-125.4067419999999942
0
LINE
8
BLACK
6
CONTINUOUS
10
115.2244349999999997
20
-125.4067419999999942
11
115.4149109999999894
21
-125.3115039999999993
0
LINE
8
BLACK
6
CONTINUOUS
10
115.4149109999999894
20
-125.3115039999999993
11
115.7006259999999997
21
-125.3115039999999993
0
LINE
8
BLACK
6
CONTINUOUS
10
115.7006259999999997
20
-125.3115039999999993
11
115.8911019999999894
21
-125.4067419999999942
0
LINE
8
BLACK
6
CONTINUOUS
10
115.8911019999999894
20
-125.4067419999999942
11
115.9863399999999984
21
-125.5972189999999955
0
LINE
8
BLACK
6
CONTINUOUS
10
115.9863399999999984
20
-125.5972189999999955
11
115.9863399999999984
21
-126.6448379999999929
0
LINE
8
BLACK
6
CONTINUOUS
10
115.9863399999999984
20
-125.5972189999999955
11
116.0815779999999933
21
-125.4067419999999942
0
LINE
8
BLACK
6
CONTINUOUS
10
116.0815779999999933
20
-125.4067419999999942
11
116.2720539999999971
21
-125.3115039999999993
0
LINE
8
BLACK
6
CONTINUOUS
10
116.2720539999999971
20
-125.3115039999999993
11
116.5577679999999958
21
-125.3115039999999993
0
LINE
8
BLACK
6
CONTINUOUS
10
116.5577679999999958
20
-125.3115039999999993
11
116.7482449999999972
21
-125.4067419999999942
0
LINE
8
BLACK
6
CONTINUOUS
10
116.7482449999999972
20
-125.4067419999999942
11
116.843482999999992
21
-125.5972189999999955
0
LINE
8
BLACK
6
CONTINUOUS
10
116.843482999999992
20
-125.5972189999999955
11
116.843482999999992
21
-126.6448379999999929
0
LINE
8
BLACK
6
CONTINUOUS
10
117.7958639999999946
20
-126.6448379999999929
11
117.7958639999999946
21
-125.3115039999999993
0
LINE
8
BLACK
6
CONTINUOUS
10
117.7958639999999946
20
-125.501979999999989
11
117.8911019999999894
21
-125.4067419999999942
0
LINE
8
BLACK
6
CONTINUOUS
10
117.8911019999999894
20
-125.4067419999999942
11
118.0815779999999933
21
-125.3115039999999993
0
LINE
8
BLACK
6
CONTINUOUS
10
118.0815779999999933
20
-125.3115039999999993
11
118.3672929999999894
21
-125.3115039999999993
0
LINE
8
BLACK
6
CONTINUOUS
10
118.3672929999999894
20
-125.3115039999999993
11
118.5577689999999933
21
-125.4067419999999942
0
LINE
8
BLACK
6
CONTINUOUS
10
118.5577689999999933
20
-125.4067419999999942
11
118.6530069999999881
21
-125.5972189999999955
0
LINE
8
BLACK
6
CONTINUOUS
10
118.6530069999999881
20
-125.5972189999999955
11
118.6530069999999881
21
-126.6448379999999929
0
LINE
8
BLACK
6
CONTINUOUS
10
118.6530069999999881
20
-125.5972189999999955
11
118.7482449999999972
21
-125.4067419999999942
0
LINE
8
BLACK
6
CONTINUOUS
10
118.7482449999999972
20
-125.4067419999999942
11
118.938721000000001
21
-125.3115039999999993
0
LINE
8
BLACK
6
CONTINUOUS
10
118.938721000000001
20
-125.3115039999999993
11
119.2244349999999997
21
-125.3115039999999993
0
LINE
8
BLACK
6
CONTINUOUS
10
119.2244349999999997
20
-125.3115039999999993
11
119.4149120000000011
21
-125.4067419999999942
0
LINE
8
BLACK
6
CONTINUOUS
10
119.4149120000000011
20
-125.4067419999999942
11
119.5101499999999959
21
-125.5972189999999955
0
LINE
8
BLACK
6
CONTINUOUS
10
119.5101499999999959
20
-125.5972189999999955
11
119.5101499999999959
21
-126.6448379999999929
0
LINE
8
BLACK
6
CONTINUOUS
10
123.4149120000000011
20
-124.5495999999999981
11
121.7006269999999972
21
-127.1210279999999955
0
LINE
8
BLACK
6
CONTINUOUS
10
125.9863409999999959
20
-124.6448379999999929
11
126.1768179999999973
21
-124.6448379999999929
0
LINE
8
BLACK
6
CONTINUOUS
10
126.1768179999999973
20
-124.6448379999999929
11
126.3672940000000011
21
-124.7400759999999877
0
LINE
8
BLACK
6
CONTINUOUS
10
126.3672940000000011
20
-124.7400759999999877
11
126.4625319999999959
21
-124.8353139999999968
0
LINE
8
BLACK
6
CONTINUOUS
10
126.4625319999999959
20
-124.8353139999999968
11
126.5577699999999908
21
-125.0257900000000006
0
LINE
8
BLACK
6
CONTINUOUS
10
126.5577699999999908
20
-125.0257900000000006
11
126.6530079999999998
21
-125.4067419999999942
0
LINE
8
BLACK
6
CONTINUOUS
10
126.6530079999999998
20
-125.4067419999999942
11
126.6530079999999998
21
-125.8829329999999942
0
LINE
8
BLACK
6
CONTINUOUS
10
126.6530079999999998
20
-125.8829329999999942
11
126.5577699999999908
21
-126.2638849999999877
0
LINE
8
BLACK
6
CONTINUOUS
10
126.5577699999999908
20
-126.2638849999999877
11
126.4625319999999959
21
-126.4543609999999916
0
LINE
8
BLACK
6
CONTINUOUS
10
126.4625319999999959
20
-126.4543609999999916
11
126.3672940000000011
21
-126.5495999999999981
0
LINE
8
BLACK
6
CONTINUOUS
10
126.3672940000000011
20
-126.5495999999999981
11
126.1768179999999973
21
-126.6448379999999929
0
LINE
8
BLACK
6
CONTINUOUS
10
126.1768179999999973
20
-126.6448379999999929
11
125.9863409999999959
21
-126.6448379999999929
0
LINE
8
BLACK
6
CONTINUOUS
10
125.9863409999999959
20
-126.6448379999999929
11
125.7958649999999921
21
-126.5495999999999981
0
LINE
8
BLACK
6
CONTINUOUS
10
125.7958649999999921
20
-126.5495999999999981
11
125.7006269999999972
21
-126.4543609999999916
0
LINE
8
BLACK
6
CONTINUOUS
10
125.7006269999999972
20
-126.4543609999999916
11
125.6053889999999882
21
-126.2638849999999877
0
LINE
8
BLACK
6
CONTINUOUS
10
125.6053889999999882
20
-126.2638849999999877
11
125.5101509999999934
21
-125.8829329999999942
0
LINE
8
BLACK
6
CONTINUOUS
10
125.5101509999999934
20
-125.8829329999999942
11
125.5101509999999934
21
-125.4067419999999942
0
LINE
8
BLACK
6
CONTINUOUS
10
125.5101509999999934
20
-125.4067419999999942
11
125.6053889999999882
21
-125.0257900000000006
0
LINE
8
BLACK
6
CONTINUOUS
10
125.6053889999999882
20
-125.0257900000000006
11
125.7006269999999972
21
-124.8353139999999968
0
LINE
8
BLACK
6
CONTINUOUS
10
125.7006269999999972
20
-124.8353139999999968
11
125.7958649999999921
21
-124.7400759999999877
0
LINE
8
BLACK
6
CONTINUOUS
10
125.7958649999999921
20
-124.7400759999999877
11
125.9863409999999959
21
-124.6448379999999929
0
LINE
8
BLACK
6
CONTINUOUS
10
127.5101509999999934
20
-126.4543609999999916
11
127.6053889999999882
21
-126.5495999999999981
0
LINE
8
BLACK
6
CONTINUOUS
10
127.6053889999999882
20
-126.5495999999999981
11
127.5101509999999934
21
-126.6448379999999929
0
LINE
8
BLACK
6
CONTINUOUS
10
127.5101509999999934
20
-126.6448379999999929
11
127.4149129999999985
21
-126.5495999999999981
0
LINE
8
BLACK
6
CONTINUOUS
10
127.4149129999999985
20
-126.5495999999999981
11
127.5101509999999934
21
-126.4543609999999916
0
LINE
8
BLACK
6
CONTINUOUS
10
127.5101509999999934
20
-126.4543609999999916
11
127.5101509999999934
21
-126.6448379999999929
0
LINE
8
BLACK
6
CONTINUOUS
10
128.8434839999999895
20
-124.6448379999999929
11
129.033961000000005
21
-124.6448379999999929
0
LINE
8
BLACK
6
CONTINUOUS
10
129.033961000000005
20
-124.6448379999999929
11
129.2244369999999947
21
-124.7400759999999877
0
LINE
8
BLACK
6
CONTINUOUS
10
129.2244369999999947
20
-124.7400759999999877
11
129.3196749999999895
21
-124.8353139999999968
0
LINE
8
BLACK
6
CONTINUOUS
10
129.3196749999999895
20
-124.8353139999999968
11
129.4149129999999843
21
-125.0257900000000006
0
LINE
8
BLACK
6
CONTINUOUS
10
129.4149129999999843
20
-125.0257900000000006
11
129.5101510000000076
21
-125.4067419999999942
0
LINE
8
BLACK
6
CONTINUOUS
10
129.5101510000000076
20
-125.4067419999999942
11
129.5101510000000076
21
-125.8829329999999942
0
LINE
8
BLACK
6
CONTINUOUS
10
129.5101510000000076
20
-125.8829329999999942
11
129.4149129999999843
21
-126.2638849999999877
0
LINE
8
BLACK
6
CONTINUOUS
10
129.4149129999999843
20
-126.2638849999999877
11
129.3196749999999895
21
-126.4543609999999916
0
LINE
8
BLACK
6
CONTINUOUS
10
129.3196749999999895
20
-126.4543609999999916
11
129.2244369999999947
21
-126.5495999999999981
0
LINE
8
BLACK
6
CONTINUOUS
10
129.2244369999999947
20
-126.5495999999999981
11
129.033961000000005
21
-126.6448379999999929
0
LINE
8
BLACK
6
CONTINUOUS
10
129.033961000000005
20
-126.6448379999999929
11
128.8434839999999895
21
-126.6448379999999929
0
LINE
8
BLACK
6
CONTINUOUS
10
128.8434839999999895
20
-126.6448379999999929
11
128.6530079999999998
21
-126.5495999999999981
0
LINE
8
BLACK
6
CONTINUOUS
10
128.6530079999999998
20
-126.5495999999999981
11
128.557770000000005
21
-126.4543609999999916
0
LINE
8
BLACK
6
CONTINUOUS
10
128.557770000000005
20
-126.4543609999999916
11
128.4625319999999817
21
-126.2638849999999877
0
LINE
8
BLACK
6
CONTINUOUS
10
128.4625319999999817
20
-126.2638849999999877
11
128.3672939999999869
21
-125.8829329999999942
0
LINE
8
BLACK
6
CONTINUOUS
10
128.3672939999999869
20
-125.8829329999999942
11
128.3672939999999869
21
-125.4067419999999942
0
LINE
8
BLACK
6
CONTINUOUS
10
128.3672939999999869
20
-125.4067419999999942
11
128.4625319999999817
21
-125.0257900000000006
0
LINE
8
BLACK
6
CONTINUOUS
10
128.4625319999999817
20
-125.0257900000000006
11
128.557770000000005
21
-124.8353139999999968
0
LINE
8
BLACK
6
CONTINUOUS
10
128.557770000000005
20
-124.8353139999999968
11
128.6530079999999998
21
-124.7400759999999877
0
LINE
8
BLACK
6
CONTINUOUS
10
128.6530079999999998
20
-124.7400759999999877
11
128.8434839999999895
21
-124.6448379999999929
0
LINE
8
BLACK
6
CONTINUOUS
10
130.1768179999999973
20
-124.6448379999999929
11
131.4149129999999843
21
-124.6448379999999929
0
LINE
8
BLACK
6
CONTINUOUS
10
131.4149129999999843
20
-124.6448379999999929
11
130.7482459999999946
21
-125.4067419999999942
0
LINE
8
BLACK
6
CONTINUOUS
10
130.7482459999999946
20
-125.4067419999999942
11
131.033961000000005
21
-125.4067419999999942
0
LINE
8
BLACK
6
CONTINUOUS
10
131.033961000000005
20
-125.4067419999999942
11
131.2244369999999947
21
-125.501979999999989
0
LINE
8
BLACK
6
CONTINUOUS
10
131.2244369999999947
20
-125.501979999999989
11
131.3196749999999895
21
-125.5972189999999955
0
LINE
8
BLACK
6
CONTINUOUS
10
131.3196749999999895
20
-125.5972189999999955
11
131.4149129999999843
21
-125.7876949999999994
0
LINE
8
BLACK
6
CONTINUOUS
10
131.4149129999999843
20
-125.7876949999999994
11
131.4149129999999843
21
-126.2638849999999877
0
LINE
8
BLACK
6
CONTINUOUS
10
131.4149129999999843
20
-126.2638849999999877
11
131.3196749999999895
21
-126.4543609999999916
0
LINE
8
BLACK
6
CONTINUOUS
10
131.3196749999999895
20
-126.4543609999999916
11
131.2244369999999947
21
-126.5495999999999981
0
LINE
8
BLACK
6
CONTINUOUS
10
131.2244369999999947
20
-126.5495999999999981
11
131.033961000000005
21
-126.6448379999999929
0
LINE
8
BLACK
6
CONTINUOUS
10
131.033961000000005
20
-126.6448379999999929
11
130.4625319999999817
21
-126.6448379999999929
0
LINE
8
BLACK
6
CONTINUOUS
10
130.4625319999999817
20
-126.6448379999999929
11
130.2720559999999921
21
-126.5495999999999981
0
LINE
8
BLACK
6
CONTINUOUS
10
130.2720559999999921
20
-126.5495999999999981
11
130.1768179999999973
21
-126.4543609999999916
0
LINE
8
BLACK
6
CONTINUOUS
10
132.3672939999999869
20
-126.6448379999999929
11
132.7482459999999946
21
-126.6448379999999929
0
LINE
8
BLACK
6
CONTINUOUS
10
132.7482459999999946
20
-126.6448379999999929
11
132.9387229999999818
21
-126.5495999999999981
0
LINE
8
BLACK
6
CONTINUOUS
10
132.9387229999999818
20
-126.5495999999999981
11
133.033961000000005
21
-126.4543609999999916
0
LINE
8
BLACK
6
CONTINUOUS
10
133.033961000000005
20
-126.4543609999999916
11
133.2244369999999947
21
-126.1686469999999929
0
LINE
8
BLACK
6
CONTINUOUS
10
133.2244369999999947
20
-126.1686469999999929
11
133.3196749999999895
21
-125.7876949999999994
0
LINE
8
BLACK
6
CONTINUOUS
10
133.3196749999999895
20
-125.7876949999999994
11
133.3196749999999895
21
-125.0257900000000006
0
LINE
8
BLACK
6
CONTINUOUS
10
133.3196749999999895
20
-125.0257900000000006
11
133.2244369999999947
21
-124.8353139999999968
0
LINE
8
BLACK
6
CONTINUOUS
10
133.2244369999999947
20
-124.8353139999999968
11
133.1291989999999998
21
-124.7400759999999877
0
LINE
8
BLACK
6
CONTINUOUS
10
133.1291989999999998
20
-124.7400759999999877
11
132.9387229999999818
21
-124.6448379999999929
0
LINE
8
BLACK
6
CONTINUOUS
10
132.9387229999999818
20
-124.6448379999999929
11
132.557770000000005
21
-124.6448379999999929
0
LINE
8
BLACK
6
CONTINUOUS
10
132.557770000000005
20
-124.6448379999999929
11
132.3672939999999869
21
-124.7400759999999877
0
LINE
8
BLACK
6
CONTINUOUS
10
132.3672939999999869
20
-124.7400759999999877
11
132.2720559999999921
21
-124.8353139999999968
0
LINE
8
BLACK
6
CONTINUOUS
10
132.2720559999999921
20
-124.8353139999999968
11
132.1768179999999973
21
-125.0257900000000006
0
LINE
8
BLACK
6
CONTINUOUS
10
132.1768179999999973
20
-125.0257900000000006
11
132.1768179999999973
21
-125.501979999999989
0
LINE
8
BLACK
6
CONTINUOUS
10
132.1768179999999973
20
-125.501979999999989
11
132.2720559999999921
21
-125.6924569999999903
0
LINE
8
BLACK
6
CONTINUOUS
10
132.2720559999999921
20
-125.6924569999999903
11
132.3672939999999869
21
-125.7876949999999994
0
LINE
8
BLACK
6
CONTINUOUS
10
132.3672939999999869
20
-125.7876949999999994
11
132.557770000000005
21
-125.8829329999999942
0
LINE
8
BLACK
6
CONTINUOUS
10
132.557770000000005
20
-125.8829329999999942
11
132.9387229999999818
21
-125.8829329999999942
0
LINE
8
BLACK
6
CONTINUOUS
10
132.9387229999999818
20
-125.8829329999999942
11
133.1291989999999998
21
-125.7876949999999994
0
LINE
8
BLACK
6
CONTINUOUS
10
133.1291989999999998
20
-125.7876949999999994
11
133.2244369999999947
21
-125.6924569999999903
0
LINE
8
BLACK
6
CONTINUOUS
10
133.2244369999999947
20
-125.6924569999999903
11
133.3196749999999895
21
-125.501979999999989
0
LINE
8
BLACK
6
CONTINUOUS
10
135.033961000000005
20
-125.3115039999999993
11
135.033961000000005
21
-126.6448379999999929
0
LINE
8
BLACK
6
CONTINUOUS
10
134.557770000000005
20
-124.5495999999999981
11
134.0815800000000024
21
-125.978170999999989
0
LINE
8
BLACK
6
CONTINUOUS
10
134.0815800000000024
20
-125.978170999999989
11
135.3196749999999895
21
-125.978170999999989
0
LINE
8
BLACK
6
CONTINUOUS
10
135.9863420000000076
20
-124.6448379999999929
11
135.9863420000000076
21
-125.0257900000000006
0
LINE
8
BLACK
6
CONTINUOUS
10
136.7482469999999921
20
-124.6448379999999929
11
136.7482469999999921
21
-125.0257900000000006
0
LINE
8
BLACK
6
CONTINUOUS
10
139.7006289999999922
20
-127.4067419999999942
11
139.6053899999999999
21
-127.3115039999999993
0
LINE
8
BLACK
6
CONTINUOUS
10
139.6053899999999999
20
-127.3115039999999993
11
139.4149139999999818
21
-127.0257900000000006
0
LINE
8
BLACK
6
CONTINUOUS
10
139.4149139999999818
20
-127.0257900000000006
11
139.319675999999987
21
-126.8353139999999968
0
LINE
8
BLACK
6
CONTINUOUS
10
139.319675999999987
20
-126.8353139999999968
11
139.2244379999999921
21
-126.5495999999999981
0
LINE
8
BLACK
6
CONTINUOUS
10
139.2244379999999921
20
-126.5495999999999981
11
139.1291999999999973
21
-126.0734089999999981
0
LINE
8
BLACK
6
CONTINUOUS
10
139.1291999999999973
20
-126.0734089999999981
11
139.1291999999999973
21
-125.6924569999999903
0
LINE
8
BLACK
6
CONTINUOUS
10
139.1291999999999973
20
-125.6924569999999903
11
139.2244379999999921
21
-125.2162659999999903
0
LINE
8
BLACK
6
CONTINUOUS
10
139.2244379999999921
20
-125.2162659999999903
11
139.319675999999987
21
-124.9305519999999916
0
LINE
8
BLACK
6
CONTINUOUS
10
139.319675999999987
20
-124.9305519999999916
11
139.4149139999999818
21
-124.7400759999999877
0
LINE
8
BLACK
6
CONTINUOUS
10
139.4149139999999818
20
-124.7400759999999877
11
139.6053899999999999
21
-124.4543609999999916
0
LINE
8
BLACK
6
CONTINUOUS
10
139.6053899999999999
20
-124.4543609999999916
11
139.7006289999999922
21
-124.3591229999999968
0
LINE
8
BLACK
6
CONTINUOUS
10
141.319675999999987
20
-124.6448379999999929
11
140.9387229999999818
21
-124.6448379999999929
0
LINE
8
BLACK
6
CONTINUOUS
10
140.9387229999999818
20
-124.6448379999999929
11
140.7482469999999921
21
-124.7400759999999877
0
LINE
8
BLACK
6
CONTINUOUS
10
140.7482469999999921
20
-124.7400759999999877
11
140.6530089999999973
21
-124.8353139999999968
0
LINE
8
BLACK
6
CONTINUOUS
10
140.6530089999999973
20
-124.8353139999999968
11
140.4625330000000076
21
-125.1210279999999955
0
LINE
8
BLACK
6
CONTINUOUS
10
140.4625330000000076
20
-125.1210279999999955
11
140.3672949999999844
21
-125.501979999999989
0
LINE
8
BLACK
6
CONTINUOUS
10
140.3672949999999844
20
-125.501979999999989
11
140.3672949999999844
21
-126.2638849999999877
0
LINE
8
BLACK
6
CONTINUOUS
10
140.3672949999999844
20
-126.2638849999999877
11
140.4625330000000076
21
-126.4543609999999916
0
LINE
8
BLACK
6
CONTINUOUS
10
140.4625330000000076
20
-126.4543609999999916
11
140.5577710000000025
21
-126.5495999999999981
0
LINE
8
BLACK
6
CONTINUOUS
10
140.5577710000000025
20
-126.5495999999999981
11
140.7482469999999921
21
-126.6448379999999929
0
LINE
8
BLACK
6
CONTINUOUS
10
140.7482469999999921
20
-126.6448379999999929
11
141.1291999999999973
21
-126.6448379999999929
0
LINE
8
BLACK
6
CONTINUOUS
10
141.1291999999999973
20
-126.6448379999999929
11
141.319675999999987
21
-126.5495999999999981
0
LINE
8
BLACK
6
CONTINUOUS
10
141.319675999999987
20
-126.5495999999999981
11
141.4149139999999818
21
-126.4543609999999916
0
LINE
8
BLACK
6
CONTINUOUS
10
141.4149139999999818
20
-126.4543609999999916
11
141.510152000000005
21
-126.2638849999999877
0
LINE
8
BLACK
6
CONTINUOUS
10
141.510152000000005
20
-126.2638849999999877
11
141.510152000000005
21
-125.7876949999999994
0
LINE
8
BLACK
6
CONTINUOUS
10
141.510152000000005
20
-125.7876949999999994
11
141.4149139999999818
21
-125.5972189999999955
0
LINE
8
BLACK
6
CONTINUOUS
10
141.4149139999999818
20
-125.5972189999999955
11
141.319675999999987
21
-125.501979999999989
0
LINE
8
BLACK
6
CONTINUOUS
10
141.319675999999987
20
-125.501979999999989
11
141.1291999999999973
21
-125.4067419999999942
0
LINE
8
BLACK
6
CONTINUOUS
10
141.1291999999999973
20
-125.4067419999999942
11
140.7482469999999921
21
-125.4067419999999942
0
LINE
8
BLACK
6
CONTINUOUS
10
140.7482469999999921
20
-125.4067419999999942
11
140.5577710000000025
21
-125.501979999999989
0
LINE
8
BLACK
6
CONTINUOUS
10
140.5577710000000025
20
-125.501979999999989
11
140.4625330000000076
21
-125.5972189999999955
0
LINE
8
BLACK
6
CONTINUOUS
10
140.4625330000000076
20
-125.5972189999999955
11
140.3672949999999844
21
-125.7876949999999994
0
LINE
8
BLACK
6
CONTINUOUS
10
143.8911049999999818
20
-126.6448379999999929
11
143.8911049999999818
21
-124.6448379999999929
0
LINE
8
BLACK
6
CONTINUOUS
10
144.7482479999999896
20
-126.6448379999999929
11
144.7482479999999896
21
-125.5972189999999955
0
LINE
8
BLACK
6
CONTINUOUS
10
144.7482479999999896
20
-125.5972189999999955
11
144.6530099999999948
21
-125.4067419999999942
0
LINE
8
BLACK
6
CONTINUOUS
10
144.6530099999999948
20
-125.4067419999999942
11
144.4625340000000051
21
-125.3115039999999993
0
LINE
8
BLACK
6
CONTINUOUS
10
144.4625340000000051
20
-125.3115039999999993
11
144.1768189999999947
21
-125.3115039999999993
0
LINE
8
BLACK
6
CONTINUOUS
10
144.1768189999999947
20
-125.3115039999999993
11
143.9863430000000051
21
-125.4067419999999942
0
LINE
8
BLACK
6
CONTINUOUS
10
143.9863430000000051
20
-125.4067419999999942
11
143.8911049999999818
21
-125.501979999999989
0
LINE
8
BLACK
6
CONTINUOUS
10
145.9863430000000051
20
-126.6448379999999929
11
145.795866999999987
21
-126.5495999999999981
0
LINE
8
BLACK
6
CONTINUOUS
10
145.795866999999987
20
-126.5495999999999981
11
145.7006289999999922
21
-126.4543609999999916
0
LINE
8
BLACK
6
CONTINUOUS
10
145.7006289999999922
20
-126.4543609999999916
11
145.6053909999999973
21
-126.2638849999999877
0
LINE
8
BLACK
6
CONTINUOUS
10
145.6053909999999973
20
-126.2638849999999877
11
145.6053909999999973
21
-125.6924569999999903
0
LINE
8
BLACK
6
CONTINUOUS
10
145.6053909999999973
20
-125.6924569999999903
11
145.7006289999999922
21
-125.501979999999989
0
LINE
8
BLACK
6
CONTINUOUS
10
145.7006289999999922
20
-125.501979999999989
11
145.795866999999987
21
-125.4067419999999942
0
LINE
8
BLACK
6
CONTINUOUS
10
145.795866999999987
20
-125.4067419999999942
11
145.9863430000000051
21
-125.3115039999999993
0
LINE
8
BLACK
6
CONTINUOUS
10
145.9863430000000051
20
-125.3115039999999993
11
146.272057999999987
21
-125.3115039999999993
0
LINE
8
BLACK
6
CONTINUOUS
10
146.272057999999987
20
-125.3115039999999993
11
146.4625340000000051
21
-125.4067419999999942
0
LINE
8
BLACK
6
CONTINUOUS
10
146.4625340000000051
20
-125.4067419999999942
11
146.5577719999999999
21
-125.501979999999989
0
LINE
8
BLACK
6
CONTINUOUS
10
146.5577719999999999
20
-125.501979999999989
11
146.6530099999999948
21
-125.6924569999999903
0
LINE
8
BLACK
6
CONTINUOUS
10
146.6530099999999948
20
-125.6924569999999903
11
146.6530099999999948
21
-126.2638849999999877
0
LINE
8
BLACK
6
CONTINUOUS
10
146.6530099999999948
20
-126.2638849999999877
11
146.5577719999999999
21
-126.4543609999999916
0
LINE
8
BLACK
6
CONTINUOUS
10
146.5577719999999999
20
-126.4543609999999916
11
146.4625340000000051
21
-126.5495999999999981
0
LINE
8
BLACK
6
CONTINUOUS
10
146.4625340000000051
20
-126.5495999999999981
11
146.272057999999987
21
-126.6448379999999929
0
LINE
8
BLACK
6
CONTINUOUS
10
146.272057999999987
20
-126.6448379999999929
11
145.9863430000000051
21
-126.6448379999999929
0
LINE
8
BLACK
6
CONTINUOUS
10
147.795866999999987
20
-126.6448379999999929
11
147.6053909999999973
21
-126.5495999999999981
0
LINE
8
BLACK
6
CONTINUOUS
10
147.6053909999999973
20
-126.5495999999999981
11
147.5101530000000025
21
-126.3591229999999968
0
LINE
8
BLACK
6
CONTINUOUS
10
147.5101530000000025
20
-126.3591229999999968
11
147.5101530000000025
21
-124.6448379999999929
0
LINE
8
BLACK
6
CONTINUOUS
10
149.3196769999999844
20
-126.5495999999999981
11
149.1292009999999948
21
-126.6448379999999929
0
LINE
8
BLACK
6
CONTINUOUS
10
149.1292009999999948
20
-126.6448379999999929
11
148.7482479999999896
21
-126.6448379999999929
0
LINE
8
BLACK
6
CONTINUOUS
10
148.7482479999999896
20
-126.6448379999999929
11
148.5577719999999999
21
-126.5495999999999981
0
LINE
8
BLACK
6
CONTINUOUS
10
148.5577719999999999
20
-126.5495999999999981
11
148.4625340000000051
21
-126.3591229999999968
0
LINE
8
BLACK
6
CONTINUOUS
10
148.4625340000000051
20
-126.3591229999999968
11
148.4625340000000051
21
-125.5972189999999955
0
LINE
8
BLACK
6
CONTINUOUS
10
148.4625340000000051
20
-125.5972189999999955
11
148.5577719999999999
21
-125.4067419999999942
0
LINE
8
BLACK
6
CONTINUOUS
10
148.5577719999999999
20
-125.4067419999999942
11
148.7482479999999896
21
-125.3115039999999993
0
LINE
8
BLACK
6
CONTINUOUS
10
148.7482479999999896
20
-125.3115039999999993
11
149.1292009999999948
21
-125.3115039999999993
0
LINE
8
BLACK
6
CONTINUOUS
10
149.1292009999999948
20
-125.3115039999999993
11
149.3196769999999844
21
-125.4067419999999942
0
LINE
8
BLACK
6
CONTINUOUS
10
149.3196769999999844
20
-125.4067419999999942
11
149.4149149999999793
21
-125.5972189999999955
0
LINE
8
BLACK
6
CONTINUOUS
10
149.4149149999999793
20
-125.5972189999999955
11
149.4149149999999793
21
-125.7876949999999994
0
LINE
8
BLACK
6
CONTINUOUS
10
149.4149149999999793
20
-125.7876949999999994
11
148.4625340000000051
21
-125.978170999999989
0
LINE
8
BLACK
6
CONTINUOUS
10
150.1768199999999922
20
-126.5495999999999981
11
150.3672959999999819
21
-126.6448379999999929
0
LINE
8
BLACK
6
CONTINUOUS
10
150.3672959999999819
20
-126.6448379999999929
11
150.7482479999999896
21
-126.6448379999999929
0
LINE
8
BLACK
6
CONTINUOUS
10
150.7482479999999896
20
-126.6448379999999929
11
150.9387250000000051
21
-126.5495999999999981
0
LINE
8
BLACK
6
CONTINUOUS
10
150.9387250000000051
20
-126.5495999999999981
11
151.033963
21
-126.3591229999999968
0
LINE
8
BLACK
6
CONTINUOUS
10
151.033963
20
-126.3591229999999968
11
151.033963
21
-126.2638849999999877
0
LINE
8
BLACK
6
CONTINUOUS
10
151.033963
20
-126.2638849999999877
11
150.9387250000000051
21
-126.0734089999999981
0
LINE
8
BLACK
6
CONTINUOUS
10
150.9387250000000051
20
-126.0734089999999981
11
150.7482479999999896
21
-125.978170999999989
0
LINE
8
BLACK
6
CONTINUOUS
10
150.7482479999999896
20
-125.978170999999989
11
150.4625340000000051
21
-125.978170999999989
0
LINE
8
BLACK
6
CONTINUOUS
10
150.4625340000000051
20
-125.978170999999989
11
150.272057999999987
21
-125.8829329999999942
0
LINE
8
BLACK
6
CONTINUOUS
10
150.272057999999987
20
-125.8829329999999942
11
150.1768199999999922
21
-125.6924569999999903
0
LINE
8
BLACK
6
CONTINUOUS
10
150.1768199999999922
20
-125.6924569999999903
11
150.1768199999999922
21
-125.5972189999999955
0
LINE
8
BLACK
6
CONTINUOUS
10
150.1768199999999922
20
-125.5972189999999955
11
150.272057999999987
21
-125.4067419999999942
0
LINE
8
BLACK
6
CONTINUOUS
10
150.272057999999987
20
-125.4067419999999942
11
150.4625340000000051
21
-125.3115039999999993
0
LINE
8
BLACK
6
CONTINUOUS
10
150.4625340000000051
20
-125.3115039999999993
11
150.7482479999999896
21
-125.3115039999999993
0
LINE
8
BLACK
6
CONTINUOUS
10
150.7482479999999896
20
-125.3115039999999993
11
150.9387250000000051
21
-125.4067419999999942
0
LINE
8
BLACK
6
CONTINUOUS
10
151.7006299999999896
20
-127.4067419999999942
11
151.7958679999999845
21
-127.3115039999999993
0
LINE
8
BLACK
6
CONTINUOUS
10
151.7958679999999845
20
-127.3115039999999993
11
151.9863440000000026
21
-127.0257900000000006
0
LINE
8
BLACK
6
CONTINUOUS
10
151.9863440000000026
20
-127.0257900000000006
11
152.0815819999999974
21
-126.8353139999999968
0
LINE
8
BLACK
6
CONTINUOUS
10
152.0815819999999974
20
-126.8353139999999968
11
152.1768199999999922
21
-126.5495999999999981
0
LINE
8
BLACK
6
CONTINUOUS
10
152.1768199999999922
20
-126.5495999999999981
11
152.272057999999987
21
-126.0734089999999981
0
LINE
8
BLACK
6
CONTINUOUS
10
152.272057999999987
20
-126.0734089999999981
11
152.272057999999987
21
-125.6924569999999903
0
LINE
8
BLACK
6
CONTINUOUS
10
152.272057999999987
20
-125.6924569999999903
11
152.1768199999999922
21
-125.2162659999999903
0
LINE
8
BLACK
6
CONTINUOUS
10
152.1768199999999922
20
-125.2162659999999903
11
152.0815819999999974
21
-124.9305519999999916
0
LINE
8
BLACK
6
CONTINUOUS
10
152.0815819999999974
20
-124.9305519999999916
11
151.9863440000000026
21
-124.7400759999999877
0
LINE
8
BLACK
6
CONTINUOUS
10
151.9863440000000026
20
-124.7400759999999877
11
151.7958679999999845
21
-124.4543609999999916
0
LINE
8
BLACK
6
CONTINUOUS
10
151.7958679999999845
20
-124.4543609999999916
11
151.7006299999999896
21
-124.3591229999999968
  0
ENDSEC
  0
EOF
