M48
; DRILL file {KiCad 7.0.9} date Sat Aug 10 11:55:20 2024
; FORMAT={3:3/ absolute / metric / suppress trailing zeros}
; #@! TF.CreationDate,2024-08-10T11:55:20+09:00
; #@! TF.GenerationSoftware,Kicad,Pcbnew,7.0.9
; #@! TF.FileFunction,MixedPlating,1,2
FMAT,2
METRIC,LZ
; #@! TA.AperFunction,Plated,PTH,ComponentDrill
T1C0.700
; #@! TA.AperFunction,Plated,PTH,ComponentDrill
T2C0.900
; #@! TA.AperFunction,Plated,PTH,ComponentDrill
T3C1.000
%
G90
G05
T1
X11741Y-08757
X11741Y-09519
X12757Y-08757
X12757Y-09519
X13773Y-08757
X13773Y-09519
X14789Y-08757
X14789Y-09519
X15805Y-08757
X15805Y-09519
T2
X11741Y-10027
X11741Y-10281
X12757Y-10027
X12757Y-10281
X13773Y-10027
X13773Y-10281
X14789Y-10027
X14789Y-10281
X15805Y-10027
X15805Y-10281
T3
X16567Y-09011
X16567Y-09265
X16567Y-09519
X16567Y-10027
X16567Y-10281
X16567Y-10535
T0
M30
