%TF.GenerationSoftware,KiCad,Pcbnew,7.0.9*%
%TF.CreationDate,2024-08-10T11:55:06+09:00*%
%TF.ProjectId,LEDboard,4c454462-6f61-4726-942e-6b696361645f,rev?*%
%TF.SameCoordinates,Original*%
%TF.FileFunction,Legend,Top*%
%TF.FilePolarity,Positive*%
%FSLAX46Y46*%
G04 Gerber Fmt 4.6, Leading zero omitted, Abs format (unit mm)*
G04 Created by KiCad (PCBNEW 7.0.9) date 2024-08-10 11:55:06*
%MOMM*%
%LPD*%
G01*
G04 APERTURE LIST*
%ADD10C,0.150000*%
%ADD11C,0.120000*%
G04 APERTURE END LIST*
D10*
X159976779Y-103869819D02*
X159976779Y-102869819D01*
X160548207Y-103869819D02*
X160119636Y-103298390D01*
X160548207Y-102869819D02*
X159976779Y-103441247D01*
X149816779Y-103869819D02*
X149816779Y-102869819D01*
X150388207Y-103869819D02*
X149959636Y-103298390D01*
X150388207Y-102869819D02*
X149816779Y-103441247D01*
X139656779Y-103869819D02*
X139656779Y-102869819D01*
X140228207Y-103869819D02*
X139799636Y-103298390D01*
X140228207Y-102869819D02*
X139656779Y-103441247D01*
X129496779Y-103869819D02*
X129496779Y-102869819D01*
X130068207Y-103869819D02*
X129639636Y-103298390D01*
X130068207Y-102869819D02*
X129496779Y-103441247D01*
X119336779Y-103869819D02*
X119336779Y-102869819D01*
X119908207Y-103869819D02*
X119479636Y-103298390D01*
X119908207Y-102869819D02*
X119336779Y-103441247D01*
X162187030Y-105804819D02*
X162187030Y-104804819D01*
X162187030Y-104804819D02*
X162425125Y-104804819D01*
X162425125Y-104804819D02*
X162567982Y-104852438D01*
X162567982Y-104852438D02*
X162663220Y-104947676D01*
X162663220Y-104947676D02*
X162710839Y-105042914D01*
X162710839Y-105042914D02*
X162758458Y-105233390D01*
X162758458Y-105233390D02*
X162758458Y-105376247D01*
X162758458Y-105376247D02*
X162710839Y-105566723D01*
X162710839Y-105566723D02*
X162663220Y-105661961D01*
X162663220Y-105661961D02*
X162567982Y-105757200D01*
X162567982Y-105757200D02*
X162425125Y-105804819D01*
X162425125Y-105804819D02*
X162187030Y-105804819D01*
X163663220Y-104804819D02*
X163187030Y-104804819D01*
X163187030Y-104804819D02*
X163139411Y-105281009D01*
X163139411Y-105281009D02*
X163187030Y-105233390D01*
X163187030Y-105233390D02*
X163282268Y-105185771D01*
X163282268Y-105185771D02*
X163520363Y-105185771D01*
X163520363Y-105185771D02*
X163615601Y-105233390D01*
X163615601Y-105233390D02*
X163663220Y-105281009D01*
X163663220Y-105281009D02*
X163710839Y-105376247D01*
X163710839Y-105376247D02*
X163710839Y-105614342D01*
X163710839Y-105614342D02*
X163663220Y-105709580D01*
X163663220Y-105709580D02*
X163615601Y-105757200D01*
X163615601Y-105757200D02*
X163520363Y-105804819D01*
X163520363Y-105804819D02*
X163282268Y-105804819D01*
X163282268Y-105804819D02*
X163187030Y-105757200D01*
X163187030Y-105757200D02*
X163139411Y-105709580D01*
X162187030Y-103264819D02*
X162187030Y-102264819D01*
X162187030Y-102264819D02*
X162425125Y-102264819D01*
X162425125Y-102264819D02*
X162567982Y-102312438D01*
X162567982Y-102312438D02*
X162663220Y-102407676D01*
X162663220Y-102407676D02*
X162710839Y-102502914D01*
X162710839Y-102502914D02*
X162758458Y-102693390D01*
X162758458Y-102693390D02*
X162758458Y-102836247D01*
X162758458Y-102836247D02*
X162710839Y-103026723D01*
X162710839Y-103026723D02*
X162663220Y-103121961D01*
X162663220Y-103121961D02*
X162567982Y-103217200D01*
X162567982Y-103217200D02*
X162425125Y-103264819D01*
X162425125Y-103264819D02*
X162187030Y-103264819D01*
X163615601Y-102598152D02*
X163615601Y-103264819D01*
X163377506Y-102217200D02*
X163139411Y-102931485D01*
X163139411Y-102931485D02*
X163758458Y-102931485D01*
X162187030Y-100724819D02*
X162187030Y-99724819D01*
X162187030Y-99724819D02*
X162425125Y-99724819D01*
X162425125Y-99724819D02*
X162567982Y-99772438D01*
X162567982Y-99772438D02*
X162663220Y-99867676D01*
X162663220Y-99867676D02*
X162710839Y-99962914D01*
X162710839Y-99962914D02*
X162758458Y-100153390D01*
X162758458Y-100153390D02*
X162758458Y-100296247D01*
X162758458Y-100296247D02*
X162710839Y-100486723D01*
X162710839Y-100486723D02*
X162663220Y-100581961D01*
X162663220Y-100581961D02*
X162567982Y-100677200D01*
X162567982Y-100677200D02*
X162425125Y-100724819D01*
X162425125Y-100724819D02*
X162187030Y-100724819D01*
X163091792Y-99724819D02*
X163710839Y-99724819D01*
X163710839Y-99724819D02*
X163377506Y-100105771D01*
X163377506Y-100105771D02*
X163520363Y-100105771D01*
X163520363Y-100105771D02*
X163615601Y-100153390D01*
X163615601Y-100153390D02*
X163663220Y-100201009D01*
X163663220Y-100201009D02*
X163710839Y-100296247D01*
X163710839Y-100296247D02*
X163710839Y-100534342D01*
X163710839Y-100534342D02*
X163663220Y-100629580D01*
X163663220Y-100629580D02*
X163615601Y-100677200D01*
X163615601Y-100677200D02*
X163520363Y-100724819D01*
X163520363Y-100724819D02*
X163234649Y-100724819D01*
X163234649Y-100724819D02*
X163139411Y-100677200D01*
X163139411Y-100677200D02*
X163091792Y-100629580D01*
X162187030Y-95644819D02*
X162187030Y-94644819D01*
X162187030Y-94644819D02*
X162425125Y-94644819D01*
X162425125Y-94644819D02*
X162567982Y-94692438D01*
X162567982Y-94692438D02*
X162663220Y-94787676D01*
X162663220Y-94787676D02*
X162710839Y-94882914D01*
X162710839Y-94882914D02*
X162758458Y-95073390D01*
X162758458Y-95073390D02*
X162758458Y-95216247D01*
X162758458Y-95216247D02*
X162710839Y-95406723D01*
X162710839Y-95406723D02*
X162663220Y-95501961D01*
X162663220Y-95501961D02*
X162567982Y-95597200D01*
X162567982Y-95597200D02*
X162425125Y-95644819D01*
X162425125Y-95644819D02*
X162187030Y-95644819D01*
X163139411Y-94740057D02*
X163187030Y-94692438D01*
X163187030Y-94692438D02*
X163282268Y-94644819D01*
X163282268Y-94644819D02*
X163520363Y-94644819D01*
X163520363Y-94644819D02*
X163615601Y-94692438D01*
X163615601Y-94692438D02*
X163663220Y-94740057D01*
X163663220Y-94740057D02*
X163710839Y-94835295D01*
X163710839Y-94835295D02*
X163710839Y-94930533D01*
X163710839Y-94930533D02*
X163663220Y-95073390D01*
X163663220Y-95073390D02*
X163091792Y-95644819D01*
X163091792Y-95644819D02*
X163710839Y-95644819D01*
X162187030Y-93104819D02*
X162187030Y-92104819D01*
X162187030Y-92104819D02*
X162425125Y-92104819D01*
X162425125Y-92104819D02*
X162567982Y-92152438D01*
X162567982Y-92152438D02*
X162663220Y-92247676D01*
X162663220Y-92247676D02*
X162710839Y-92342914D01*
X162710839Y-92342914D02*
X162758458Y-92533390D01*
X162758458Y-92533390D02*
X162758458Y-92676247D01*
X162758458Y-92676247D02*
X162710839Y-92866723D01*
X162710839Y-92866723D02*
X162663220Y-92961961D01*
X162663220Y-92961961D02*
X162567982Y-93057200D01*
X162567982Y-93057200D02*
X162425125Y-93104819D01*
X162425125Y-93104819D02*
X162187030Y-93104819D01*
X163710839Y-93104819D02*
X163139411Y-93104819D01*
X163425125Y-93104819D02*
X163425125Y-92104819D01*
X163425125Y-92104819D02*
X163329887Y-92247676D01*
X163329887Y-92247676D02*
X163234649Y-92342914D01*
X163234649Y-92342914D02*
X163139411Y-92390533D01*
X161329887Y-89660057D02*
X161377506Y-89612438D01*
X161377506Y-89612438D02*
X161472744Y-89564819D01*
X161472744Y-89564819D02*
X161710839Y-89564819D01*
X161710839Y-89564819D02*
X161806077Y-89612438D01*
X161806077Y-89612438D02*
X161853696Y-89660057D01*
X161853696Y-89660057D02*
X161901315Y-89755295D01*
X161901315Y-89755295D02*
X161901315Y-89850533D01*
X161901315Y-89850533D02*
X161853696Y-89993390D01*
X161853696Y-89993390D02*
X161282268Y-90564819D01*
X161282268Y-90564819D02*
X161901315Y-90564819D01*
X162758458Y-89898152D02*
X162758458Y-90564819D01*
X162520363Y-89517200D02*
X162282268Y-90231485D01*
X162282268Y-90231485D02*
X162901315Y-90231485D01*
X163139411Y-89564819D02*
X163472744Y-90564819D01*
X163472744Y-90564819D02*
X163806077Y-89564819D01*
X110812969Y-109759819D02*
X110336779Y-109759819D01*
X110336779Y-109759819D02*
X110336779Y-108759819D01*
X111146303Y-109236009D02*
X111479636Y-109236009D01*
X111622493Y-109759819D02*
X111146303Y-109759819D01*
X111146303Y-109759819D02*
X111146303Y-108759819D01*
X111146303Y-108759819D02*
X111622493Y-108759819D01*
X112051065Y-109759819D02*
X112051065Y-108759819D01*
X112051065Y-108759819D02*
X112289160Y-108759819D01*
X112289160Y-108759819D02*
X112432017Y-108807438D01*
X112432017Y-108807438D02*
X112527255Y-108902676D01*
X112527255Y-108902676D02*
X112574874Y-108997914D01*
X112574874Y-108997914D02*
X112622493Y-109188390D01*
X112622493Y-109188390D02*
X112622493Y-109331247D01*
X112622493Y-109331247D02*
X112574874Y-109521723D01*
X112574874Y-109521723D02*
X112527255Y-109616961D01*
X112527255Y-109616961D02*
X112432017Y-109712200D01*
X112432017Y-109712200D02*
X112289160Y-109759819D01*
X112289160Y-109759819D02*
X112051065Y-109759819D01*
X113812970Y-109759819D02*
X113812970Y-108759819D01*
X113812970Y-109140771D02*
X113908208Y-109093152D01*
X113908208Y-109093152D02*
X114098684Y-109093152D01*
X114098684Y-109093152D02*
X114193922Y-109140771D01*
X114193922Y-109140771D02*
X114241541Y-109188390D01*
X114241541Y-109188390D02*
X114289160Y-109283628D01*
X114289160Y-109283628D02*
X114289160Y-109569342D01*
X114289160Y-109569342D02*
X114241541Y-109664580D01*
X114241541Y-109664580D02*
X114193922Y-109712200D01*
X114193922Y-109712200D02*
X114098684Y-109759819D01*
X114098684Y-109759819D02*
X113908208Y-109759819D01*
X113908208Y-109759819D02*
X113812970Y-109712200D01*
X114860589Y-109759819D02*
X114765351Y-109712200D01*
X114765351Y-109712200D02*
X114717732Y-109664580D01*
X114717732Y-109664580D02*
X114670113Y-109569342D01*
X114670113Y-109569342D02*
X114670113Y-109283628D01*
X114670113Y-109283628D02*
X114717732Y-109188390D01*
X114717732Y-109188390D02*
X114765351Y-109140771D01*
X114765351Y-109140771D02*
X114860589Y-109093152D01*
X114860589Y-109093152D02*
X115003446Y-109093152D01*
X115003446Y-109093152D02*
X115098684Y-109140771D01*
X115098684Y-109140771D02*
X115146303Y-109188390D01*
X115146303Y-109188390D02*
X115193922Y-109283628D01*
X115193922Y-109283628D02*
X115193922Y-109569342D01*
X115193922Y-109569342D02*
X115146303Y-109664580D01*
X115146303Y-109664580D02*
X115098684Y-109712200D01*
X115098684Y-109712200D02*
X115003446Y-109759819D01*
X115003446Y-109759819D02*
X114860589Y-109759819D01*
X116051065Y-109759819D02*
X116051065Y-109236009D01*
X116051065Y-109236009D02*
X116003446Y-109140771D01*
X116003446Y-109140771D02*
X115908208Y-109093152D01*
X115908208Y-109093152D02*
X115717732Y-109093152D01*
X115717732Y-109093152D02*
X115622494Y-109140771D01*
X116051065Y-109712200D02*
X115955827Y-109759819D01*
X115955827Y-109759819D02*
X115717732Y-109759819D01*
X115717732Y-109759819D02*
X115622494Y-109712200D01*
X115622494Y-109712200D02*
X115574875Y-109616961D01*
X115574875Y-109616961D02*
X115574875Y-109521723D01*
X115574875Y-109521723D02*
X115622494Y-109426485D01*
X115622494Y-109426485D02*
X115717732Y-109378866D01*
X115717732Y-109378866D02*
X115955827Y-109378866D01*
X115955827Y-109378866D02*
X116051065Y-109331247D01*
X116527256Y-109759819D02*
X116527256Y-109093152D01*
X116527256Y-109283628D02*
X116574875Y-109188390D01*
X116574875Y-109188390D02*
X116622494Y-109140771D01*
X116622494Y-109140771D02*
X116717732Y-109093152D01*
X116717732Y-109093152D02*
X116812970Y-109093152D01*
X117574875Y-109759819D02*
X117574875Y-108759819D01*
X117574875Y-109712200D02*
X117479637Y-109759819D01*
X117479637Y-109759819D02*
X117289161Y-109759819D01*
X117289161Y-109759819D02*
X117193923Y-109712200D01*
X117193923Y-109712200D02*
X117146304Y-109664580D01*
X117146304Y-109664580D02*
X117098685Y-109569342D01*
X117098685Y-109569342D02*
X117098685Y-109283628D01*
X117098685Y-109283628D02*
X117146304Y-109188390D01*
X117146304Y-109188390D02*
X117193923Y-109140771D01*
X117193923Y-109140771D02*
X117289161Y-109093152D01*
X117289161Y-109093152D02*
X117479637Y-109093152D01*
X117479637Y-109093152D02*
X117574875Y-109140771D01*
X118717733Y-109093152D02*
X118955828Y-109759819D01*
X118955828Y-109759819D02*
X119193923Y-109093152D01*
X119955828Y-109712200D02*
X119860590Y-109759819D01*
X119860590Y-109759819D02*
X119670114Y-109759819D01*
X119670114Y-109759819D02*
X119574876Y-109712200D01*
X119574876Y-109712200D02*
X119527257Y-109616961D01*
X119527257Y-109616961D02*
X119527257Y-109236009D01*
X119527257Y-109236009D02*
X119574876Y-109140771D01*
X119574876Y-109140771D02*
X119670114Y-109093152D01*
X119670114Y-109093152D02*
X119860590Y-109093152D01*
X119860590Y-109093152D02*
X119955828Y-109140771D01*
X119955828Y-109140771D02*
X120003447Y-109236009D01*
X120003447Y-109236009D02*
X120003447Y-109331247D01*
X120003447Y-109331247D02*
X119527257Y-109426485D01*
X120432019Y-109759819D02*
X120432019Y-109093152D01*
X120432019Y-109283628D02*
X120479638Y-109188390D01*
X120479638Y-109188390D02*
X120527257Y-109140771D01*
X120527257Y-109140771D02*
X120622495Y-109093152D01*
X120622495Y-109093152D02*
X120717733Y-109093152D01*
X121051067Y-109664580D02*
X121098686Y-109712200D01*
X121098686Y-109712200D02*
X121051067Y-109759819D01*
X121051067Y-109759819D02*
X121003448Y-109712200D01*
X121003448Y-109712200D02*
X121051067Y-109664580D01*
X121051067Y-109664580D02*
X121051067Y-109759819D01*
X122051066Y-109759819D02*
X121479638Y-109759819D01*
X121765352Y-109759819D02*
X121765352Y-108759819D01*
X121765352Y-108759819D02*
X121670114Y-108902676D01*
X121670114Y-108902676D02*
X121574876Y-108997914D01*
X121574876Y-108997914D02*
X121479638Y-109045533D01*
X122479638Y-109664580D02*
X122527257Y-109712200D01*
X122527257Y-109712200D02*
X122479638Y-109759819D01*
X122479638Y-109759819D02*
X122432019Y-109712200D01*
X122432019Y-109712200D02*
X122479638Y-109664580D01*
X122479638Y-109664580D02*
X122479638Y-109759819D01*
X123146304Y-108759819D02*
X123241542Y-108759819D01*
X123241542Y-108759819D02*
X123336780Y-108807438D01*
X123336780Y-108807438D02*
X123384399Y-108855057D01*
X123384399Y-108855057D02*
X123432018Y-108950295D01*
X123432018Y-108950295D02*
X123479637Y-109140771D01*
X123479637Y-109140771D02*
X123479637Y-109378866D01*
X123479637Y-109378866D02*
X123432018Y-109569342D01*
X123432018Y-109569342D02*
X123384399Y-109664580D01*
X123384399Y-109664580D02*
X123336780Y-109712200D01*
X123336780Y-109712200D02*
X123241542Y-109759819D01*
X123241542Y-109759819D02*
X123146304Y-109759819D01*
X123146304Y-109759819D02*
X123051066Y-109712200D01*
X123051066Y-109712200D02*
X123003447Y-109664580D01*
X123003447Y-109664580D02*
X122955828Y-109569342D01*
X122955828Y-109569342D02*
X122908209Y-109378866D01*
X122908209Y-109378866D02*
X122908209Y-109140771D01*
X122908209Y-109140771D02*
X122955828Y-108950295D01*
X122955828Y-108950295D02*
X123003447Y-108855057D01*
X123003447Y-108855057D02*
X123051066Y-108807438D01*
X123051066Y-108807438D02*
X123146304Y-108759819D01*
X110336779Y-111369819D02*
X110336779Y-110369819D01*
X110765350Y-111369819D02*
X110765350Y-110846009D01*
X110765350Y-110846009D02*
X110717731Y-110750771D01*
X110717731Y-110750771D02*
X110622493Y-110703152D01*
X110622493Y-110703152D02*
X110479636Y-110703152D01*
X110479636Y-110703152D02*
X110384398Y-110750771D01*
X110384398Y-110750771D02*
X110336779Y-110798390D01*
X111098684Y-110703152D02*
X111479636Y-110703152D01*
X111241541Y-110369819D02*
X111241541Y-111226961D01*
X111241541Y-111226961D02*
X111289160Y-111322200D01*
X111289160Y-111322200D02*
X111384398Y-111369819D01*
X111384398Y-111369819D02*
X111479636Y-111369819D01*
X111670113Y-110703152D02*
X112051065Y-110703152D01*
X111812970Y-110369819D02*
X111812970Y-111226961D01*
X111812970Y-111226961D02*
X111860589Y-111322200D01*
X111860589Y-111322200D02*
X111955827Y-111369819D01*
X111955827Y-111369819D02*
X112051065Y-111369819D01*
X112384399Y-110703152D02*
X112384399Y-111703152D01*
X112384399Y-110750771D02*
X112479637Y-110703152D01*
X112479637Y-110703152D02*
X112670113Y-110703152D01*
X112670113Y-110703152D02*
X112765351Y-110750771D01*
X112765351Y-110750771D02*
X112812970Y-110798390D01*
X112812970Y-110798390D02*
X112860589Y-110893628D01*
X112860589Y-110893628D02*
X112860589Y-111179342D01*
X112860589Y-111179342D02*
X112812970Y-111274580D01*
X112812970Y-111274580D02*
X112765351Y-111322200D01*
X112765351Y-111322200D02*
X112670113Y-111369819D01*
X112670113Y-111369819D02*
X112479637Y-111369819D01*
X112479637Y-111369819D02*
X112384399Y-111322200D01*
X113241542Y-111322200D02*
X113336780Y-111369819D01*
X113336780Y-111369819D02*
X113527256Y-111369819D01*
X113527256Y-111369819D02*
X113622494Y-111322200D01*
X113622494Y-111322200D02*
X113670113Y-111226961D01*
X113670113Y-111226961D02*
X113670113Y-111179342D01*
X113670113Y-111179342D02*
X113622494Y-111084104D01*
X113622494Y-111084104D02*
X113527256Y-111036485D01*
X113527256Y-111036485D02*
X113384399Y-111036485D01*
X113384399Y-111036485D02*
X113289161Y-110988866D01*
X113289161Y-110988866D02*
X113241542Y-110893628D01*
X113241542Y-110893628D02*
X113241542Y-110846009D01*
X113241542Y-110846009D02*
X113289161Y-110750771D01*
X113289161Y-110750771D02*
X113384399Y-110703152D01*
X113384399Y-110703152D02*
X113527256Y-110703152D01*
X113527256Y-110703152D02*
X113622494Y-110750771D01*
X114098685Y-111274580D02*
X114146304Y-111322200D01*
X114146304Y-111322200D02*
X114098685Y-111369819D01*
X114098685Y-111369819D02*
X114051066Y-111322200D01*
X114051066Y-111322200D02*
X114098685Y-111274580D01*
X114098685Y-111274580D02*
X114098685Y-111369819D01*
X114098685Y-110750771D02*
X114146304Y-110798390D01*
X114146304Y-110798390D02*
X114098685Y-110846009D01*
X114098685Y-110846009D02*
X114051066Y-110798390D01*
X114051066Y-110798390D02*
X114098685Y-110750771D01*
X114098685Y-110750771D02*
X114098685Y-110846009D01*
X115289160Y-110322200D02*
X114432018Y-111607914D01*
X116336779Y-110322200D02*
X115479637Y-111607914D01*
X117098684Y-110703152D02*
X117098684Y-111512676D01*
X117098684Y-111512676D02*
X117051065Y-111607914D01*
X117051065Y-111607914D02*
X117003446Y-111655533D01*
X117003446Y-111655533D02*
X116908208Y-111703152D01*
X116908208Y-111703152D02*
X116765351Y-111703152D01*
X116765351Y-111703152D02*
X116670113Y-111655533D01*
X117098684Y-111322200D02*
X117003446Y-111369819D01*
X117003446Y-111369819D02*
X116812970Y-111369819D01*
X116812970Y-111369819D02*
X116717732Y-111322200D01*
X116717732Y-111322200D02*
X116670113Y-111274580D01*
X116670113Y-111274580D02*
X116622494Y-111179342D01*
X116622494Y-111179342D02*
X116622494Y-110893628D01*
X116622494Y-110893628D02*
X116670113Y-110798390D01*
X116670113Y-110798390D02*
X116717732Y-110750771D01*
X116717732Y-110750771D02*
X116812970Y-110703152D01*
X116812970Y-110703152D02*
X117003446Y-110703152D01*
X117003446Y-110703152D02*
X117098684Y-110750771D01*
X117574875Y-111369819D02*
X117574875Y-110703152D01*
X117574875Y-110369819D02*
X117527256Y-110417438D01*
X117527256Y-110417438D02*
X117574875Y-110465057D01*
X117574875Y-110465057D02*
X117622494Y-110417438D01*
X117622494Y-110417438D02*
X117574875Y-110369819D01*
X117574875Y-110369819D02*
X117574875Y-110465057D01*
X117908208Y-110703152D02*
X118289160Y-110703152D01*
X118051065Y-110369819D02*
X118051065Y-111226961D01*
X118051065Y-111226961D02*
X118098684Y-111322200D01*
X118098684Y-111322200D02*
X118193922Y-111369819D01*
X118193922Y-111369819D02*
X118289160Y-111369819D01*
X118622494Y-111369819D02*
X118622494Y-110369819D01*
X119051065Y-111369819D02*
X119051065Y-110846009D01*
X119051065Y-110846009D02*
X119003446Y-110750771D01*
X119003446Y-110750771D02*
X118908208Y-110703152D01*
X118908208Y-110703152D02*
X118765351Y-110703152D01*
X118765351Y-110703152D02*
X118670113Y-110750771D01*
X118670113Y-110750771D02*
X118622494Y-110798390D01*
X119955827Y-110703152D02*
X119955827Y-111369819D01*
X119527256Y-110703152D02*
X119527256Y-111226961D01*
X119527256Y-111226961D02*
X119574875Y-111322200D01*
X119574875Y-111322200D02*
X119670113Y-111369819D01*
X119670113Y-111369819D02*
X119812970Y-111369819D01*
X119812970Y-111369819D02*
X119908208Y-111322200D01*
X119908208Y-111322200D02*
X119955827Y-111274580D01*
X120432018Y-111369819D02*
X120432018Y-110369819D01*
X120432018Y-110750771D02*
X120527256Y-110703152D01*
X120527256Y-110703152D02*
X120717732Y-110703152D01*
X120717732Y-110703152D02*
X120812970Y-110750771D01*
X120812970Y-110750771D02*
X120860589Y-110798390D01*
X120860589Y-110798390D02*
X120908208Y-110893628D01*
X120908208Y-110893628D02*
X120908208Y-111179342D01*
X120908208Y-111179342D02*
X120860589Y-111274580D01*
X120860589Y-111274580D02*
X120812970Y-111322200D01*
X120812970Y-111322200D02*
X120717732Y-111369819D01*
X120717732Y-111369819D02*
X120527256Y-111369819D01*
X120527256Y-111369819D02*
X120432018Y-111322200D01*
X121336780Y-111274580D02*
X121384399Y-111322200D01*
X121384399Y-111322200D02*
X121336780Y-111369819D01*
X121336780Y-111369819D02*
X121289161Y-111322200D01*
X121289161Y-111322200D02*
X121336780Y-111274580D01*
X121336780Y-111274580D02*
X121336780Y-111369819D01*
X122241541Y-111322200D02*
X122146303Y-111369819D01*
X122146303Y-111369819D02*
X121955827Y-111369819D01*
X121955827Y-111369819D02*
X121860589Y-111322200D01*
X121860589Y-111322200D02*
X121812970Y-111274580D01*
X121812970Y-111274580D02*
X121765351Y-111179342D01*
X121765351Y-111179342D02*
X121765351Y-110893628D01*
X121765351Y-110893628D02*
X121812970Y-110798390D01*
X121812970Y-110798390D02*
X121860589Y-110750771D01*
X121860589Y-110750771D02*
X121955827Y-110703152D01*
X121955827Y-110703152D02*
X122146303Y-110703152D01*
X122146303Y-110703152D02*
X122241541Y-110750771D01*
X122812970Y-111369819D02*
X122717732Y-111322200D01*
X122717732Y-111322200D02*
X122670113Y-111274580D01*
X122670113Y-111274580D02*
X122622494Y-111179342D01*
X122622494Y-111179342D02*
X122622494Y-110893628D01*
X122622494Y-110893628D02*
X122670113Y-110798390D01*
X122670113Y-110798390D02*
X122717732Y-110750771D01*
X122717732Y-110750771D02*
X122812970Y-110703152D01*
X122812970Y-110703152D02*
X122955827Y-110703152D01*
X122955827Y-110703152D02*
X123051065Y-110750771D01*
X123051065Y-110750771D02*
X123098684Y-110798390D01*
X123098684Y-110798390D02*
X123146303Y-110893628D01*
X123146303Y-110893628D02*
X123146303Y-111179342D01*
X123146303Y-111179342D02*
X123098684Y-111274580D01*
X123098684Y-111274580D02*
X123051065Y-111322200D01*
X123051065Y-111322200D02*
X122955827Y-111369819D01*
X122955827Y-111369819D02*
X122812970Y-111369819D01*
X123574875Y-111369819D02*
X123574875Y-110703152D01*
X123574875Y-110798390D02*
X123622494Y-110750771D01*
X123622494Y-110750771D02*
X123717732Y-110703152D01*
X123717732Y-110703152D02*
X123860589Y-110703152D01*
X123860589Y-110703152D02*
X123955827Y-110750771D01*
X123955827Y-110750771D02*
X124003446Y-110846009D01*
X124003446Y-110846009D02*
X124003446Y-111369819D01*
X124003446Y-110846009D02*
X124051065Y-110750771D01*
X124051065Y-110750771D02*
X124146303Y-110703152D01*
X124146303Y-110703152D02*
X124289160Y-110703152D01*
X124289160Y-110703152D02*
X124384399Y-110750771D01*
X124384399Y-110750771D02*
X124432018Y-110846009D01*
X124432018Y-110846009D02*
X124432018Y-111369819D01*
X125622493Y-110322200D02*
X124765351Y-111607914D01*
X125908208Y-111084104D02*
X126384398Y-111084104D01*
X125812970Y-111369819D02*
X126146303Y-110369819D01*
X126146303Y-110369819D02*
X126479636Y-111369819D01*
X126812970Y-111369819D02*
X126812970Y-110369819D01*
X126908208Y-110988866D02*
X127193922Y-111369819D01*
X127193922Y-110703152D02*
X126812970Y-111084104D01*
X128051065Y-110703152D02*
X128051065Y-111369819D01*
X127622494Y-110703152D02*
X127622494Y-111226961D01*
X127622494Y-111226961D02*
X127670113Y-111322200D01*
X127670113Y-111322200D02*
X127765351Y-111369819D01*
X127765351Y-111369819D02*
X127908208Y-111369819D01*
X127908208Y-111369819D02*
X128003446Y-111322200D01*
X128003446Y-111322200D02*
X128051065Y-111274580D01*
X128384399Y-110703152D02*
X128765351Y-110703152D01*
X128527256Y-110369819D02*
X128527256Y-111226961D01*
X128527256Y-111226961D02*
X128574875Y-111322200D01*
X128574875Y-111322200D02*
X128670113Y-111369819D01*
X128670113Y-111369819D02*
X128765351Y-111369819D01*
X129527256Y-111369819D02*
X129527256Y-110846009D01*
X129527256Y-110846009D02*
X129479637Y-110750771D01*
X129479637Y-110750771D02*
X129384399Y-110703152D01*
X129384399Y-110703152D02*
X129193923Y-110703152D01*
X129193923Y-110703152D02*
X129098685Y-110750771D01*
X129527256Y-111322200D02*
X129432018Y-111369819D01*
X129432018Y-111369819D02*
X129193923Y-111369819D01*
X129193923Y-111369819D02*
X129098685Y-111322200D01*
X129098685Y-111322200D02*
X129051066Y-111226961D01*
X129051066Y-111226961D02*
X129051066Y-111131723D01*
X129051066Y-111131723D02*
X129098685Y-111036485D01*
X129098685Y-111036485D02*
X129193923Y-110988866D01*
X129193923Y-110988866D02*
X129432018Y-110988866D01*
X129432018Y-110988866D02*
X129527256Y-110941247D01*
X130432018Y-110703152D02*
X130432018Y-111512676D01*
X130432018Y-111512676D02*
X130384399Y-111607914D01*
X130384399Y-111607914D02*
X130336780Y-111655533D01*
X130336780Y-111655533D02*
X130241542Y-111703152D01*
X130241542Y-111703152D02*
X130098685Y-111703152D01*
X130098685Y-111703152D02*
X130003447Y-111655533D01*
X130432018Y-111322200D02*
X130336780Y-111369819D01*
X130336780Y-111369819D02*
X130146304Y-111369819D01*
X130146304Y-111369819D02*
X130051066Y-111322200D01*
X130051066Y-111322200D02*
X130003447Y-111274580D01*
X130003447Y-111274580D02*
X129955828Y-111179342D01*
X129955828Y-111179342D02*
X129955828Y-110893628D01*
X129955828Y-110893628D02*
X130003447Y-110798390D01*
X130003447Y-110798390D02*
X130051066Y-110750771D01*
X130051066Y-110750771D02*
X130146304Y-110703152D01*
X130146304Y-110703152D02*
X130336780Y-110703152D01*
X130336780Y-110703152D02*
X130432018Y-110750771D01*
X131336780Y-111369819D02*
X131336780Y-110846009D01*
X131336780Y-110846009D02*
X131289161Y-110750771D01*
X131289161Y-110750771D02*
X131193923Y-110703152D01*
X131193923Y-110703152D02*
X131003447Y-110703152D01*
X131003447Y-110703152D02*
X130908209Y-110750771D01*
X131336780Y-111322200D02*
X131241542Y-111369819D01*
X131241542Y-111369819D02*
X131003447Y-111369819D01*
X131003447Y-111369819D02*
X130908209Y-111322200D01*
X130908209Y-111322200D02*
X130860590Y-111226961D01*
X130860590Y-111226961D02*
X130860590Y-111131723D01*
X130860590Y-111131723D02*
X130908209Y-111036485D01*
X130908209Y-111036485D02*
X131003447Y-110988866D01*
X131003447Y-110988866D02*
X131241542Y-110988866D01*
X131241542Y-110988866D02*
X131336780Y-110941247D01*
X131717733Y-110703152D02*
X131908209Y-111369819D01*
X131908209Y-111369819D02*
X132098685Y-110893628D01*
X132098685Y-110893628D02*
X132289161Y-111369819D01*
X132289161Y-111369819D02*
X132479637Y-110703152D01*
X133289161Y-111369819D02*
X133289161Y-110846009D01*
X133289161Y-110846009D02*
X133241542Y-110750771D01*
X133241542Y-110750771D02*
X133146304Y-110703152D01*
X133146304Y-110703152D02*
X132955828Y-110703152D01*
X132955828Y-110703152D02*
X132860590Y-110750771D01*
X133289161Y-111322200D02*
X133193923Y-111369819D01*
X133193923Y-111369819D02*
X132955828Y-111369819D01*
X132955828Y-111369819D02*
X132860590Y-111322200D01*
X132860590Y-111322200D02*
X132812971Y-111226961D01*
X132812971Y-111226961D02*
X132812971Y-111131723D01*
X132812971Y-111131723D02*
X132860590Y-111036485D01*
X132860590Y-111036485D02*
X132955828Y-110988866D01*
X132955828Y-110988866D02*
X133193923Y-110988866D01*
X133193923Y-110988866D02*
X133289161Y-110941247D01*
X134241542Y-110369819D02*
X133765352Y-110369819D01*
X133765352Y-110369819D02*
X133717733Y-110846009D01*
X133717733Y-110846009D02*
X133765352Y-110798390D01*
X133765352Y-110798390D02*
X133860590Y-110750771D01*
X133860590Y-110750771D02*
X134098685Y-110750771D01*
X134098685Y-110750771D02*
X134193923Y-110798390D01*
X134193923Y-110798390D02*
X134241542Y-110846009D01*
X134241542Y-110846009D02*
X134289161Y-110941247D01*
X134289161Y-110941247D02*
X134289161Y-111179342D01*
X134289161Y-111179342D02*
X134241542Y-111274580D01*
X134241542Y-111274580D02*
X134193923Y-111322200D01*
X134193923Y-111322200D02*
X134098685Y-111369819D01*
X134098685Y-111369819D02*
X133860590Y-111369819D01*
X133860590Y-111369819D02*
X133765352Y-111322200D01*
X133765352Y-111322200D02*
X133717733Y-111274580D01*
X134908209Y-110369819D02*
X135003447Y-110369819D01*
X135003447Y-110369819D02*
X135098685Y-110417438D01*
X135098685Y-110417438D02*
X135146304Y-110465057D01*
X135146304Y-110465057D02*
X135193923Y-110560295D01*
X135193923Y-110560295D02*
X135241542Y-110750771D01*
X135241542Y-110750771D02*
X135241542Y-110988866D01*
X135241542Y-110988866D02*
X135193923Y-111179342D01*
X135193923Y-111179342D02*
X135146304Y-111274580D01*
X135146304Y-111274580D02*
X135098685Y-111322200D01*
X135098685Y-111322200D02*
X135003447Y-111369819D01*
X135003447Y-111369819D02*
X134908209Y-111369819D01*
X134908209Y-111369819D02*
X134812971Y-111322200D01*
X134812971Y-111322200D02*
X134765352Y-111274580D01*
X134765352Y-111274580D02*
X134717733Y-111179342D01*
X134717733Y-111179342D02*
X134670114Y-110988866D01*
X134670114Y-110988866D02*
X134670114Y-110750771D01*
X134670114Y-110750771D02*
X134717733Y-110560295D01*
X134717733Y-110560295D02*
X134765352Y-110465057D01*
X134765352Y-110465057D02*
X134812971Y-110417438D01*
X134812971Y-110417438D02*
X134908209Y-110369819D01*
X136384399Y-110322200D02*
X135527257Y-111607914D01*
X137193923Y-111369819D02*
X136717733Y-111369819D01*
X136717733Y-111369819D02*
X136717733Y-110369819D01*
X137527257Y-110846009D02*
X137860590Y-110846009D01*
X138003447Y-111369819D02*
X137527257Y-111369819D01*
X137527257Y-111369819D02*
X137527257Y-110369819D01*
X137527257Y-110369819D02*
X138003447Y-110369819D01*
X138432019Y-111369819D02*
X138432019Y-110369819D01*
X138432019Y-110369819D02*
X138670114Y-110369819D01*
X138670114Y-110369819D02*
X138812971Y-110417438D01*
X138812971Y-110417438D02*
X138908209Y-110512676D01*
X138908209Y-110512676D02*
X138955828Y-110607914D01*
X138955828Y-110607914D02*
X139003447Y-110798390D01*
X139003447Y-110798390D02*
X139003447Y-110941247D01*
X139003447Y-110941247D02*
X138955828Y-111131723D01*
X138955828Y-111131723D02*
X138908209Y-111226961D01*
X138908209Y-111226961D02*
X138812971Y-111322200D01*
X138812971Y-111322200D02*
X138670114Y-111369819D01*
X138670114Y-111369819D02*
X138432019Y-111369819D01*
X139432019Y-111369819D02*
X139432019Y-110369819D01*
X139432019Y-110750771D02*
X139527257Y-110703152D01*
X139527257Y-110703152D02*
X139717733Y-110703152D01*
X139717733Y-110703152D02*
X139812971Y-110750771D01*
X139812971Y-110750771D02*
X139860590Y-110798390D01*
X139860590Y-110798390D02*
X139908209Y-110893628D01*
X139908209Y-110893628D02*
X139908209Y-111179342D01*
X139908209Y-111179342D02*
X139860590Y-111274580D01*
X139860590Y-111274580D02*
X139812971Y-111322200D01*
X139812971Y-111322200D02*
X139717733Y-111369819D01*
X139717733Y-111369819D02*
X139527257Y-111369819D01*
X139527257Y-111369819D02*
X139432019Y-111322200D01*
X140479638Y-111369819D02*
X140384400Y-111322200D01*
X140384400Y-111322200D02*
X140336781Y-111274580D01*
X140336781Y-111274580D02*
X140289162Y-111179342D01*
X140289162Y-111179342D02*
X140289162Y-110893628D01*
X140289162Y-110893628D02*
X140336781Y-110798390D01*
X140336781Y-110798390D02*
X140384400Y-110750771D01*
X140384400Y-110750771D02*
X140479638Y-110703152D01*
X140479638Y-110703152D02*
X140622495Y-110703152D01*
X140622495Y-110703152D02*
X140717733Y-110750771D01*
X140717733Y-110750771D02*
X140765352Y-110798390D01*
X140765352Y-110798390D02*
X140812971Y-110893628D01*
X140812971Y-110893628D02*
X140812971Y-111179342D01*
X140812971Y-111179342D02*
X140765352Y-111274580D01*
X140765352Y-111274580D02*
X140717733Y-111322200D01*
X140717733Y-111322200D02*
X140622495Y-111369819D01*
X140622495Y-111369819D02*
X140479638Y-111369819D01*
X141670114Y-111369819D02*
X141670114Y-110846009D01*
X141670114Y-110846009D02*
X141622495Y-110750771D01*
X141622495Y-110750771D02*
X141527257Y-110703152D01*
X141527257Y-110703152D02*
X141336781Y-110703152D01*
X141336781Y-110703152D02*
X141241543Y-110750771D01*
X141670114Y-111322200D02*
X141574876Y-111369819D01*
X141574876Y-111369819D02*
X141336781Y-111369819D01*
X141336781Y-111369819D02*
X141241543Y-111322200D01*
X141241543Y-111322200D02*
X141193924Y-111226961D01*
X141193924Y-111226961D02*
X141193924Y-111131723D01*
X141193924Y-111131723D02*
X141241543Y-111036485D01*
X141241543Y-111036485D02*
X141336781Y-110988866D01*
X141336781Y-110988866D02*
X141574876Y-110988866D01*
X141574876Y-110988866D02*
X141670114Y-110941247D01*
X142146305Y-111369819D02*
X142146305Y-110703152D01*
X142146305Y-110893628D02*
X142193924Y-110798390D01*
X142193924Y-110798390D02*
X142241543Y-110750771D01*
X142241543Y-110750771D02*
X142336781Y-110703152D01*
X142336781Y-110703152D02*
X142432019Y-110703152D01*
X143193924Y-111369819D02*
X143193924Y-110369819D01*
X143193924Y-111322200D02*
X143098686Y-111369819D01*
X143098686Y-111369819D02*
X142908210Y-111369819D01*
X142908210Y-111369819D02*
X142812972Y-111322200D01*
X142812972Y-111322200D02*
X142765353Y-111274580D01*
X142765353Y-111274580D02*
X142717734Y-111179342D01*
X142717734Y-111179342D02*
X142717734Y-110893628D01*
X142717734Y-110893628D02*
X142765353Y-110798390D01*
X142765353Y-110798390D02*
X142812972Y-110750771D01*
X142812972Y-110750771D02*
X142908210Y-110703152D01*
X142908210Y-110703152D02*
X143098686Y-110703152D01*
X143098686Y-110703152D02*
X143193924Y-110750771D01*
X157311905Y-105454819D02*
X157311905Y-104454819D01*
X157311905Y-104454819D02*
X157550000Y-104454819D01*
X157550000Y-104454819D02*
X157692857Y-104502438D01*
X157692857Y-104502438D02*
X157788095Y-104597676D01*
X157788095Y-104597676D02*
X157835714Y-104692914D01*
X157835714Y-104692914D02*
X157883333Y-104883390D01*
X157883333Y-104883390D02*
X157883333Y-105026247D01*
X157883333Y-105026247D02*
X157835714Y-105216723D01*
X157835714Y-105216723D02*
X157788095Y-105311961D01*
X157788095Y-105311961D02*
X157692857Y-105407200D01*
X157692857Y-105407200D02*
X157550000Y-105454819D01*
X157550000Y-105454819D02*
X157311905Y-105454819D01*
X158788095Y-104454819D02*
X158311905Y-104454819D01*
X158311905Y-104454819D02*
X158264286Y-104931009D01*
X158264286Y-104931009D02*
X158311905Y-104883390D01*
X158311905Y-104883390D02*
X158407143Y-104835771D01*
X158407143Y-104835771D02*
X158645238Y-104835771D01*
X158645238Y-104835771D02*
X158740476Y-104883390D01*
X158740476Y-104883390D02*
X158788095Y-104931009D01*
X158788095Y-104931009D02*
X158835714Y-105026247D01*
X158835714Y-105026247D02*
X158835714Y-105264342D01*
X158835714Y-105264342D02*
X158788095Y-105359580D01*
X158788095Y-105359580D02*
X158740476Y-105407200D01*
X158740476Y-105407200D02*
X158645238Y-105454819D01*
X158645238Y-105454819D02*
X158407143Y-105454819D01*
X158407143Y-105454819D02*
X158311905Y-105407200D01*
X158311905Y-105407200D02*
X158264286Y-105359580D01*
X147151905Y-105454819D02*
X147151905Y-104454819D01*
X147151905Y-104454819D02*
X147390000Y-104454819D01*
X147390000Y-104454819D02*
X147532857Y-104502438D01*
X147532857Y-104502438D02*
X147628095Y-104597676D01*
X147628095Y-104597676D02*
X147675714Y-104692914D01*
X147675714Y-104692914D02*
X147723333Y-104883390D01*
X147723333Y-104883390D02*
X147723333Y-105026247D01*
X147723333Y-105026247D02*
X147675714Y-105216723D01*
X147675714Y-105216723D02*
X147628095Y-105311961D01*
X147628095Y-105311961D02*
X147532857Y-105407200D01*
X147532857Y-105407200D02*
X147390000Y-105454819D01*
X147390000Y-105454819D02*
X147151905Y-105454819D01*
X148580476Y-104788152D02*
X148580476Y-105454819D01*
X148342381Y-104407200D02*
X148104286Y-105121485D01*
X148104286Y-105121485D02*
X148723333Y-105121485D01*
X136991905Y-105454819D02*
X136991905Y-104454819D01*
X136991905Y-104454819D02*
X137230000Y-104454819D01*
X137230000Y-104454819D02*
X137372857Y-104502438D01*
X137372857Y-104502438D02*
X137468095Y-104597676D01*
X137468095Y-104597676D02*
X137515714Y-104692914D01*
X137515714Y-104692914D02*
X137563333Y-104883390D01*
X137563333Y-104883390D02*
X137563333Y-105026247D01*
X137563333Y-105026247D02*
X137515714Y-105216723D01*
X137515714Y-105216723D02*
X137468095Y-105311961D01*
X137468095Y-105311961D02*
X137372857Y-105407200D01*
X137372857Y-105407200D02*
X137230000Y-105454819D01*
X137230000Y-105454819D02*
X136991905Y-105454819D01*
X137896667Y-104454819D02*
X138515714Y-104454819D01*
X138515714Y-104454819D02*
X138182381Y-104835771D01*
X138182381Y-104835771D02*
X138325238Y-104835771D01*
X138325238Y-104835771D02*
X138420476Y-104883390D01*
X138420476Y-104883390D02*
X138468095Y-104931009D01*
X138468095Y-104931009D02*
X138515714Y-105026247D01*
X138515714Y-105026247D02*
X138515714Y-105264342D01*
X138515714Y-105264342D02*
X138468095Y-105359580D01*
X138468095Y-105359580D02*
X138420476Y-105407200D01*
X138420476Y-105407200D02*
X138325238Y-105454819D01*
X138325238Y-105454819D02*
X138039524Y-105454819D01*
X138039524Y-105454819D02*
X137944286Y-105407200D01*
X137944286Y-105407200D02*
X137896667Y-105359580D01*
X126831905Y-105454819D02*
X126831905Y-104454819D01*
X126831905Y-104454819D02*
X127070000Y-104454819D01*
X127070000Y-104454819D02*
X127212857Y-104502438D01*
X127212857Y-104502438D02*
X127308095Y-104597676D01*
X127308095Y-104597676D02*
X127355714Y-104692914D01*
X127355714Y-104692914D02*
X127403333Y-104883390D01*
X127403333Y-104883390D02*
X127403333Y-105026247D01*
X127403333Y-105026247D02*
X127355714Y-105216723D01*
X127355714Y-105216723D02*
X127308095Y-105311961D01*
X127308095Y-105311961D02*
X127212857Y-105407200D01*
X127212857Y-105407200D02*
X127070000Y-105454819D01*
X127070000Y-105454819D02*
X126831905Y-105454819D01*
X127784286Y-104550057D02*
X127831905Y-104502438D01*
X127831905Y-104502438D02*
X127927143Y-104454819D01*
X127927143Y-104454819D02*
X128165238Y-104454819D01*
X128165238Y-104454819D02*
X128260476Y-104502438D01*
X128260476Y-104502438D02*
X128308095Y-104550057D01*
X128308095Y-104550057D02*
X128355714Y-104645295D01*
X128355714Y-104645295D02*
X128355714Y-104740533D01*
X128355714Y-104740533D02*
X128308095Y-104883390D01*
X128308095Y-104883390D02*
X127736667Y-105454819D01*
X127736667Y-105454819D02*
X128355714Y-105454819D01*
X116671905Y-105454819D02*
X116671905Y-104454819D01*
X116671905Y-104454819D02*
X116910000Y-104454819D01*
X116910000Y-104454819D02*
X117052857Y-104502438D01*
X117052857Y-104502438D02*
X117148095Y-104597676D01*
X117148095Y-104597676D02*
X117195714Y-104692914D01*
X117195714Y-104692914D02*
X117243333Y-104883390D01*
X117243333Y-104883390D02*
X117243333Y-105026247D01*
X117243333Y-105026247D02*
X117195714Y-105216723D01*
X117195714Y-105216723D02*
X117148095Y-105311961D01*
X117148095Y-105311961D02*
X117052857Y-105407200D01*
X117052857Y-105407200D02*
X116910000Y-105454819D01*
X116910000Y-105454819D02*
X116671905Y-105454819D01*
X118195714Y-105454819D02*
X117624286Y-105454819D01*
X117910000Y-105454819D02*
X117910000Y-104454819D01*
X117910000Y-104454819D02*
X117814762Y-104597676D01*
X117814762Y-104597676D02*
X117719524Y-104692914D01*
X117719524Y-104692914D02*
X117624286Y-104740533D01*
D11*
%TO.C,D5*%
X156814000Y-103100000D02*
X156970000Y-103100000D01*
X159130000Y-103100000D02*
X159286000Y-103100000D01*
X156970164Y-100498871D02*
G75*
G03*
X156970001Y-102580960I1079836J-1041129D01*
G01*
X159285515Y-103099999D02*
G75*
G03*
X159128608Y-99867666I-1235515J1559999D01*
G01*
X159129999Y-102580960D02*
G75*
G03*
X159129836Y-100498871I-1079999J1040960D01*
G01*
X156971392Y-99867666D02*
G75*
G03*
X156814485Y-103099999I1078608J-1672334D01*
G01*
%TO.C,D4*%
X146654000Y-103100000D02*
X146810000Y-103100000D01*
X148970000Y-103100000D02*
X149126000Y-103100000D01*
X146810164Y-100498871D02*
G75*
G03*
X146810001Y-102580960I1079836J-1041129D01*
G01*
X149125515Y-103099999D02*
G75*
G03*
X148968608Y-99867666I-1235515J1559999D01*
G01*
X148969999Y-102580960D02*
G75*
G03*
X148969836Y-100498871I-1079999J1040960D01*
G01*
X146811392Y-99867666D02*
G75*
G03*
X146654485Y-103099999I1078608J-1672334D01*
G01*
%TO.C,D3*%
X136494000Y-103100000D02*
X136650000Y-103100000D01*
X138810000Y-103100000D02*
X138966000Y-103100000D01*
X136650164Y-100498871D02*
G75*
G03*
X136650001Y-102580960I1079836J-1041129D01*
G01*
X138965515Y-103099999D02*
G75*
G03*
X138808608Y-99867666I-1235515J1559999D01*
G01*
X138809999Y-102580960D02*
G75*
G03*
X138809836Y-100498871I-1079999J1040960D01*
G01*
X136651392Y-99867666D02*
G75*
G03*
X136494485Y-103099999I1078608J-1672334D01*
G01*
%TO.C,D2*%
X126334000Y-103100000D02*
X126490000Y-103100000D01*
X128650000Y-103100000D02*
X128806000Y-103100000D01*
X126490164Y-100498871D02*
G75*
G03*
X126490001Y-102580960I1079836J-1041129D01*
G01*
X128805515Y-103099999D02*
G75*
G03*
X128648608Y-99867666I-1235515J1559999D01*
G01*
X128649999Y-102580960D02*
G75*
G03*
X128649836Y-100498871I-1079999J1040960D01*
G01*
X126491392Y-99867666D02*
G75*
G03*
X126334485Y-103099999I1078608J-1672334D01*
G01*
%TO.C,D1*%
X116331392Y-99867666D02*
G75*
G03*
X116174485Y-103099999I1078608J-1672334D01*
G01*
X118489999Y-102580960D02*
G75*
G03*
X118489836Y-100498871I-1079999J1040960D01*
G01*
X118645515Y-103099999D02*
G75*
G03*
X118488608Y-99867666I-1235515J1559999D01*
G01*
X116330164Y-100498871D02*
G75*
G03*
X116330001Y-102580960I1079836J-1041129D01*
G01*
X118490000Y-103100000D02*
X118646000Y-103100000D01*
X116174000Y-103100000D02*
X116330000Y-103100000D01*
%TD*%
M02*
